<svg width="66" height="178" viewBox="0 0 66 178" fill="none" xmlns="http://www.w3.org/2000/svg">
<path d="M10.4531 52.2285C10.4531 51.4001 9.78155 50.7285 8.95312 50.7285C8.1247 50.7285 7.45312 51.4001 7.45312 52.2285H8.95312H10.4531ZM8.95312 52.3285L10.4523 52.3783L10.4531 52.3534V52.3285H8.95312ZM8.63036 117.044L7.13461 117.156L8.63036 117.044ZM9.1238 125.984L7.64256 126.22L9.1238 125.984ZM9.15613 130.569L8.49327 131.914L8.80672 132.069H9.15613V130.569ZM8.95312 130.469L9.61598 129.123L7.45312 128.057V130.469H8.95312ZM7.45312 130.569C7.45312 131.397 8.1247 132.069 8.95312 132.069C9.78155 132.069 10.4531 131.397 10.4531 130.569H8.95312H7.45312ZM8.95312 52.2285H7.45312V52.3285H8.95312H10.4531V52.2285H8.95312ZM8.95312 52.3285L7.45395 52.2787C7.35734 55.1879 7.26025 57.3697 7.16321 58.8344L8.65992 58.9335L10.1566 59.0327C10.257 57.5173 10.3554 55.2958 10.4523 52.3783L8.95312 52.3285ZM8.65992 58.9335L7.16321 58.8344C7.05729 60.4329 7.1247 62.031 7.36472 63.6266L8.84804 63.4035L10.3313 63.1804C10.1231 61.7961 10.0651 60.4141 10.1566 59.0327L8.65992 58.9335ZM8.84804 63.4035L7.36472 63.6266C7.5807 65.0624 7.71621 66.4972 7.77149 67.9313L9.27037 67.8735L10.7693 67.8157C10.7097 66.2698 10.5636 64.7246 10.3313 63.1804L8.84804 63.4035ZM9.27037 67.8735L7.77149 67.9313C7.82551 69.3329 7.75619 70.7352 7.56308 72.1391L9.04909 72.3435L10.5351 72.5479C10.7519 70.9718 10.8301 69.3941 10.7693 67.8157L9.27037 67.8735ZM9.04909 72.3435L7.56308 72.1391C7.35191 73.6743 7.21194 75.2102 7.14331 76.7466L8.64181 76.8135L10.1403 76.8805C10.2048 75.4368 10.3364 73.9927 10.5351 72.5479L9.04909 72.3435ZM8.64181 76.8135L7.14331 76.7466C7.07367 78.3053 7.11111 79.8639 7.25551 81.4219L8.74911 81.2835L10.2427 81.1451C10.1109 79.7231 10.0768 78.3017 10.1403 76.8805L8.64181 76.8135ZM8.74911 81.2835L7.25551 81.4219C7.39262 82.9012 7.51367 84.3805 7.61867 85.8597L9.1149 85.7535L10.6111 85.6473C10.5046 84.1465 10.3818 82.6458 10.2427 81.1451L8.74911 81.2835ZM9.1149 85.7535L7.61867 85.8597C7.72335 87.3345 7.80542 88.8092 7.86487 90.2839L9.36365 90.2235L10.8624 90.1631C10.8017 88.6578 10.718 87.1525 10.6111 85.6473L9.1149 85.7535ZM9.36365 90.2235L7.86487 90.2839C7.92215 91.7047 7.88123 93.1257 7.74198 94.5473L9.23483 94.6935L10.7277 94.8397C10.8803 93.2814 10.9253 91.7223 10.8624 90.1631L9.36365 90.2235ZM9.23483 94.6935L7.74198 94.5473C7.59715 96.0258 7.4351 97.5044 7.25581 98.983L8.7449 99.1635L10.234 99.3441C10.416 97.8427 10.5806 96.3412 10.7277 94.8397L9.23483 94.6935ZM8.7449 99.1635L7.25581 98.983C7.06428 100.563 7.01638 102.143 7.11243 103.724L8.60967 103.634L10.1069 103.543C10.0219 102.144 10.0642 100.745 10.234 99.3441L8.7449 99.1635ZM8.60967 103.634L7.11243 103.724C7.20646 105.272 7.3904 106.819 7.66397 108.365L9.14101 108.104L10.6181 107.842C10.3642 106.408 10.1939 104.975 10.1069 103.543L8.60967 103.634ZM9.14101 108.104L7.66397 108.365C7.89126 109.649 7.85143 110.931 7.54077 112.223L8.9992 112.574L10.4576 112.924C10.8635 111.236 10.9182 109.538 10.6181 107.842L9.14101 108.104ZM8.9992 112.574L7.54077 112.223C7.147 113.861 7.01022 115.507 7.13461 117.156L8.63036 117.044L10.1261 116.931C10.0258 115.6 10.1349 114.267 10.4576 112.924L8.9992 112.574ZM8.63036 117.044L7.13461 117.156C7.24388 118.605 7.29334 120.054 7.283 121.503L8.78297 121.514L10.2829 121.524C10.2939 119.993 10.2416 118.462 10.1261 116.931L8.63036 117.044ZM8.78297 121.514L7.283 121.503C7.27178 123.077 7.39182 124.649 7.64256 126.22L9.1238 125.984L10.605 125.747C10.3801 124.338 10.2729 122.93 10.2829 121.524L8.78297 121.514ZM9.1238 125.984L7.64256 126.22C7.87606 127.683 7.95401 128.694 7.92185 129.316L9.41986 129.394L10.9179 129.471C10.9667 128.526 10.8473 127.264 10.605 125.747L9.1238 125.984ZM9.41986 129.394L7.92185 129.316C7.90269 129.687 7.8753 129.878 7.85997 129.946C7.84939 129.993 7.86356 129.896 7.94556 129.752C7.98894 129.676 8.08803 129.521 8.27264 129.375C8.47678 129.213 8.78073 129.069 9.15613 129.069V130.569V132.069C10.0197 132.069 10.4421 131.431 10.5519 131.238C10.6897 130.996 10.7538 130.752 10.7871 130.603C10.8597 130.28 10.8965 129.883 10.9179 129.471L9.41986 129.394ZM9.15613 130.569L9.81898 129.223L9.61598 129.123L8.95312 130.469L8.29027 131.814L8.49327 131.914L9.15613 130.569ZM8.95312 130.469H7.45312V130.569H8.95312H10.4531V130.469H8.95312Z" fill="black"/>
<path d="M56.6865 54.1543C56.6865 53.3259 56.015 52.6543 55.1865 52.6543C54.3581 52.6543 53.6865 53.3259 53.6865 54.1543H55.1865H56.6865ZM55.1865 54.2543H53.6865V54.2919L53.6884 54.3294L55.1865 54.2543ZM54.6774 118.969L53.1783 118.916L54.6774 118.969ZM55.0401 130.196L54.5444 131.611L55.0277 131.781L55.5136 131.619L55.0401 130.196ZM55.1865 130.147H56.6865V128.067L54.713 128.724L55.1865 130.147ZM53.6865 130.247C53.6865 131.075 54.3581 131.747 55.1865 131.747C56.015 131.747 56.6865 131.075 56.6865 130.247H55.1865H53.6865ZM55.1865 54.1543H53.6865V54.2543H55.1865H56.6865V54.1543H55.1865ZM55.1865 54.2543L53.6884 54.3294C53.8337 57.2291 53.8586 59.3643 53.7746 60.7698L55.2719 60.8593L56.7693 60.9488C56.8634 59.3742 56.8313 57.1061 56.6846 54.1792L55.1865 54.2543ZM55.2719 60.8593L53.7746 60.7698C53.6836 62.2927 53.6428 63.8157 53.6524 65.3387L55.1524 65.3293L56.6524 65.3199C56.6432 63.8629 56.6822 62.4059 56.7693 60.9488L55.2719 60.8593ZM55.1524 65.3293L53.6524 65.3387C53.6618 66.8312 53.6748 68.3236 53.6915 69.816L55.1914 69.7993L56.6913 69.7825C56.6747 68.295 56.6617 66.8074 56.6524 65.3199L55.1524 65.3293ZM55.1914 69.7993L53.6915 69.816C53.7086 71.3457 53.7863 72.8752 53.9245 74.4043L55.4184 74.2693L56.9123 74.1343C56.7812 72.6834 56.7075 71.2329 56.6913 69.7825L55.1914 69.7993ZM55.4184 74.2693L53.9245 74.4043C54.0471 75.7604 53.9885 77.117 53.7475 78.4776L55.2245 78.7393L56.7015 79.001C56.9884 77.3816 57.0591 75.7582 56.9123 74.1343L55.4184 74.2693ZM55.2245 78.7393L53.7475 78.4776C53.4541 80.1337 53.4426 81.794 53.7134 83.4512L55.1938 83.2093L56.6742 82.9674C56.458 81.6446 56.4669 80.3249 56.7015 79.001L55.2245 78.7393ZM55.1938 83.2093L53.7134 83.4512C53.9331 84.7951 53.9516 86.1356 53.7696 87.4777L55.256 87.6793L56.7423 87.8809C56.9645 86.243 56.9416 84.6035 56.6742 82.9674L55.1938 83.2093ZM55.256 87.6793L53.7696 87.4777C53.5535 89.0709 53.5048 90.6659 53.624 92.261L55.1198 92.1493L56.6156 92.0376C56.5122 90.6527 56.5543 89.2677 56.7423 87.8809L55.256 87.6793ZM55.1198 92.1493L53.624 92.261C53.7303 93.6848 53.7418 95.1082 53.6586 96.5317L55.156 96.6193L56.6535 96.7069C56.7445 95.1504 56.7319 93.5938 56.6156 92.0376L55.1198 92.1493ZM55.156 96.6193L53.6586 96.5317C53.572 98.011 53.4696 99.4903 53.3512 100.97L54.8465 101.089L56.3417 101.209C56.4618 99.7083 56.5657 98.2076 56.6535 96.7069L55.156 96.6193ZM54.8465 101.089L53.3512 100.97C53.2225 102.579 53.2857 104.188 53.5399 105.794L55.0215 105.559L56.503 105.325C56.2855 103.951 56.232 102.58 56.3417 101.209L54.8465 101.089ZM55.0215 105.559L53.5399 105.794C53.7643 107.211 53.8824 108.627 53.8946 110.042L55.3946 110.029L56.8945 110.016C56.881 108.451 56.7503 106.887 56.503 105.325L55.0215 105.559ZM55.3946 110.029L53.8946 110.042C53.9068 111.454 53.8093 112.867 53.6015 114.281L55.0856 114.499L56.5697 114.717C56.7996 113.152 56.9081 111.584 56.8945 110.016L55.3946 110.029ZM55.0856 114.499L53.6015 114.281C53.3747 115.825 53.2336 117.37 53.1783 118.916L54.6774 118.969L56.1764 119.023C56.2277 117.588 56.3587 116.153 56.5697 114.717L55.0856 114.499ZM54.6774 118.969L53.1783 118.916C53.1217 120.499 53.2126 122.082 53.4504 123.662L54.9338 123.439L56.4171 123.216C56.2065 121.817 56.1265 120.419 56.1764 119.023L54.6774 118.969ZM54.9338 123.439L53.4504 123.662C53.6574 125.038 53.7027 126.411 53.5871 127.783L55.0818 127.909L56.5765 128.035C56.7119 126.428 56.6585 124.821 56.4171 123.216L54.9338 123.439ZM55.0818 127.909L53.5871 127.783C53.5237 128.536 53.4854 129.139 53.4775 129.571C53.4737 129.779 53.4757 129.997 53.496 130.19C53.5052 130.278 53.5253 130.436 53.5812 130.609C53.6088 130.695 53.6652 130.848 53.7761 131.014C53.8829 131.174 54.1197 131.463 54.5444 131.611L55.0401 130.196L55.5357 128.78C55.9482 128.924 56.1737 129.203 56.27 129.347C56.3705 129.497 56.4173 129.629 56.4362 129.688C56.4581 129.756 56.4685 129.808 56.4728 129.831C56.4775 129.858 56.4793 129.874 56.4795 129.877C56.4799 129.88 56.478 129.862 56.4769 129.814C56.4758 129.768 56.4756 129.706 56.477 129.626C56.4831 129.295 56.5145 128.772 56.5765 128.035L55.0818 127.909ZM55.0401 130.196L55.5136 131.619L55.6601 131.57L55.1865 130.147L54.713 128.724L54.5665 128.772L55.0401 130.196ZM55.1865 130.147H53.6865V130.247H55.1865H56.6865V130.147H55.1865Z" fill="black"/>
<path d="M9.49084 129.489C8.71748 129.192 7.84979 129.578 7.55282 130.351C7.25584 131.125 7.64204 131.992 8.41541 132.289L8.95312 130.889L9.49084 129.489ZM9.04648 130.925L9.63391 129.545L9.60923 129.534L9.5842 129.525L9.04648 130.925ZM28.0425 136.572L27.899 135.079L28.0425 136.572ZM32.5212 136.249L32.4491 134.75V134.75L32.5212 136.249ZM41.2733 135.276L41.9671 136.606L41.2733 135.276ZM53.3956 130.047L52.5686 128.795L53.3956 130.047ZM54.9878 128.778L56.1034 127.775L55.8807 127.527L55.5741 127.397L54.9878 128.778ZM54.777 128.688L54.0791 127.36L51.2788 128.832L54.1907 130.069L54.777 128.688ZM55.5634 129.969C56.2967 129.584 56.5787 128.677 56.1933 127.944C55.8078 127.21 54.9009 126.928 54.1676 127.314L54.8655 128.642L55.5634 129.969ZM8.95312 130.889L8.41541 132.289L8.50876 132.325L9.04648 130.925L9.5842 129.525L9.49084 129.489L8.95312 130.889ZM9.04648 130.925L8.45905 132.305C11.1177 133.437 13.1717 134.266 14.606 134.785L15.116 133.374L15.626 131.964C14.2719 131.474 12.2795 130.671 9.63391 129.545L9.04648 130.925ZM15.116 133.374L14.606 134.785C16.0424 135.304 17.5018 135.759 18.984 136.15L19.3663 134.699L19.7485 133.249C18.3522 132.881 16.9781 132.452 15.626 131.964L15.116 133.374ZM19.3663 134.699L18.984 136.15C20.3818 136.518 21.7721 136.948 23.155 137.441L23.6584 136.028L24.1619 134.615C22.7004 134.094 21.2293 133.639 19.7485 133.249L19.3663 134.699ZM23.6584 136.028L23.155 137.441C24.784 138.022 26.4662 138.23 28.186 138.065L28.0425 136.572L27.899 135.079C26.6177 135.202 25.3772 135.048 24.1619 134.615L23.6584 136.028ZM28.0425 136.572L28.186 138.065C29.6631 137.923 31.1322 137.817 32.5932 137.747L32.5212 136.249L32.4491 134.75C30.9398 134.823 29.423 134.932 27.899 135.079L28.0425 136.572ZM32.5212 136.249L32.5932 137.747C34.0341 137.677 35.4868 137.672 36.9514 137.73L37.0106 136.231L37.0698 134.732C35.519 134.671 33.9787 134.677 32.4491 134.75L32.5212 136.249ZM37.0106 136.231L36.9514 137.73C38.7199 137.799 40.4004 137.423 41.9671 136.606L41.2733 135.276L40.5795 133.946C39.4781 134.521 38.3169 134.781 37.0698 134.732L37.0106 136.231ZM41.2733 135.276L41.9671 136.606C43.1524 135.988 44.4168 135.575 45.7675 135.369L45.5412 133.886L45.3149 132.403C43.6431 132.658 42.0622 133.173 40.5795 133.946L41.2733 135.276ZM45.5412 133.886L45.7675 135.369C47.4729 135.109 49.0628 134.532 50.5253 133.641L49.7446 132.36L48.964 131.079C47.8445 131.761 46.6321 132.202 45.3149 132.403L45.5412 133.886ZM49.7446 132.36L50.5253 133.641C51.8303 132.845 53.0629 132.065 54.2226 131.298L53.3956 130.047L52.5686 128.795C51.4424 129.54 50.241 130.301 48.964 131.079L49.7446 132.36ZM53.3956 130.047L54.2226 131.298C54.8019 130.915 55.2661 130.591 55.5858 130.336C55.7342 130.218 55.9153 130.065 56.0633 129.895C56.1264 129.823 56.2736 129.649 56.3767 129.398C56.4731 129.164 56.6864 128.424 56.1034 127.775L54.9878 128.778L53.8722 129.78C53.6222 129.502 53.5086 129.165 53.497 128.855C53.4865 128.578 53.5572 128.366 53.6026 128.256C53.6878 128.049 53.798 127.929 53.8049 127.921C53.8407 127.88 53.8329 127.897 53.7159 127.99C53.5049 128.158 53.1323 128.423 52.5686 128.795L53.3956 130.047ZM54.9878 128.778L55.5741 127.397L55.3633 127.307L54.777 128.688L54.1907 130.069L54.4015 130.158L54.9878 128.778ZM54.777 128.688L55.4749 130.016L55.5634 129.969L54.8655 128.642L54.1676 127.314L54.0791 127.36L54.777 128.688Z" fill="black"/>
<path d="M9.43792 52.0903C8.65279 52.3546 8.23059 53.2054 8.4949 53.9905C8.75921 54.7756 9.60995 55.1978 10.3951 54.9335L9.9165 53.5119L9.43792 52.0903ZM10.0113 53.48L10.4899 54.9016L10.5351 54.8864L10.5792 54.8683L10.0113 53.48ZM33.79 49.7014L33.6279 51.1927L33.79 49.7014ZM42.4939 51.528L41.9831 52.9384L42.4939 51.528ZM46.8595 52.482L46.7342 53.9767L46.8595 52.482ZM51.0163 53.7907L50.2558 55.0836L51.0163 53.7907ZM53.7323 55.4955L54.6387 54.3003L54.6239 54.2891L54.6089 54.2783L53.7323 55.4955ZM54.4525 56.0416L53.5461 57.2368L53.6963 57.3507L53.87 57.4239L54.4525 56.0416ZM53.9622 57.4627C54.7256 57.7844 55.6052 57.4263 55.9269 56.6629C56.2486 55.8995 55.8905 55.0198 55.1271 54.6981L54.5446 56.0804L53.9622 57.4627ZM9.9165 53.5119L10.3951 54.9335L10.4899 54.9016L10.0113 53.48L9.5327 52.0584L9.43792 52.0903L9.9165 53.5119ZM10.0113 53.48L10.5792 54.8683C13.2669 53.7689 15.2862 52.9848 16.6516 52.5076L16.1568 51.0916L15.662 49.6756C14.2207 50.1792 12.143 50.9874 9.44337 52.0917L10.0113 53.48ZM16.1568 51.0916L16.6516 52.5076C17.9703 52.0468 19.3126 51.7096 20.6795 51.4952L20.4472 50.0133L20.2148 48.5314C18.6679 48.774 17.1499 49.1556 15.662 49.6756L16.1568 51.0916ZM20.4472 50.0133L20.6795 51.4952C22.012 51.2863 23.3615 51.2444 24.731 51.3709L24.869 49.8773L25.007 48.3837C23.3944 48.2347 21.7961 48.2835 20.2148 48.5314L20.4472 50.0133ZM24.869 49.8773L24.731 51.3709C26.3375 51.5194 27.9433 51.4815 29.5463 51.2578L29.339 49.7722L29.1316 48.2866C27.7565 48.4785 26.3824 48.5107 25.007 48.3837L24.869 49.8773ZM29.339 49.7722L29.5463 51.2578C30.9142 51.0668 32.2738 51.0455 33.6279 51.1927L33.79 49.7014L33.9521 48.2102C32.3495 48.036 30.7417 48.0618 29.1316 48.2866L29.339 49.7722ZM33.79 49.7014L33.6279 51.1927C35.068 51.3492 36.498 51.5606 37.9179 51.827L38.1945 50.3527L38.471 48.8784C36.975 48.5978 35.4687 48.3751 33.9521 48.2102L33.79 49.7014ZM38.1945 50.3527L37.9179 51.827C39.2954 52.0853 40.6502 52.4556 41.9831 52.9384L42.4939 51.528L43.0047 50.1177C41.5209 49.5802 40.0094 49.1669 38.471 48.8784L38.1945 50.3527ZM42.4939 51.528L41.9831 52.9384C43.5164 53.4937 45.1013 53.8399 46.7342 53.9767L46.8595 52.482L46.9847 50.9872C45.6135 50.8723 44.288 50.5825 43.0047 50.1177L42.4939 51.528ZM46.8595 52.482L46.7342 53.9767C48.0176 54.0843 49.1852 54.4538 50.2558 55.0836L51.0163 53.7907L51.7769 52.4978C50.3091 51.6344 48.7056 51.1314 46.9847 50.9872L46.8595 52.482ZM51.0163 53.7907L50.2558 55.0836C51.5208 55.8277 52.3747 56.3663 52.8558 56.7127L53.7323 55.4955L54.6089 54.2783C54.007 53.8448 53.0502 53.2468 51.7769 52.4978L51.0163 53.7907ZM53.7323 55.4955L52.826 56.6907L53.5461 57.2368L54.4525 56.0416L55.3588 54.8464L54.6387 54.3003L53.7323 55.4955ZM54.4525 56.0416L53.87 57.4239L53.9622 57.4627L54.5446 56.0804L55.1271 54.6981L55.0349 54.6593L54.4525 56.0416Z" fill="black"/>
<path d="M17.3809 52.1592C17.875 52.8242 18.8145 52.9627 19.4795 52.4687C20.1445 51.9746 20.283 51.035 19.789 50.37L18.5849 51.2646L17.3809 52.1592ZM18.5253 51.1843L19.7293 50.2898L19.6586 50.1945L19.5737 50.1116L18.5253 51.1843ZM14.2865 46.1669L12.9805 46.9048L14.2865 46.1669ZM12.9741 36.3433L12.6761 34.8732L12.9741 36.3433ZM16.7463 34.8488L15.974 33.5629L16.7463 34.8488ZM20.4557 34.8358L19.7026 36.1331L20.4557 34.8358ZM32.2706 38.2865L31.6982 36.9L32.2706 38.2865ZM44.6138 32.6973L45.1728 34.0892L44.6138 32.6973ZM52.6041 43.6315L53.9321 44.3289L52.6041 43.6315ZM50.2358 47.3231L49.0493 46.4053L50.2358 47.3231ZM47.3263 50.2473L48.2339 51.4416L47.3263 50.2473ZM45.8154 51.5134L44.6622 52.4726L45.134 53.0399L45.8713 53.0124L45.8154 51.5134ZM45.9395 51.5088L47.0927 52.468L49.2416 49.8846L45.8836 50.0098L45.9395 51.5088ZM44.7223 50.6264C44.1925 51.2633 44.2794 52.2091 44.9163 52.7389C45.5532 53.2686 46.4989 53.1818 47.0287 52.5449L45.8755 51.5857L44.7223 50.6264ZM18.5849 51.2646L19.789 50.37L19.7293 50.2898L18.5253 51.1843L17.3213 52.0789L17.3809 52.1592L18.5849 51.2646ZM18.5253 51.1843L19.5737 50.1116C17.508 48.0927 16.2205 46.5405 15.5924 45.429L14.2865 46.1669L12.9805 46.9048C13.8243 48.3981 15.3627 50.1909 17.4769 52.2571L18.5253 51.1843ZM14.2865 46.1669L15.5924 45.429C14.8472 44.11 14.0791 42.8091 13.2883 41.526L12.0113 42.3131L10.7344 43.1001C11.5052 44.3506 12.2539 45.6188 12.9805 46.9048L14.2865 46.1669ZM12.0113 42.3131L13.2883 41.526C12.633 40.4629 12.39 39.5155 12.4359 38.6544L10.938 38.5746L9.44015 38.4948C9.35548 40.0848 9.82807 41.6297 10.7344 43.1001L12.0113 42.3131ZM10.938 38.5746L12.4359 38.6544C12.4543 38.3094 12.5463 38.172 12.604 38.1087C12.6711 38.0352 12.8418 37.9006 13.2722 37.8134L12.9741 36.3433L12.6761 34.8732C11.8143 35.0479 10.9996 35.4163 10.388 36.0865C9.76702 36.767 9.48704 37.6143 9.44015 38.4948L10.938 38.5746ZM12.9741 36.3433L13.2722 37.8134C14.7449 37.5148 16.1615 36.9498 17.5187 36.1347L16.7463 34.8488L15.974 33.5629C14.8858 34.2165 13.7876 34.6478 12.6761 34.8732L12.9741 36.3433ZM16.7463 34.8488L17.5187 36.1347C17.9344 35.885 18.2873 35.7959 18.5959 35.7948C18.9058 35.7937 19.2684 35.8811 19.7026 36.1331L20.4557 34.8358L21.2087 33.5386C20.3927 33.0649 19.512 32.7916 18.5854 32.7948C17.6577 32.798 16.781 33.0782 15.974 33.5629L16.7463 34.8488ZM20.4557 34.8358L19.7026 36.1331C20.8569 36.8032 21.9377 37.6 22.9456 38.5259L23.9603 37.4213L24.9751 36.3166C23.8105 35.2467 22.5548 34.3199 21.2087 33.5386L20.4557 34.8358ZM23.9603 37.4213L22.9456 38.5259C24.2995 39.7697 25.9425 40.4381 27.8056 40.5331L27.882 39.0351L27.9585 37.537C26.7651 37.4761 25.7937 37.0686 24.9751 36.3166L23.9603 37.4213ZM27.882 39.0351L27.8056 40.5331C29.553 40.6222 31.2377 40.3358 32.8431 39.6729L32.2706 38.2865L31.6982 36.9C30.5086 37.3912 29.2676 37.6038 27.9585 37.537L27.882 39.0351ZM32.2706 38.2865L32.8431 39.6729C34.2766 39.0811 35.6783 38.4371 37.0479 37.7409L36.3682 36.4037L35.6885 35.0665C34.3898 35.7267 33.0597 36.3378 31.6982 36.9L32.2706 38.2865ZM36.3682 36.4037L37.0479 37.7409C38.3597 37.0741 39.6822 36.4433 41.0154 35.8484L40.4041 34.4786L39.7929 33.1088C38.4132 33.7244 37.045 34.377 35.6885 35.0665L36.3682 36.4037ZM40.4041 34.4786L41.0154 35.8484C42.3537 35.2512 43.7394 34.6648 45.1728 34.0892L44.6138 32.6973L44.0548 31.3053C42.5882 31.8942 41.1675 32.4954 39.7929 33.1088L40.4041 34.4786ZM44.6138 32.6973L45.1728 34.0892C45.6799 33.8856 45.8962 33.9426 45.9573 33.9661C46.0157 33.9886 46.2084 34.086 46.4386 34.5669L47.7916 33.9194L49.1446 33.2719C48.7062 32.3557 48.035 31.551 47.0342 31.1661C46.036 30.7822 44.9976 30.9267 44.0548 31.3053L44.6138 32.6973ZM47.7916 33.9194L46.4386 34.5669C47.1825 36.1214 48.136 37.3923 49.3447 38.2795L50.2323 37.0703L51.1199 35.8611C50.4114 35.3411 49.7379 34.5115 49.1446 33.2719L47.7916 33.9194ZM50.2323 37.0703L49.3447 38.2795C50.1062 38.8386 50.776 39.6072 51.3399 40.625L52.652 39.8981L53.9641 39.1712C53.2188 37.8259 52.2754 36.7093 51.1199 35.8611L50.2323 37.0703ZM52.652 39.8981L51.3399 40.625C51.7238 41.318 51.7537 42.0245 51.276 42.9342L52.6041 43.6315L53.9321 44.3289C54.8275 42.6237 54.8893 40.8412 53.9641 39.1712L52.652 39.8981ZM52.6041 43.6315L51.276 42.9342C50.6297 44.1651 49.8875 45.3218 49.0493 46.4053L50.2358 47.3231L51.4223 48.2408C52.3688 47.0172 53.2054 45.7128 53.9321 44.3289L52.6041 43.6315ZM50.2358 47.3231L49.0493 46.4053C48.2288 47.466 47.3507 48.3448 46.4187 49.053L47.3263 50.2473L48.2339 51.4416C49.3965 50.558 50.4581 49.4873 51.4223 48.2408L50.2358 47.3231ZM47.3263 50.2473L46.4187 49.053C45.8909 49.4542 45.4799 49.7762 45.1997 50.0111C45.0655 50.1235 44.9289 50.2428 44.8191 50.3541C44.7734 50.4005 44.6747 50.5026 44.5837 50.6371C44.5443 50.6952 44.4412 50.8525 44.3752 51.0769C44.3169 51.2751 44.187 51.9013 44.6622 52.4726L45.8154 51.5134L46.9687 50.5543C47.4388 51.1195 47.3082 51.7367 47.2534 51.9231C47.1909 52.1357 47.0955 52.2782 47.0681 52.3186C47.0287 52.3768 46.9952 52.4161 46.9821 52.4312C46.9665 52.4491 46.9564 52.4593 46.9555 52.4603C46.9543 52.4615 46.9665 52.4492 46.9992 52.42C47.0302 52.3923 47.072 52.3561 47.1265 52.3105C47.3499 52.1233 47.7144 51.8363 48.2339 51.4416L47.3263 50.2473ZM45.8154 51.5134L45.8713 53.0124L45.9954 53.0078L45.9395 51.5088L45.8836 50.0098L45.7595 50.0145L45.8154 51.5134ZM45.9395 51.5088L44.7863 50.5496L44.7223 50.6264L45.8755 51.5857L47.0287 52.5449L47.0927 52.468L45.9395 51.5088Z" fill="black"/>
<path d="M28.6823 37.762C28.4949 38.569 28.997 39.3751 29.804 39.5626C30.6109 39.75 31.417 39.2479 31.6045 38.4409L30.1434 38.1015L28.6823 37.762ZM30.166 38.0041L28.7588 37.4847L28.7263 37.573L28.705 37.6646L30.166 38.0041ZM32.4623 31.8096L31.0572 31.2844L32.4623 31.8096ZM28.5144 6.60372L27.0583 6.96411L28.5144 6.60372ZM28.3704 1.5L29.1376 0.211047L28.783 0H28.3704V1.5ZM28.5384 1.6L27.7712 2.88895L30.046 4.24297L30.0384 1.59566L28.5384 1.6ZM30.0381 1.49567C30.0357 0.667242 29.3622 -0.00238776 28.5338 6.31809e-06C27.7053 0.00240028 27.0357 0.675911 27.0381 1.50433L28.5381 1.5L30.0381 1.49567ZM30.1434 38.1015L31.6045 38.4409L31.6271 38.3435L30.166 38.0041L28.705 37.6646L28.6823 37.762L30.1434 38.1015ZM30.166 38.0041L31.5733 38.5235C32.5822 35.79 33.3467 33.7275 33.8673 32.3348L32.4623 31.8096L31.0572 31.2844C30.5344 32.6831 29.7681 34.7503 28.7588 37.4847L30.166 38.0041ZM32.4623 31.8096L33.8673 32.3348C34.4563 30.7591 34.7337 29.1159 34.7011 27.4157L33.2014 27.4444L31.7017 27.473C31.7271 28.8018 31.5117 30.0687 31.0572 31.2844L32.4623 31.8096ZM33.2014 27.4444L34.7011 27.4157C34.6685 25.7069 34.3131 24.0675 33.6353 22.5091L32.2598 23.1073L30.8842 23.7055C31.4041 24.9009 31.6765 26.1529 31.7017 27.473L33.2014 27.4444ZM32.2598 23.1073L33.6353 22.5091C32.9793 21.0007 32.1355 19.6443 31.1003 18.4492L29.9665 19.4313L28.8327 20.4134C29.6576 21.3658 30.3426 22.4601 30.8842 23.7055L32.2598 23.1073ZM29.9665 19.4313L31.1003 18.4492C30.4664 17.7175 30.1952 16.8561 30.3269 15.7373L28.8372 15.562L27.3475 15.3866C27.1247 17.2794 27.6063 18.9977 28.8327 20.4134L29.9665 19.4313ZM28.8372 15.562L30.3269 15.7373C30.5113 14.1705 30.5976 12.6108 30.5852 11.0588L29.0852 11.0707L27.5853 11.0827C27.5966 12.5073 27.5175 13.9418 27.3475 15.3866L28.8372 15.562ZM29.0852 11.0707L30.5852 11.0588C30.5724 9.44935 30.3665 7.84346 29.9705 6.24334L28.5144 6.60372L27.0583 6.96411C27.3997 8.34328 27.5744 9.71539 27.5853 11.0827L29.0852 11.0707ZM28.5144 6.60372L29.9705 6.24334C29.6205 4.82929 29.5157 3.7859 29.5767 3.06033L28.082 2.93462L26.5873 2.80892C26.4874 3.99618 26.6709 5.39885 27.0583 6.96411L28.5144 6.60372ZM28.082 2.93462L29.5767 3.06033C29.6158 2.5958 29.6544 2.30653 29.685 2.15425C29.7029 2.06544 29.7032 2.09994 29.665 2.1878C29.6482 2.22659 29.5843 2.37056 29.4428 2.52737C29.2996 2.68598 28.9401 3 28.3704 3V1.5V0C27.7726 0 27.3857 0.32896 27.2156 0.517463C27.0471 0.704156 26.9567 0.892966 26.9139 0.99153C26.8237 1.19894 26.774 1.41277 26.7438 1.56306C26.6783 1.88899 26.6286 2.31703 26.5873 2.80892L28.082 2.93462ZM28.3704 1.5L27.6032 2.78895L27.7712 2.88895L28.5384 1.6L29.3056 0.311046L29.1376 0.211047L28.3704 1.5ZM28.5384 1.6L30.0384 1.59566L30.0381 1.49567L28.5381 1.5L27.0381 1.50433L27.0384 1.60433L28.5384 1.6Z" fill="black"/>
<path d="M25.4521 81.3173C25.7361 80.539 25.3354 79.6779 24.5571 79.394C23.7789 79.11 22.9178 79.5107 22.6338 80.289L24.043 80.8031L25.4521 81.3173ZM24.0087 80.8971L25.0485 81.9781L25.2988 81.7374L25.4178 81.4112L24.0087 80.8971ZM21.1564 94.692L19.7033 95.0641L21.1564 94.692ZM23.6469 96.9552L23.7655 95.4599L23.6469 96.9552ZM27.4704 95.9366L26.6739 94.6655L27.4704 95.9366ZM22.4893 80.1526L22.4556 78.653L22.3364 78.6557L22.2192 78.6771L22.4893 80.1526ZM22.2067 80.2043L21.5563 81.556L21.9964 81.7678L22.4768 81.6798L22.2067 80.2043ZM22.767 78.8093C22.0205 78.4501 21.1241 78.7641 20.7649 79.5106C20.4057 80.2571 20.7197 81.1534 21.4662 81.5126L22.1166 80.161L22.767 78.8093ZM24.043 80.8031L22.6338 80.289L22.5996 80.3829L24.0087 80.8971L25.4178 81.4112L25.4521 81.3173L24.043 80.8031ZM24.0087 80.8971L22.9688 79.816C20.9178 81.7888 19.493 83.7406 19.1037 85.6554L20.5736 85.9543L22.0435 86.2532C22.245 85.2621 23.1103 83.8425 25.0485 81.9781L24.0087 80.8971ZM20.5736 85.9543L19.1037 85.6554C18.7772 87.2612 18.7037 88.8851 18.8825 90.5215L20.3736 90.3586L21.8647 90.1957C21.7194 88.8655 21.7792 87.5531 22.0435 86.2532L20.5736 85.9543ZM20.3736 90.3586L18.8825 90.5215C19.052 92.0734 19.3254 93.5878 19.7033 95.0641L21.1564 94.692L22.6096 94.32C22.2678 92.9851 22.0193 91.6105 21.8647 90.1957L20.3736 90.3586ZM21.1564 94.692L19.7033 95.0641C19.9349 95.9685 20.3525 96.7973 21.0401 97.4221C21.7398 98.058 22.6031 98.3771 23.5282 98.4505L23.6469 96.9552L23.7655 95.4599C23.3902 95.4302 23.1882 95.3205 23.0577 95.202C22.9152 95.0724 22.7379 94.8212 22.6096 94.32L21.1564 94.692ZM23.6469 96.9552L23.5282 98.4505C25.1908 98.5825 26.7822 98.1379 28.2668 97.2077L27.4704 95.9366L26.6739 94.6655C25.6615 95.2999 24.7039 95.5344 23.7655 95.4599L23.6469 96.9552ZM27.4704 95.9366L28.2668 97.2077C29.8591 96.2101 30.879 94.7532 31.2709 92.9158L29.8039 92.6029L28.3369 92.2901C28.1145 93.333 27.5787 94.0986 26.6739 94.6655L27.4704 95.9366ZM29.8039 92.6029L31.2709 92.9158C31.5829 91.4528 31.8638 89.9682 32.1135 88.4621L30.6337 88.2167L29.1539 87.9713C28.9115 89.4332 28.6392 90.8728 28.3369 92.2901L29.8039 92.6029ZM30.6337 88.2167L32.1135 88.4621C32.3937 86.7723 32.3203 85.0923 31.8932 83.4358L30.4407 83.8103L28.9882 84.1847C29.3106 85.4355 29.3659 86.6932 29.1539 87.9713L30.6337 88.2167ZM30.4407 83.8103L31.8932 83.4358C31.4501 81.7171 30.5833 80.2128 29.3149 78.9431L28.2537 80.0032L27.1925 81.0633C28.0906 81.9623 28.6818 82.9961 28.9882 84.1847L30.4407 83.8103ZM28.2537 80.0032L29.3149 78.9431C28.6253 78.2528 27.8142 77.7356 26.8749 77.5367C25.9212 77.3348 24.9823 77.4923 24.1082 77.9025L24.7454 79.2604L25.3827 80.6183C25.7641 80.4393 26.0377 80.426 26.2535 80.4717C26.4835 80.5204 26.7988 80.6692 27.1925 81.0633L28.2537 80.0032ZM24.7454 79.2604L24.1082 77.9025C23.4918 78.1918 23.022 78.3984 22.6881 78.5305C22.5202 78.5969 22.4058 78.6368 22.3354 78.6581C22.2301 78.69 22.3013 78.6565 22.4556 78.653L22.4893 80.1526L22.5231 81.6522C22.8016 81.646 23.06 81.5732 23.2049 81.5293C23.3846 81.4749 23.5832 81.4025 23.7913 81.3203C24.2095 81.1549 24.7435 80.9183 25.3827 80.6183L24.7454 79.2604ZM22.4893 80.1526L22.2192 78.6771L21.9366 78.7289L22.2067 80.2043L22.4768 81.6798L22.7594 81.6281L22.4893 80.1526ZM22.2067 80.2043L22.8571 78.8527L22.767 78.8093L22.1166 80.161L21.4662 81.5126L21.5563 81.556L22.2067 80.2043Z" fill="black"/>
<path d="M41.5145 80.9709C41.7846 80.1877 41.3687 79.3339 40.5856 79.0637C39.8024 78.7936 38.9486 79.2095 38.6784 79.9926L40.0964 80.4818L41.5145 80.9709ZM40.0638 80.5763L41.1593 81.601L41.3776 81.3676L41.4818 81.0654L40.0638 80.5763ZM36.3799 90.4834L34.8942 90.69L36.3799 90.4834ZM37.7599 94.5675L36.4587 95.3138L37.7599 94.5675ZM44.5388 95.5129L45.6163 96.5564L44.5388 95.5129ZM38.8656 80.5288L39.2402 79.0763L37.8742 81.6545L38.8656 80.5288ZM38.8958 80.5366L38.5211 81.989L39.718 79.282L38.8958 80.5366ZM39.6343 79.2271C38.9414 78.7731 38.0116 78.9667 37.5576 79.6596C37.1035 80.3525 37.2971 81.2823 37.99 81.7364L38.8122 80.4818L39.6343 79.2271ZM40.0964 80.4818L38.6784 79.9926L38.6458 80.0872L40.0638 80.5763L41.4818 81.0654L41.5145 80.9709L40.0964 80.4818ZM40.0638 80.5763L38.9684 79.5516C36.9183 81.7433 35.5135 83.8092 35.0967 85.7111L36.5619 86.0322L38.0271 86.3533C38.2636 85.274 39.1935 83.7026 41.1593 81.601L40.0638 80.5763ZM36.5619 86.0322L35.0967 85.7111C34.7329 87.3709 34.6638 89.0333 34.8942 90.69L36.3799 90.4834L37.8656 90.2768C37.6853 88.9798 37.7375 87.6747 38.0271 86.3533L36.5619 86.0322ZM36.3799 90.4834L34.8942 90.69C35.125 92.3496 35.645 93.8952 36.4587 95.3138L37.7599 94.5675L39.061 93.8211C38.4455 92.7481 38.0456 91.571 37.8656 90.2768L36.3799 90.4834ZM37.7599 94.5675L36.4587 95.3138C37.3929 96.9424 38.8292 97.9551 40.6751 98.2524L40.9136 96.7714L41.1521 95.2905C40.2222 95.1408 39.556 94.6841 39.061 93.8211L37.7599 94.5675ZM40.9136 96.7714L40.6751 98.2524C42.5759 98.5585 44.2676 97.9492 45.6163 96.5564L44.5388 95.5129L43.4612 94.4695C42.7522 95.2017 42.0271 95.4314 41.1521 95.2905L40.9136 96.7714ZM44.5388 95.5129L45.6163 96.5564C46.9033 95.2273 47.6002 93.5969 47.6943 91.7358L46.1962 91.66L44.6981 91.5843C44.64 92.7353 44.2319 93.6735 43.4612 94.4695L44.5388 95.5129ZM46.1962 91.66L47.6943 91.7358C47.7719 90.2006 47.8041 88.6779 47.7908 87.1677L46.2908 87.1809L44.7909 87.1942C44.8037 88.644 44.7728 90.1073 44.6981 91.5843L46.1962 91.66ZM46.2908 87.1809L47.7908 87.1677C47.7761 85.5014 47.4586 83.9068 46.8339 82.3959L45.4477 82.969L44.0615 83.5421C44.5349 84.6871 44.7795 85.9004 44.7909 87.1942L46.2908 87.1809ZM45.4477 82.969L46.8339 82.3959C46.1403 80.7183 44.952 79.5037 43.272 78.9256L42.784 80.344L42.296 81.7624C43.0695 82.0286 43.6571 82.5639 44.0615 83.5421L45.4477 82.969ZM42.784 80.344L43.272 78.9256C41.9387 78.4669 40.5393 78.2526 39.3422 78.7639L39.9314 80.1433L40.5205 81.5228C40.6733 81.4575 41.1757 81.377 42.296 81.7624L42.784 80.344ZM39.9314 80.1433L39.3422 78.7639C39.0114 78.9052 38.7852 78.9959 38.6486 79.0453C38.5742 79.0722 38.5631 79.0734 38.5904 79.0666C38.5976 79.0648 38.6728 79.0453 38.7823 79.0372C38.8358 79.0332 38.9519 79.0273 39.099 79.0494C39.1757 79.061 39.284 79.0835 39.4078 79.131C39.5315 79.1786 39.6951 79.2606 39.8569 79.403L38.8656 80.5288L37.8742 81.6545C38.1879 81.9307 38.5214 81.9963 38.6529 82.0161C38.8095 82.0396 38.9376 82.0339 39.0055 82.0289C39.1439 82.0185 39.2579 81.9919 39.314 81.978C39.439 81.9469 39.5656 81.9038 39.6688 81.8665C39.8874 81.7874 40.1764 81.6698 40.5205 81.5228L39.9314 80.1433ZM38.8656 80.5288L38.4909 81.9812L38.5211 81.989L38.8958 80.5366L39.2705 79.0841L39.2402 79.0763L38.8656 80.5288ZM38.8958 80.5366L39.718 79.282L39.6343 79.2271L38.8122 80.4818L37.99 81.7364L38.0737 81.7912L38.8958 80.5366Z" fill="black"/>
<path d="M28.3559 87.0568C28.6178 86.2709 28.1931 85.4214 27.4072 85.1594C26.6213 84.8975 25.7718 85.3222 25.5098 86.1081L26.9328 86.5825L28.3559 87.0568ZM26.9012 86.6773L25.4782 86.203L24.7498 88.3882L27.0429 88.1706L26.9012 86.6773ZM27.5388 86.9268L26.9949 85.5289L27.5388 86.9268ZM26.4123 87.3504L26.1365 85.876L26.4123 87.3504ZM26.4756 87.4548L25.6435 88.7029L26.038 88.9659L26.5119 88.9544L26.4756 87.4548ZM26.6434 87.4508L28.0664 87.9251L28.7416 85.8994L26.607 85.9512L26.6434 87.4508ZM25.1887 87.0713C24.9268 87.8572 25.3515 88.7067 26.1374 88.9687C26.9233 89.2306 27.7728 88.8059 28.0348 88.02L26.6118 87.5456L25.1887 87.0713ZM26.9328 86.5825L25.5098 86.1081L25.4782 86.203L26.9012 86.6773L28.3242 87.1517L28.3559 87.0568L26.9328 86.5825ZM26.9012 86.6773L27.0429 88.1706C27.3087 88.1454 27.4901 88.1345 27.602 88.1325C27.6587 88.1315 27.6748 88.1333 27.663 88.1323C27.6562 88.1318 27.6288 88.1294 27.5875 88.1219C27.5517 88.1154 27.467 88.0983 27.3597 88.0563C27.2694 88.021 27.0423 87.9225 26.8304 87.6917C26.5733 87.4117 26.3954 86.9914 26.4544 86.515C26.5036 86.1179 26.6973 85.8602 26.7837 85.7579C26.8812 85.6426 26.9727 85.5728 27.0115 85.5446C27.1256 85.4616 27.1761 85.4584 26.9949 85.5289L27.5388 86.9268L28.0828 88.3247C28.2528 88.2585 28.5401 88.1425 28.7767 87.9703C28.8461 87.9198 28.961 87.8293 29.0749 87.6946C29.1776 87.5731 29.3804 87.2975 29.4316 86.884C29.4927 86.3914 29.3097 85.9562 29.0403 85.6628C28.8161 85.4186 28.5696 85.3083 28.4528 85.2626C28.2154 85.1697 27.9956 85.1494 27.9043 85.142C27.7821 85.1322 27.6593 85.131 27.5486 85.133C27.3255 85.1369 27.0574 85.1558 26.7595 85.184L26.9012 86.6773ZM27.5388 86.9268L26.9949 85.5289C26.6452 85.6649 26.3821 85.7661 26.2024 85.8337C26.1117 85.8678 26.0487 85.8909 26.009 85.905C25.9885 85.9122 25.9819 85.9144 25.9846 85.9135C25.9858 85.9131 25.9962 85.9097 26.0125 85.9051C26.0202 85.9029 26.0695 85.8885 26.1365 85.876L26.4123 87.3504L26.6881 88.8248C26.8436 88.7958 27.009 88.7334 27.0111 88.7327C27.0774 88.7091 27.1613 88.6782 27.2583 88.6417C27.4542 88.5681 27.73 88.462 28.0828 88.3247L27.5388 86.9268ZM26.4123 87.3504L26.1365 85.876C26.0489 85.8924 25.4767 85.993 25.1179 86.5654C24.6629 87.2913 24.9932 87.9698 25.1088 88.1607C25.2389 88.3754 25.3932 88.5096 25.4477 88.556C25.5223 88.6196 25.5929 88.6692 25.6435 88.7029L26.4756 87.4548L27.3076 86.2068C27.3129 86.2103 27.3468 86.2328 27.3934 86.2726C27.4199 86.2951 27.555 86.4087 27.6745 86.606C27.7796 86.7794 28.108 87.4438 27.6599 88.1587C27.308 88.7202 26.7513 88.813 26.6881 88.8248L26.4123 87.3504ZM26.4756 87.4548L26.5119 88.9544L26.6798 88.9503L26.6434 87.4508L26.607 85.9512L26.4392 85.9553L26.4756 87.4548ZM26.6434 87.4508L25.2204 86.9764L25.1887 87.0713L26.6118 87.5456L28.0348 88.02L28.0664 87.9251L26.6434 87.4508Z" fill="black"/>
<path d="M44.6487 86.9316C45.0192 86.1906 44.7189 85.2896 43.9779 84.9191C43.2369 84.5486 42.3359 84.849 41.9654 85.5899L43.3071 86.2607L44.6487 86.9316ZM43.2624 86.3502L41.9207 85.6794L41.4016 86.7177L42.2765 87.4807L43.2624 86.3502ZM42.7366 87.0643L43.5514 88.3236L43.6345 88.2699L43.7098 88.2057L42.7366 87.0643ZM43.0307 86.8134L44.3724 87.4843L42.0574 85.6721L43.0307 86.8134ZM41.6444 86.2321C41.2739 86.973 41.5742 87.874 42.3152 88.2445C43.0562 88.615 43.9572 88.3147 44.3277 87.5737L42.986 86.9029L41.6444 86.2321ZM43.3071 86.2607L41.9654 85.5899L41.9207 85.6794L43.2624 86.3502L44.604 87.021L44.6487 86.9316L43.3071 86.2607ZM43.2624 86.3502L42.2765 87.4807C42.3512 87.5459 42.4059 87.5979 42.4444 87.6374C42.484 87.6782 42.4973 87.6962 42.4948 87.6928C42.4929 87.6903 42.4839 87.6781 42.4712 87.6565C42.4586 87.6353 42.4388 87.5992 42.4181 87.5493C42.3799 87.4571 42.3151 87.2608 42.3366 86.9964C42.3604 86.7027 42.4835 86.425 42.6801 86.2117C42.8567 86.02 43.0404 85.9357 43.13 85.902C43.2849 85.8436 43.3491 85.8651 43.1989 85.8633L43.1801 87.3631L43.1612 88.863C43.4317 88.8664 43.8148 88.8497 44.187 88.7096C44.6034 88.5528 45.2554 88.1165 45.3267 87.2393C45.3798 86.5865 45.0484 86.0999 44.9044 85.9058C44.7178 85.6541 44.4817 85.4233 44.2482 85.2197L43.2624 86.3502ZM43.1801 87.3631L43.1989 85.8633C42.7758 85.8579 42.5296 85.8491 42.4219 85.8406C42.3969 85.8387 42.403 85.8385 42.4273 85.8421C42.4393 85.8439 42.4731 85.8491 42.5192 85.8599C42.5477 85.8666 42.6676 85.8946 42.8119 85.9646C42.8827 85.999 43.0308 86.0771 43.1838 86.2221C43.3378 86.368 43.5926 86.6761 43.6422 87.1525C43.6941 87.6516 43.4905 88.031 43.3241 88.2397C43.171 88.4317 43.0075 88.5387 42.9319 88.5845C42.7774 88.6779 42.6439 88.7184 42.6154 88.7272C42.5659 88.7425 42.5291 88.7506 42.5159 88.7534L42.2026 87.2865L41.8892 85.8196C41.8524 85.8275 41.7959 85.8405 41.7307 85.8606C41.6865 85.8742 41.5414 85.9194 41.3793 86.0175C41.2999 86.0655 41.1336 86.1748 40.9787 86.3691C40.8105 86.58 40.6061 86.9616 40.6583 87.4629C40.7081 87.9415 40.9642 88.2518 41.1204 88.3997C41.2757 88.5469 41.427 88.6271 41.502 88.6635C41.7446 88.7813 41.979 88.8084 41.986 88.8094C42.0596 88.8204 42.1309 88.827 42.1874 88.8314C42.4056 88.8486 42.743 88.8578 43.1612 88.863L43.1801 87.3631ZM42.2026 87.2865L42.5159 88.7534C42.8878 88.6739 43.2353 88.5282 43.5514 88.3236L42.7366 87.0643L41.9217 85.8049C41.9052 85.8156 41.8967 85.818 41.8892 85.8196L42.2026 87.2865ZM42.7366 87.0643L43.7098 88.2057L44.004 87.9548L43.0307 86.8134L42.0574 85.6721L41.7633 85.9229L42.7366 87.0643ZM43.0307 86.8134L41.6891 86.1426L41.6444 86.2321L42.986 86.9029L44.3277 87.5737L44.3724 87.4843L43.0307 86.8134Z" fill="black"/>
<path d="M13.0519 81.3258C12.4541 81.8993 12.4344 82.8488 13.0079 83.4467C13.5814 84.0445 14.5309 84.0642 15.1287 83.4907L14.0903 82.4083L13.0519 81.3258ZM14.1625 82.339L15.2009 83.4215L15.2996 83.3268L15.3795 83.2159L14.1625 82.339ZM21.638 74.9157L21.4995 73.4221L21.638 74.9157ZM24.3062 74.382L25.276 75.5263L25.2902 75.5143L25.3042 75.5019L24.3062 74.382ZM24.6032 74.1173L23.7515 72.8826L23.6748 72.9355L23.6052 72.9975L24.6032 74.1173ZM25.5372 75.2953C26.2191 74.8249 26.3906 73.8908 25.9202 73.2088C25.4499 72.5269 24.5157 72.3554 23.8338 72.8258L24.6855 74.0605L25.5372 75.2953ZM14.0903 82.4083L15.1287 83.4907L15.2009 83.4215L14.1625 82.339L13.1241 81.2566L13.0519 81.3258L14.0903 82.4083ZM14.1625 82.339L15.3795 83.2159C17.0764 80.8608 18.3656 79.0694 19.2468 77.8422L18.0284 76.9673L16.8099 76.0924C15.9302 77.3176 14.6421 79.1074 12.9455 81.4622L14.1625 82.339ZM18.0284 76.9673L19.2468 77.8422C19.8695 76.9749 20.6756 76.5114 21.7765 76.4093L21.638 74.9157L21.4995 73.4221C19.5485 73.603 17.9482 74.5072 16.8099 76.0924L18.0284 76.9673ZM21.638 74.9157L21.7765 76.4093C22.5614 76.3365 23.2244 76.2509 23.7437 76.1471C24.0024 76.0953 24.2556 76.0332 24.4843 75.9546C24.6829 75.8864 24.9977 75.7622 25.276 75.5263L24.3062 74.382L23.3364 73.2377C23.4882 73.109 23.597 73.0874 23.51 73.1172C23.4532 73.1368 23.3412 73.1681 23.1553 73.2053C22.7851 73.2794 22.2405 73.3534 21.4995 73.4221L21.638 74.9157ZM24.3062 74.382L25.3042 75.5019L25.6012 75.2372L24.6032 74.1173L23.6052 72.9975L23.3082 73.2622L24.3062 74.382ZM24.6032 74.1173L25.4549 75.3521L25.5372 75.2953L24.6855 74.0605L23.8338 72.8258L23.7515 72.8826L24.6032 74.1173Z" fill="black"/>
<path d="M43.088 73.7211C42.3687 73.3101 41.4524 73.56 41.0414 74.2792C40.6304 74.9985 40.8803 75.9148 41.5995 76.3258L42.3438 75.0234L43.088 73.7211ZM42.4306 75.0731L41.6864 76.3754L41.8064 76.444L41.937 76.4895L42.4306 75.0731ZM50.4449 79.5299L51.5177 78.4815L50.4449 79.5299ZM51.2512 80.2156L52.0852 81.4624L52.7855 80.994L52.7499 80.1521L51.2512 80.2156ZM51.2468 80.1109L51.991 78.8085L49.6332 77.4612L49.7481 80.1743L51.2468 80.1109ZM50.5894 81.4629C51.3087 81.8739 52.2249 81.624 52.636 80.9047C53.047 80.1854 52.7971 79.2691 52.0778 78.8581L51.3336 80.1605L50.5894 81.4629ZM42.3438 75.0234L41.5995 76.3258L41.6864 76.3754L42.4306 75.0731L43.1748 73.7707L43.088 73.7211L42.3438 75.0234ZM42.4306 75.0731L41.937 76.4895C44.4614 77.3691 46.1606 78.1585 47.1422 78.8345L47.993 77.5991L48.8437 76.3637C47.5214 75.4531 45.5123 74.5584 42.9241 73.6566L42.4306 75.0731ZM47.993 77.5991L47.1422 78.8345C48.278 79.6167 48.9957 80.1931 49.3721 80.5782L50.4449 79.5299L51.5177 78.4815C50.9288 77.8789 50.0119 77.1681 48.8437 76.3637L47.993 77.5991ZM50.4449 79.5299L49.3721 80.5782C49.6213 80.8333 49.8481 81.054 50.0367 81.2144C50.1229 81.2878 50.2537 81.3941 50.4052 81.4838C50.4745 81.5249 50.6244 81.6091 50.8255 81.664C50.9771 81.7053 51.53 81.8337 52.0852 81.4624L51.2512 80.2156L50.4172 78.9688C50.6905 78.786 50.9683 78.7298 51.1728 78.7208C51.3689 78.7122 51.5244 78.745 51.6156 78.7699C51.7897 78.8174 51.9058 78.8859 51.9346 78.903C52.0051 78.9448 52.0283 78.97 51.9802 78.929C51.9 78.8609 51.751 78.7203 51.5177 78.4815L50.4449 79.5299ZM51.2512 80.2156L52.7499 80.1521L52.7454 80.0474L51.2468 80.1109L49.7481 80.1743L49.7525 80.2791L51.2512 80.2156ZM51.2468 80.1109L50.5026 81.4132L50.5894 81.4629L51.3336 80.1605L52.0778 78.8581L51.991 78.8085L51.2468 80.1109Z" fill="black"/>
<path d="M28.9994 102.171C28.2111 101.917 27.3655 102.349 27.1108 103.137C26.856 103.926 27.2885 104.771 28.0768 105.026L28.5381 103.599L28.9994 102.171ZM28.6332 103.629L29.7777 102.66L29.5013 102.334L29.0945 102.202L28.6332 103.629ZM41.2955 105.263L42.5444 106.094L41.2955 105.263ZM42.3643 103.612L43.1964 102.364L42.7015 102.034L42.115 102.133L42.3643 103.612ZM42.2495 103.632L41.7552 102.215L42.4988 105.111L42.2495 103.632ZM42.8382 105.015C43.6204 104.742 44.0331 103.886 43.7601 103.104C43.4871 102.322 42.6317 101.909 41.8496 102.182L42.3439 103.599L42.8382 105.015ZM28.5381 103.599L28.0768 105.026L28.1719 105.057L28.6332 103.629L29.0945 102.202L28.9994 102.171L28.5381 103.599ZM28.6332 103.629L27.4888 104.599C29.3384 106.782 31.3691 108.326 33.5513 108.266L33.5101 106.767L33.4689 105.267C32.7605 105.287 31.5399 104.739 29.7777 102.66L28.6332 103.629ZM33.5101 106.767L33.5513 108.266C34.9601 108.227 36.4024 108.239 37.8783 108.302L37.9422 106.804L38.0062 105.305C36.4633 105.239 34.9508 105.227 33.4689 105.267L33.5101 106.767ZM37.9422 106.804L37.8783 108.302C39.8173 108.385 41.4787 107.696 42.5444 106.094L41.2955 105.263L40.0466 104.432C39.6601 105.013 39.086 105.351 38.0062 105.305L37.9422 106.804ZM41.2955 105.263L42.5444 106.094C42.9082 105.547 43.1831 105.13 43.3665 104.847C43.457 104.707 43.5313 104.591 43.5842 104.504C43.6086 104.464 43.6401 104.412 43.6685 104.36C43.679 104.341 43.7112 104.282 43.7429 104.207C43.754 104.181 43.7982 104.078 43.8289 103.939C43.8424 103.878 43.877 103.711 43.8601 103.495C43.8454 103.309 43.7604 102.74 43.1964 102.364L42.3643 103.612L41.5323 104.86C40.9687 104.485 40.8839 103.916 40.8693 103.731C40.8524 103.516 40.8869 103.35 40.9001 103.29C40.9302 103.154 40.9731 103.055 40.9822 103.033C41.0098 102.968 41.035 102.923 41.0357 102.922C41.0443 102.906 41.0446 102.907 41.0261 102.937C40.9934 102.99 40.9357 103.081 40.8482 103.217C40.6753 103.484 40.4089 103.888 40.0466 104.432L41.2955 105.263ZM42.3643 103.612L42.115 102.133L42.0002 102.152L42.2495 103.632L42.4988 105.111L42.6136 105.091L42.3643 103.612ZM42.2495 103.632L42.7438 105.048L42.8382 105.015L42.3439 103.599L41.8496 102.182L41.7552 102.215L42.2495 103.632Z" fill="black"/>
<path d="M18.6539 136.673C19.0113 135.926 18.6952 135.03 17.9478 134.673C17.2004 134.316 16.3048 134.632 15.9475 135.379L17.3007 136.026L18.6539 136.673ZM17.2575 136.116L18.4734 136.995L18.5525 136.885L18.6108 136.764L17.2575 136.116ZM13.5207 141.515L12.2547 140.71L13.5207 141.515ZM18.9205 147.646L18.5492 146.193L18.9205 147.646ZM26.0675 149.544L26.5604 148.127L26.0675 149.544ZM40.2505 145.675L39.8198 147.112L40.2505 145.675ZM48.5957 147.464L49.8625 148.268L48.5957 147.464ZM49.3262 139.518L50.745 139.032L49.3262 139.518ZM47.5925 136.139L46.415 137.068L47.5925 136.139ZM46.7078 134.637L45.8096 133.435L45.5766 133.609L45.4256 133.858L46.7078 134.637ZM46.8686 134.516L47.7667 135.718L48.6169 135.082L48.3003 134.069L46.8686 134.516ZM48.2704 133.973C48.0233 133.183 47.182 132.742 46.3913 132.989C45.6005 133.236 45.1599 134.078 45.407 134.868L46.8387 134.421L48.2704 133.973ZM17.3007 136.026L15.9475 135.379L15.9043 135.469L17.2575 136.116L18.6108 136.764L18.6539 136.673L17.3007 136.026ZM17.2575 136.116L16.0417 135.238C14.3408 137.592 13.074 139.421 12.2547 140.71L13.5207 141.515L14.7868 142.319C15.5568 141.107 16.7812 139.337 18.4734 136.995L17.2575 136.116ZM13.5207 141.515L12.2547 140.71C11.2941 142.222 10.8505 143.895 10.9338 145.686L12.4322 145.616L13.9306 145.547C13.8759 144.37 14.1581 143.308 14.7868 142.319L13.5207 141.515ZM12.4322 145.616L10.9338 145.686C10.9786 146.651 11.2508 147.604 11.9307 148.345C12.6204 149.097 13.5496 149.435 14.5122 149.517L14.64 148.022L14.7679 146.528C14.3275 146.49 14.1872 146.367 14.141 146.317C14.085 146.256 13.9547 146.065 13.9306 145.547L12.4322 145.616ZM14.64 148.022L14.5122 149.517C16.093 149.652 17.6885 149.509 19.2917 149.1L18.9205 147.646L18.5492 146.193C17.2511 146.525 15.993 146.633 14.7679 146.528L14.64 148.022ZM18.9205 147.646L19.2917 149.1C20.4905 148.794 21.2519 148.933 21.7633 149.24L22.5347 147.953L23.3061 146.667C21.8999 145.823 20.2519 145.758 18.5492 146.193L18.9205 147.646ZM22.5347 147.953L21.7633 149.24C22.8332 149.881 24.1103 150.451 25.5747 150.961L26.0675 149.544L26.5604 148.127C25.232 147.665 24.1539 147.175 23.3061 146.667L22.5347 147.953ZM26.0675 149.544L25.5747 150.961C27.1843 151.521 28.8476 151.705 30.5478 151.514L30.3803 150.024L30.2129 148.533C28.9554 148.674 27.7435 148.539 26.5604 148.127L26.0675 149.544ZM30.3803 150.024L30.5478 151.514C32.5183 151.293 34.0307 150.261 34.8998 148.485L33.5526 147.826L32.2054 147.166C31.8025 147.989 31.2 148.422 30.2129 148.533L30.3803 150.024ZM33.5526 147.826L34.8998 148.485C35.3676 147.53 35.9606 147.093 36.6798 146.935L36.3579 145.47L36.0359 144.005C34.2869 144.389 33.0096 145.523 32.2054 147.166L33.5526 147.826ZM36.3579 145.47L36.6798 146.935C37.635 146.725 38.6723 146.768 39.8198 147.112L40.2505 145.675L40.6812 144.238C39.1068 143.766 37.549 143.673 36.0359 144.005L36.3579 145.47ZM40.2505 145.675L39.8198 147.112C40.6629 147.365 41.201 147.886 41.4944 148.876L42.9326 148.45L44.3709 148.024C43.81 146.131 42.56 144.802 40.6812 144.238L40.2505 145.675ZM42.9326 148.45L41.4944 148.876C41.7614 149.778 42.242 150.675 43.1238 151.201C44.0452 151.751 45.0655 151.698 45.9631 151.4L45.4901 149.976L45.0171 148.553C44.6369 148.679 44.592 148.584 44.6609 148.625C44.6902 148.642 44.531 148.565 44.3709 148.024L42.9326 148.45ZM45.4901 149.976L45.9631 151.4C47.6022 150.855 48.9043 149.779 49.8625 148.268L48.5957 147.464L47.329 146.661C46.7021 147.65 45.9338 148.248 45.0171 148.553L45.4901 149.976ZM48.5957 147.464L49.8625 148.268C50.774 146.83 51.3065 145.303 51.4112 143.698L49.9144 143.601L48.4176 143.503C48.3492 144.551 48.0025 145.599 47.329 146.661L48.5957 147.464ZM49.9144 143.601L51.4112 143.698C51.5121 142.153 51.281 140.594 50.745 139.032L49.3262 139.518L47.9074 140.005C48.3288 141.233 48.4899 142.395 48.4176 143.503L49.9144 143.601ZM49.3262 139.518L50.745 139.032C50.2293 137.529 49.5813 136.238 48.7699 135.21L47.5925 136.139L46.415 137.068C46.9578 137.756 47.4656 138.718 47.9074 140.005L49.3262 139.518ZM47.5925 136.139L48.7699 135.21C48.4437 134.796 48.2511 134.52 48.1561 134.359C48.1046 134.271 48.1182 134.278 48.1418 134.351C48.1539 134.389 48.1865 134.498 48.192 134.654C48.1975 134.808 48.1791 135.104 47.99 135.415L46.7078 134.637L45.4256 133.858C45.0335 134.504 45.2463 135.147 45.2862 135.271C45.3617 135.505 45.475 135.718 45.571 135.881C45.7709 136.221 46.0642 136.624 46.415 137.068L47.5925 136.139ZM46.7078 134.637L47.606 135.838L47.7667 135.718L46.8686 134.516L45.9704 133.315L45.8096 133.435L46.7078 134.637ZM46.8686 134.516L48.3003 134.069L48.2704 133.973L46.8387 134.421L45.407 134.868L45.4369 134.964L46.8686 134.516Z" fill="black"/>
<path d="M19.1221 149.511C19.1221 148.682 18.4505 148.011 17.6221 148.011C16.7936 148.011 16.1221 148.682 16.1221 149.511H17.6221H19.1221ZM17.6221 149.611H16.1221V149.673L16.1273 149.735L17.6221 149.611ZM17.7668 174.554L16.914 175.788L17.2989 176.054H17.7668V174.554ZM17.6221 174.454L18.4748 173.22L16.1221 171.594V174.454H17.6221ZM16.1221 174.554C16.1221 175.382 16.7936 176.054 17.6221 176.054C18.4505 176.054 19.1221 175.382 19.1221 174.554H17.6221H16.1221ZM17.6221 149.511H16.1221V149.611H17.6221H19.1221V149.511H17.6221ZM17.6221 149.611L16.1273 149.735C16.3688 152.632 16.4429 154.751 16.3685 156.135L17.8663 156.216L19.3641 156.296C19.4499 154.701 19.3612 152.416 19.1169 149.486L17.6221 149.611ZM17.8663 156.216L16.3685 156.135C16.2842 157.702 16.3208 159.269 16.4782 160.836L17.9707 160.686L19.4632 160.536C19.3212 159.122 19.2882 157.709 19.3641 156.296L17.8663 156.216ZM17.9707 160.686L16.4782 160.836C16.6178 162.225 16.6162 163.613 16.4735 165.002L17.9656 165.156L19.4578 165.309C19.6212 163.718 19.623 162.127 19.4632 160.536L17.9707 160.686ZM17.9656 165.156L16.4735 165.002C16.3181 166.515 16.1967 168.027 16.1094 169.539L17.6069 169.626L19.1044 169.712C19.1892 168.245 19.3069 166.777 19.4578 165.309L17.9656 165.156ZM17.6069 169.626L16.1094 169.539C16.0205 171.078 16.0445 172.394 16.2137 173.446L17.6947 173.207L19.1756 172.969C19.0558 172.225 19.0212 171.153 19.1044 169.712L17.6069 169.626ZM17.6947 173.207L16.2137 173.446C16.2843 173.884 16.3157 174.156 16.3233 174.297C16.3279 174.385 16.3183 174.338 16.3357 174.231C16.3422 174.191 16.3731 173.994 16.5061 173.769C16.579 173.646 16.7107 173.466 16.9322 173.314C17.1709 173.149 17.4608 173.054 17.7668 173.054V174.554V176.054C18.4901 176.054 18.9172 175.586 19.0885 175.296C19.2381 175.043 19.2818 174.805 19.2974 174.709C19.3329 174.489 19.3263 174.274 19.319 174.137C19.3025 173.83 19.2496 173.429 19.1756 172.969L17.6947 173.207ZM17.7668 174.554L18.6195 173.32L18.4748 173.22L17.6221 174.454L16.7693 175.688L16.914 175.788L17.7668 174.554ZM17.6221 174.454H16.1221V174.554H17.6221H19.1221V174.454H17.6221Z" fill="black"/>
<path d="M17.4564 174.347C16.6331 174.439 16.0398 175.18 16.1312 176.004C16.2227 176.827 16.9644 177.421 17.7877 177.329L17.6221 175.838L17.4564 174.347ZM17.7215 175.827L17.7141 174.327L17.6347 174.328L17.5558 174.336L17.7215 175.827ZM26.2807 174.851L26.8282 176.248L28.2632 175.685L27.6618 174.266L26.2807 174.851ZM26.1915 174.886L25.644 173.49L26.3571 176.377L26.1915 174.886ZM26.4565 176.366C27.2799 176.274 27.8732 175.533 27.7817 174.709C27.6902 173.886 26.9486 173.293 26.1252 173.384L26.2908 174.875L26.4565 176.366ZM17.6221 175.838L17.7877 177.329L17.8871 177.318L17.7215 175.827L17.5558 174.336L17.4564 174.347L17.6221 175.838ZM17.7215 175.827L17.7288 177.327C20.0329 177.316 21.8819 177.167 23.1868 176.831L22.8131 175.379L22.4393 173.926C21.5062 174.166 19.9608 174.316 17.7141 174.327L17.7215 175.827ZM22.8131 175.379L23.1868 176.831C24.2833 176.549 25.0309 176.414 25.4818 176.384L25.3811 174.887L25.2803 173.39C24.5453 173.44 23.5808 173.632 22.4393 173.926L22.8131 175.379ZM25.3811 174.887L25.4818 176.384C25.7751 176.364 25.9818 176.352 26.1106 176.347C26.179 176.344 26.2037 176.344 26.2012 176.344C26.1987 176.344 26.1895 176.344 26.1755 176.343C26.1635 176.343 26.1351 176.341 26.0972 176.337C26.0726 176.334 25.9792 176.324 25.8618 176.29C25.8059 176.274 25.6823 176.235 25.5396 176.155C25.4271 176.091 25.0889 175.883 24.8996 175.436L26.2807 174.851L27.6618 174.266C27.472 173.818 27.1328 173.609 27.0188 173.545C26.8746 173.463 26.7488 173.424 26.6902 173.407C26.5674 173.371 26.4662 173.36 26.4316 173.356C26.3467 173.346 26.2731 173.345 26.2402 173.344C26.161 173.343 26.0724 173.346 25.9909 173.349C25.8198 173.356 25.58 173.37 25.2803 173.39L25.3811 174.887ZM26.2807 174.851L25.7332 173.455L25.644 173.49L26.1915 174.886L26.7389 176.283L26.8282 176.248L26.2807 174.851ZM26.1915 174.886L26.3571 176.377L26.4565 176.366L26.2908 174.875L26.1252 173.384L26.0258 173.395L26.1915 174.886Z" fill="black"/>
<path d="M40.9541 146.3C40.9541 145.471 40.2825 144.8 39.4541 144.8C38.6257 144.8 37.9541 145.471 37.9541 146.3H39.4541H40.9541ZM39.4541 146.4H37.9541V146.413L37.9544 146.427L39.4541 146.4ZM39.6599 170.885L38.1609 170.83L39.6599 170.885ZM39.5163 173.195L38.9526 174.585L39.968 174.996L40.6691 174.154L39.5163 173.195ZM39.4541 173.169L40.0178 171.779L37.9541 170.942V173.169H39.4541ZM37.9541 173.269C37.9541 174.098 38.6257 174.769 39.4541 174.769C40.2825 174.769 40.9541 174.098 40.9541 173.269H39.4541H37.9541ZM39.4541 146.3H37.9541V146.4H39.4541H40.9541V146.3H39.4541ZM39.4541 146.4L37.9544 146.427C38.0071 149.321 37.9328 151.432 37.7505 152.808L39.2375 153.005L40.7245 153.202C40.9372 151.597 41.0073 149.305 40.9539 146.372L39.4541 146.4ZM39.2375 153.005L37.7505 152.808C37.5352 154.432 37.5403 156.057 37.7656 157.681L39.2514 157.475L40.7371 157.269C40.5489 155.912 40.5447 154.558 40.7245 153.202L39.2375 153.005ZM39.2514 157.475L37.7656 157.681C37.9585 159.071 38.0089 160.459 37.9173 161.846L39.414 161.945L40.9108 162.044C41.0159 160.451 40.9578 158.859 40.7371 157.269L39.2514 157.475ZM39.414 161.945L37.9173 161.846C37.8133 163.422 37.845 164.998 38.0122 166.573L39.5038 166.415L40.9954 166.256C40.8463 164.852 40.8181 163.448 40.9108 162.044L39.414 161.945ZM39.5038 166.415L38.0122 166.573C38.1629 167.993 38.2124 169.412 38.1609 170.83L39.6599 170.885L41.1589 170.939C41.2156 169.378 41.1611 167.817 40.9954 166.256L39.5038 166.415ZM39.6599 170.885L38.1609 170.83C38.1339 171.572 38.1089 172.121 38.0862 172.487C38.0747 172.672 38.0648 172.792 38.0575 172.86C38.0534 172.897 38.0528 172.893 38.0579 172.866C38.06 172.854 38.0689 172.807 38.0884 172.743C38.0983 172.71 38.117 172.652 38.1482 172.582C38.1738 172.524 38.2388 172.385 38.3636 172.235L39.5163 173.195L40.6691 174.154C40.8825 173.898 40.9541 173.631 40.96 173.611C40.9847 173.529 40.999 173.459 41.0065 173.418C41.0224 173.334 41.0327 173.25 41.0398 173.185C41.0548 173.047 41.0681 172.872 41.0805 172.673C41.1056 172.268 41.1317 171.688 41.1589 170.939L39.6599 170.885ZM39.5163 173.195L40.0801 171.805L40.0178 171.779L39.4541 173.169L38.8904 174.559L38.9526 174.585L39.5163 173.195ZM39.4541 173.169H37.9541V173.269H39.4541H40.9541V173.169H39.4541Z" fill="black"/>
<path d="M39.1333 173.054C38.3049 173.054 37.6333 173.725 37.6333 174.554C37.6333 175.382 38.3049 176.054 39.1333 176.054V174.554V173.054ZM39.2333 174.554L39.2727 173.054L39.253 173.054H39.2333V174.554ZM46.1967 174.804H47.6967V174.515L47.5897 174.248L46.1967 174.804ZM46.0967 174.554V173.054H43.8822L44.7038 175.11L46.0967 174.554ZM46.1967 176.054C47.0252 176.054 47.6967 175.382 47.6967 174.554C47.6967 173.725 47.0252 173.054 46.1967 173.054V174.554V176.054ZM39.1333 174.554V176.054H39.2333V174.554V173.054H39.1333V174.554ZM39.2333 174.554L39.1939 176.053C41.0138 176.101 42.4068 176.127 43.3659 176.13L43.3714 174.63L43.3768 173.13C42.4524 173.127 41.0866 173.102 39.2727 173.054L39.2333 174.554ZM43.3714 174.63L43.3659 176.13C44.2704 176.134 44.8033 176.206 45.064 176.283L45.4904 174.845L45.9168 173.407C45.2357 173.205 44.3559 173.134 43.3768 173.13L43.3714 174.63ZM45.4904 174.845L45.064 176.283C45.3256 176.361 45.7135 176.46 46.1068 176.437C46.3031 176.426 46.6947 176.375 47.0652 176.091C47.5148 175.746 47.6967 175.246 47.6967 174.804H46.1967H44.6967C44.6967 174.446 44.8493 174.01 45.24 173.71C45.5517 173.471 45.8549 173.446 45.9335 173.442C46.0913 173.433 46.1261 173.469 45.9168 173.407L45.4904 174.845ZM46.1967 174.804L47.5897 174.248L47.4897 173.997L46.0967 174.554L44.7038 175.11L44.8038 175.361L46.1967 174.804ZM46.0967 174.554V176.054H46.1967V174.554V173.054H46.0967V174.554Z" fill="black"/>
<path d="M9.34321 108.741C9.70078 107.994 9.38486 107.098 8.63758 106.741C7.89029 106.383 6.99463 106.699 6.63706 107.446L7.99013 108.094L9.34321 108.741ZM7.94697 108.184L9.23436 108.954L9.27004 108.894L9.30005 108.831L7.94697 108.184ZM3.41525 118.045L1.99809 117.553L3.41525 118.045ZM2.12591 140.117L0.672401 140.487L2.12591 140.117ZM2.60702 142.855L4.08316 143.121L4.0891 143.088L4.09358 143.055L2.60702 142.855ZM2.52458 143.311L1.04845 143.045L1.01454 143.233L1.02873 143.423L2.52458 143.311ZM1.03617 143.523C1.09779 144.349 1.81745 144.968 2.64359 144.907C3.46972 144.845 4.08948 144.126 4.02786 143.299L2.53202 143.411L1.03617 143.523ZM7.99013 108.094L6.63706 107.446L6.59389 107.537L7.94697 108.184L9.30005 108.831L9.34321 108.741L7.99013 108.094ZM7.94697 108.184L6.65958 107.414C5.1979 109.859 4.14966 111.846 3.55846 113.344L4.95376 113.895L6.34906 114.445C6.84879 113.179 7.79603 111.359 9.23436 108.954L7.94697 108.184ZM4.95376 113.895L3.55846 113.344C3.0054 114.746 2.48526 116.149 1.99809 117.553L3.41525 118.045L4.8324 118.536C5.30564 117.172 5.81117 115.808 6.34906 114.445L4.95376 113.895ZM3.41525 118.045L1.99809 117.553C1.49917 118.991 1.07941 120.466 0.738542 121.977L2.20177 122.307L3.665 122.637C3.98169 121.234 4.37092 119.867 4.8324 118.536L3.41525 118.045ZM2.20177 122.307L0.738542 121.977C0.39128 123.517 0.175015 125.074 0.0898727 126.65L1.58769 126.731L3.0855 126.812C3.16158 125.404 3.3547 124.013 3.665 122.637L2.20177 122.307ZM1.58769 126.731L0.0898727 126.65C0.00725925 128.179 -0.0184777 129.708 0.0126742 131.237L1.51236 131.206L3.01205 131.176C2.98242 129.721 3.0069 128.267 3.0855 126.812L1.58769 126.731ZM1.51236 131.206L0.0126742 131.237C0.0428863 132.719 0.0599535 134.205 0.0638742 135.694L1.56387 135.69L3.06386 135.686C3.0599 134.179 3.04263 132.676 3.01205 131.176L1.51236 131.206ZM1.56387 135.69L0.0638742 135.694C0.0681448 137.315 0.271176 138.914 0.672401 140.487L2.12591 140.117L3.57942 139.746C3.23914 138.412 3.06748 137.059 3.06386 135.686L1.56387 135.69ZM2.12591 140.117L0.672401 140.487C0.853379 141.197 0.975986 141.748 1.04689 142.152C1.12829 142.615 1.11085 142.726 1.12047 142.654L2.60702 142.855L4.09358 143.055C4.1532 142.613 4.08058 142.082 4.00161 141.632C3.91214 141.123 3.76919 140.491 3.57942 139.746L2.12591 140.117ZM2.60702 142.855L1.13089 142.588L1.04845 143.045L2.52458 143.311L4.00071 143.578L4.08316 143.121L2.60702 142.855ZM2.52458 143.311L1.02873 143.423L1.03617 143.523L2.53202 143.411L4.02786 143.299L4.02043 143.2L2.52458 143.311Z" fill="black"/>
<path d="M56.4677 107.955C56.0369 107.248 55.114 107.023 54.4064 107.454C53.6989 107.885 53.4745 108.808 53.9053 109.515L55.1865 108.735L56.4677 107.955ZM55.2385 108.821L53.9573 109.601L53.9923 109.658L54.0322 109.712L55.2385 108.821ZM61.2917 118.019L59.9019 118.583L61.2917 118.019ZM62.7651 126.849L61.2695 126.734L62.7651 126.849ZM63.2476 131.307L61.8107 131.737L63.2476 131.307ZM63.5637 135.739L62.0807 135.514L63.5637 135.739ZM63.6535 142.609L64.3118 143.957L64.637 143.798L64.854 143.508L63.6535 142.609ZM63.5323 142.668L62.8739 141.321L62.0137 141.741L62.0326 142.698L63.5323 142.668ZM62.0345 142.798C62.0508 143.626 62.7355 144.284 63.5638 144.268C64.392 144.252 65.0503 143.567 65.0339 142.739L63.5342 142.768L62.0345 142.798ZM55.1865 108.735L53.9053 109.515L53.9573 109.601L55.2385 108.821L56.5197 108.041L56.4677 107.955L55.1865 108.735ZM55.2385 108.821L54.0322 109.712C55.7343 112.015 57.0235 113.77 57.9012 114.976L59.1142 114.094L60.3273 113.211C59.4428 111.995 58.1482 110.234 56.4449 107.929L55.2385 108.821ZM59.1142 114.094L57.9012 114.976C58.7098 116.088 59.3765 117.289 59.9019 118.583L61.2917 118.019L62.6815 117.454C62.0657 115.938 61.2809 114.522 60.3273 113.211L59.1142 114.094ZM61.2917 118.019L59.9019 118.583C60.4331 119.891 60.821 121.235 61.0664 122.617L62.5433 122.354L64.0202 122.092C63.7379 120.503 63.2914 118.956 62.6815 117.454L61.2917 118.019ZM62.5433 122.354L61.0664 122.617C61.308 123.977 61.3758 125.349 61.2695 126.734L62.7651 126.849L64.2607 126.964C64.3863 125.327 64.3062 123.702 64.0202 122.092L62.5433 122.354ZM62.7651 126.849L61.2695 126.734C61.1394 128.43 61.3205 130.101 61.8107 131.737L63.2476 131.307L64.6845 130.876C64.2995 129.591 64.159 128.289 64.2607 126.964L62.7651 126.849ZM63.2476 131.307L61.8107 131.737C62.1852 132.988 62.2739 134.241 62.0807 135.514L63.5637 135.739L65.0467 135.965C65.3071 134.249 65.1851 132.548 64.6845 130.876L63.2476 131.307ZM63.5637 135.739L62.0807 135.514C61.8334 137.142 61.8094 138.772 62.0093 140.398L63.4981 140.215L64.9869 140.032C64.8205 138.679 64.8402 137.324 65.0467 135.965L63.5637 135.739ZM63.4981 140.215L62.0093 140.398C62.0998 141.135 62.1543 141.673 62.1774 142.028C62.1892 142.21 62.1905 142.311 62.1892 142.354C62.1885 142.378 62.1878 142.348 62.1977 142.289C62.2028 142.259 62.2147 142.196 62.2414 142.114C62.2644 142.044 62.3225 141.884 62.453 141.71L63.6535 142.609L64.854 143.508C65.0963 143.185 65.1464 142.846 65.1566 142.784C65.1781 142.656 65.1851 142.535 65.1878 142.446C65.1934 142.262 65.1852 142.051 65.1711 141.834C65.1424 141.391 65.0795 140.786 64.9869 140.032L63.4981 140.215ZM63.6535 142.609L62.9951 141.261L62.8739 141.321L63.5323 142.668L64.1906 144.016L64.3118 143.957L63.6535 142.609ZM63.5323 142.668L62.0326 142.698L62.0345 142.798L63.5342 142.768L65.0339 142.739L65.032 142.639L63.5323 142.668Z" fill="black"/>
<path d="M12.9742 110.961C12.4303 110.337 11.4828 110.271 10.8579 110.815C10.2331 111.359 10.1674 112.306 10.7114 112.931L11.8428 111.946L12.9742 110.961ZM11.9084 112.022L13.1606 111.196L13.1055 111.112L13.0398 111.037L11.9084 112.022ZM16.0085 117.142L15.025 118.274L16.0085 117.142ZM19.2563 120.212L18.1807 121.257L19.2563 120.212ZM22.6361 123.074L23.4896 121.841L22.6361 123.074ZM26.0369 125.999L24.9483 127.031L26.0369 125.999ZM37.3714 133.145L36.731 134.502L37.3714 133.145ZM40.8325 134.626L40.3201 136.036L40.8325 134.626ZM42.4554 135.262L43.2537 133.992L43.2327 133.979L43.2112 133.966L42.4554 135.262ZM42.5764 135.338L41.7781 136.608L41.8292 136.64L41.8827 136.668L42.5764 135.338ZM41.9714 136.714C42.7059 137.097 43.6119 136.812 43.995 136.078C44.3781 135.343 44.0933 134.437 43.3588 134.054L42.6651 135.384L41.9714 136.714ZM11.8428 111.946L10.7114 112.931L10.777 113.007L11.9084 112.022L13.0398 111.037L12.9742 110.961L11.8428 111.946ZM11.9084 112.022L10.6562 112.848C12.279 115.308 13.7366 117.155 15.025 118.274L16.0085 117.142L16.9921 116.009C16.0228 115.168 14.7469 113.601 13.1606 111.196L11.9084 112.022ZM16.0085 117.142L15.025 118.274C16.1221 119.227 17.174 120.222 18.1807 121.257L19.2563 120.212L20.3319 119.166C19.266 118.07 18.1527 117.017 16.9921 116.009L16.0085 117.142ZM19.2563 120.212L18.1807 121.257C19.2845 122.393 20.4854 123.41 21.7826 124.308L22.6361 123.074L23.4896 121.841C22.3531 121.054 21.3008 120.163 20.3319 119.166L19.2563 120.212ZM22.6361 123.074L21.7826 124.308C22.9117 125.089 23.9669 125.996 24.9483 127.031L26.0369 125.999L27.1256 124.967C26.0063 123.786 24.7943 122.743 23.4896 121.841L22.6361 123.074ZM26.0369 125.999L24.9483 127.031C26.0992 128.245 27.3925 129.259 28.8261 130.068L29.563 128.761L30.2999 127.455C29.1327 126.796 28.0754 125.969 27.1256 124.967L26.0369 125.999ZM29.563 128.761L28.8261 130.068C30.1122 130.793 31.3832 131.538 32.639 132.302L33.4185 131.02L34.1979 129.738C32.9138 128.957 31.6145 128.196 30.2999 127.455L29.563 128.761ZM33.4185 131.02L32.639 132.302C33.9547 133.102 35.3188 133.835 36.731 134.502L37.3714 133.145L38.0117 131.789C36.6933 131.166 35.4222 130.483 34.1979 129.738L33.4185 131.02ZM37.3714 133.145L36.731 134.502C38.1195 135.157 39.3187 135.672 40.3201 136.036L40.8325 134.626L41.345 133.216C40.4621 132.895 39.3539 132.422 38.0117 131.789L37.3714 133.145ZM40.8325 134.626L40.3201 136.036C40.7866 136.205 41.144 136.339 41.3976 136.438C41.5249 136.488 41.6179 136.526 41.6815 136.554C41.7632 136.589 41.75 136.587 41.6996 136.557L42.4554 135.262L43.2112 133.966C43.0202 133.855 42.7301 133.738 42.4922 133.645C42.2048 133.532 41.8207 133.389 41.345 133.216L40.8325 134.626ZM42.4554 135.262L41.6572 136.532L41.7781 136.608L42.5764 135.338L43.3747 134.068L43.2537 133.992L42.4554 135.262ZM42.5764 135.338L41.8827 136.668L41.9714 136.714L42.6651 135.384L43.3588 134.054L43.2701 134.008L42.5764 135.338Z" fill="black"/>
<path d="M12.9529 93.5996C12.3957 92.9865 11.447 92.9412 10.834 93.4983C10.2209 94.0555 10.1755 95.0041 10.7327 95.6172L11.8428 94.6084L12.9529 93.5996ZM11.91 94.6824L13.0594 93.7186L13.0402 93.6957L13.0201 93.6736L11.91 94.6824ZM19.2252 102.842L18.483 104.145L19.2252 102.842ZM26.3687 108.208L27.0355 106.865L26.3687 108.208ZM29.9601 110.808L28.8897 111.859L29.9601 110.808ZM33.3643 113.697L32.5008 114.923L33.3643 113.697ZM40.6292 118.932L39.6431 120.062L40.6292 118.932ZM44.3365 121.367L43.691 122.721L44.3365 121.367ZM48.2987 123.427L47.5609 124.733L48.2987 123.427ZM54.4027 126.366L54.1107 127.837L54.4659 127.908L54.8142 127.808L54.4027 126.366ZM54.4541 126.351L55.0961 124.995L54.5857 124.754L54.0427 124.909L54.4541 126.351ZM53.9026 127.75C54.6513 128.104 55.5457 127.785 55.9002 127.036C56.2547 126.287 55.9352 125.393 55.1864 125.038L54.5445 126.394L53.9026 127.75ZM11.8428 94.6084L10.7327 95.6172L10.7999 95.6912L11.91 94.6824L13.0201 93.6736L12.9529 93.5996L11.8428 94.6084ZM11.91 94.6824L10.7607 95.6463C12.6127 97.8547 13.9347 99.5405 14.7502 100.721L15.9843 99.8684L17.2185 99.0159C16.3217 97.7177 14.9275 95.9462 13.0594 93.7186L11.91 94.6824ZM15.9843 99.8684L14.7502 100.721C15.7339 102.145 16.9821 103.29 18.483 104.145L19.2252 102.842L19.9674 101.538C18.8594 100.907 17.947 100.071 17.2185 99.0159L15.9843 99.8684ZM19.2252 102.842L18.483 104.145C19.6643 104.818 20.7313 105.643 21.6869 106.625L22.7618 105.579L23.8368 104.533C22.6858 103.35 21.3951 102.351 19.9674 101.538L19.2252 102.842ZM22.7618 105.579L21.6869 106.625C22.8583 107.829 24.1985 108.806 25.7019 109.552L26.3687 108.208L27.0355 106.865C25.8363 106.269 24.772 105.494 23.8368 104.533L22.7618 105.579ZM26.3687 108.208L25.7019 109.552C26.9052 110.149 27.9655 110.917 28.8897 111.859L29.9601 110.808L31.0305 109.757C29.8687 108.574 28.5346 107.609 27.0355 106.865L26.3687 108.208ZM29.9601 110.808L28.8897 111.859C29.9967 112.986 31.2007 114.008 32.5008 114.923L33.3643 113.697L34.2279 112.47C33.075 111.659 32.0096 110.754 31.0305 109.757L29.9601 110.808ZM33.3643 113.697L32.5008 114.923C33.7394 115.796 34.9881 116.647 36.2468 117.478L37.0732 116.226L37.8997 114.975C36.6661 114.16 35.4422 113.325 34.2279 112.47L33.3643 113.697ZM37.0732 116.226L36.2468 117.478C37.4371 118.264 38.569 119.125 39.6431 120.062L40.6292 118.932L41.6153 117.802C40.4403 116.777 39.2017 115.834 37.8997 114.975L37.0732 116.226ZM40.6292 118.932L39.6431 120.062C40.8704 121.133 42.2208 122.02 43.691 122.721L44.3365 121.367L44.9821 120.013C43.7582 119.43 42.637 118.693 41.6153 117.802L40.6292 118.932ZM44.3365 121.367L43.691 122.721C45.0069 123.348 46.2968 124.019 47.5609 124.733L48.2987 123.427L49.0365 122.121C47.7118 121.373 46.3603 120.67 44.9821 120.013L44.3365 121.367ZM48.2987 123.427L47.5609 124.733C48.8942 125.487 50.2519 126.175 51.6339 126.798L52.2506 125.431L52.8673 124.064C51.5688 123.478 50.2919 122.83 49.0365 122.121L48.2987 123.427ZM52.2506 125.431L51.6339 126.798C52.3058 127.101 52.8278 127.334 53.1961 127.494C53.3793 127.573 53.5321 127.638 53.6497 127.686C53.7076 127.71 53.7664 127.733 53.8206 127.753C53.8399 127.76 53.9669 127.809 54.1107 127.837L54.4027 126.366L54.6947 124.894C54.8149 124.918 54.8988 124.953 54.8556 124.937C54.8472 124.934 54.824 124.925 54.7804 124.907C54.695 124.873 54.567 124.818 54.3915 124.742C54.0425 124.591 53.5356 124.365 52.8673 124.064L52.2506 125.431ZM54.4027 126.366L54.8142 127.808L54.8656 127.794L54.4541 126.351L54.0427 124.909L53.9913 124.923L54.4027 126.366ZM54.4541 126.351L53.8122 127.707L53.9026 127.75L54.5445 126.394L55.1864 125.038L55.0961 124.995L54.4541 126.351Z" fill="black"/>
<path d="M23.9921 51.0377C23.3344 50.5339 22.3929 50.6588 21.8892 51.3165C21.3855 51.9742 21.5103 52.9157 22.168 53.4194L23.0801 52.2285L23.9921 51.0377ZM23.1595 52.2893L24.2371 51.2459L24.1598 51.166L24.0715 51.0985L23.1595 52.2893ZM28.0205 56.7907L27.1236 57.9931L28.0205 56.7907ZM31.6621 59.4125L30.8067 60.6446L31.6621 59.4125ZM35.3257 61.9856L34.4569 63.2085L35.3257 61.9856ZM39.2905 64.0807L38.7672 65.4864L39.2905 64.0807ZM47.2535 68.063L46.454 69.3322L47.2535 68.063ZM54.4175 70.6559L55.2828 69.4306L55.2679 69.4201L55.2527 69.4099L54.4175 70.6559ZM55.094 71.1336L54.2287 72.3589L54.3689 72.4579L54.5279 72.5227L55.094 71.1336ZM54.6205 72.5604C55.3876 72.8731 56.263 72.5047 56.5757 71.7376C56.8884 70.9704 56.52 70.095 55.7528 69.7823L55.1866 71.1714L54.6205 72.5604ZM23.0801 52.2285L22.168 53.4194L22.2474 53.4802L23.1595 52.2893L24.0715 51.0985L23.9921 51.0377L23.0801 52.2285ZM23.1595 52.2893L22.0819 53.3328C24.1309 55.4488 25.8186 57.0196 27.1236 57.9931L28.0205 56.7907L28.9174 55.5884C27.8109 54.763 26.2579 53.3328 24.2371 51.2459L23.1595 52.2893ZM28.0205 56.7907L27.1236 57.9931C28.3429 58.9026 29.5706 59.7864 30.8067 60.6446L31.6621 59.4125L32.5176 58.1804C31.3098 57.3418 30.1097 56.4778 28.9174 55.5884L28.0205 56.7907ZM31.6621 59.4125L30.8067 60.6446C32.0242 61.49 33.2409 62.3446 34.4569 63.2085L35.3257 61.9856L36.1944 60.7628C34.9696 59.8927 33.744 59.0319 32.5176 58.1804L31.6621 59.4125ZM35.3257 61.9856L34.4569 63.2085C35.7855 64.1523 37.2235 64.9117 38.7672 65.4864L39.2905 64.0807L39.8138 62.6749C38.5118 62.1902 37.3066 61.553 36.1944 60.7628L35.3257 61.9856ZM39.2905 64.0807L38.7672 65.4864C40.1397 65.9974 41.45 66.569 42.6989 67.2009L43.3761 65.8624L44.0533 64.524C42.7004 63.8395 41.287 63.2233 39.8138 62.6749L39.2905 64.0807ZM43.3761 65.8624L42.6989 67.2009C43.9563 67.8371 45.208 68.5473 46.454 69.3322L47.2535 68.063L48.053 66.7938C46.7309 65.961 45.3976 65.2042 44.0533 64.524L43.3761 65.8624ZM47.2535 68.063L46.454 69.3322C47.8955 70.2402 49.4569 70.8577 51.1292 71.181L51.414 69.7083L51.6987 68.2356C50.3919 67.9829 49.1796 67.5035 48.053 66.7938L47.2535 68.063ZM51.414 69.7083L51.1292 71.181C52.6283 71.4709 53.3499 71.746 53.5824 71.9019L54.4175 70.6559L55.2527 69.4099C54.4596 68.8783 53.1789 68.5218 51.6987 68.2356L51.414 69.7083ZM54.4175 70.6559L53.5522 71.8811L54.2287 72.3589L55.094 71.1336L55.9594 69.9084L55.2828 69.4306L54.4175 70.6559ZM55.094 71.1336L54.5279 72.5227L54.6205 72.5604L55.1866 71.1714L55.7528 69.7823L55.6602 69.7446L55.094 71.1336Z" fill="black"/>
</svg>
