<svg width="139" height="171" viewBox="0 0 139 171" fill="none" xmlns="http://www.w3.org/2000/svg">
<path d="M23.7567 69.4807C23.1642 70.0597 23.1534 71.0094 23.7325 71.6018C24.3116 72.1943 25.2613 72.2051 25.8537 71.626L24.8052 70.5533L23.7567 69.4807ZM24.8767 70.4834L23.9739 69.2855L23.897 69.3435L23.8282 69.4108L24.8767 70.4834ZM32.6041 62.5835L33.7585 63.5413L32.6041 62.5835ZM35.7569 59.388L34.7822 58.2478L35.7569 59.388ZM39.4337 56.7841L40.1848 58.0824L39.4337 56.7841ZM47.3896 52.6746L46.8905 51.26L47.3896 52.6746ZM51.3811 50.6494L50.5314 49.4133L51.3811 50.6494ZM55.4017 48.9005L55.0778 47.4359L55.4017 48.9005ZM59.7389 47.8638L59.3656 46.411L59.7389 47.8638ZM68.601 46.7821L68.2676 45.3196L68.601 46.7821ZM81.969 47.4092L81.7551 48.8938L81.969 47.4092ZM98.2247 54.587L97.5176 55.9099L98.2247 54.587ZM101.872 57.1477L102.876 56.0336L101.872 57.1477ZM108.306 63.3649L107.124 64.2885L108.306 63.3649ZM113.893 69.2731L112.81 70.3108L113.893 69.2731ZM114.686 70.4316L114.946 71.9089L115.223 71.8601L115.464 71.7138L114.686 70.4316ZM114.419 70.4785L114.159 69.0012L111.516 69.4661L113.297 71.4739L114.419 70.4785ZM113.363 71.5487C113.913 72.1685 114.861 72.2252 115.481 71.6755C116.1 71.1257 116.157 70.1777 115.607 69.5579L114.485 70.5533L113.363 71.5487ZM24.8052 70.5533L25.8537 71.626L25.9252 71.5561L24.8767 70.4834L23.8282 69.4108L23.7567 69.4807L24.8052 70.5533ZM24.8767 70.4834L25.7795 71.6813C28.1466 69.8974 29.909 68.3324 30.9611 66.9989L29.7835 66.0698L28.6059 65.1406C27.8006 66.1613 26.2918 67.5387 23.9739 69.2855L24.8767 70.4834ZM29.7835 66.0698L30.9611 66.9989C31.8822 65.8313 32.8147 64.6788 33.7585 63.5413L32.6041 62.5835L31.4497 61.6257C30.4901 62.7823 29.5422 63.9539 28.6059 65.1406L29.7835 66.0698ZM32.6041 62.5835L33.7585 63.5413C34.6548 62.4611 35.6454 61.4567 36.7316 60.5281L35.7569 59.388L34.7822 58.2478C33.568 59.2859 32.4568 60.4119 31.4497 61.6257L32.6041 62.5835ZM35.7569 59.388L36.7316 60.5281C37.8128 59.6039 38.9636 58.7889 40.1848 58.0824L39.4337 56.7841L38.6825 55.4857C37.3018 56.2844 36.0015 57.2055 34.7822 58.2478L35.7569 59.388ZM39.4337 56.7841L40.1848 58.0824C41.4851 57.3302 42.7777 56.5838 44.0625 55.8433L43.3135 54.5437L42.5644 53.2441C41.2782 53.9854 39.9842 54.7326 38.6825 55.4857L39.4337 56.7841ZM43.3135 54.5437L44.0625 55.8433C45.2666 55.1494 46.5414 54.5645 47.8886 54.0891L47.3896 52.6746L46.8905 51.26C45.374 51.7951 43.9314 52.4563 42.5644 53.2441L43.3135 54.5437ZM47.3896 52.6746L47.8886 54.0891C49.4425 53.5409 50.8912 52.8064 52.2308 51.8855L51.3811 50.6494L50.5314 49.4133C49.4127 50.1823 48.2004 50.7979 46.8905 51.26L47.3896 52.6746ZM51.3811 50.6494L52.2308 51.8855C53.3016 51.1494 54.4634 50.6443 55.7257 50.3651L55.4017 48.9005L55.0778 47.4359C53.4375 47.7987 51.9189 48.4595 50.5314 49.4133L51.3811 50.6494ZM55.4017 48.9005L55.7257 50.3651C57.1935 50.0404 58.6557 49.6909 60.1123 49.3166L59.7389 47.8638L59.3656 46.411C57.9418 46.7769 56.5126 47.1185 55.0778 47.4359L55.4017 48.9005ZM59.7389 47.8638L60.1123 49.3166C61.4321 48.9775 62.7772 48.8044 64.1505 48.7978L64.1432 47.2978L64.1359 45.7978C62.5172 45.8057 60.9261 46.01 59.3656 46.411L59.7389 47.8638ZM64.1432 47.2978L64.1505 48.7978C65.7575 48.79 67.3528 48.6052 68.9345 48.2445L68.601 46.7821L68.2676 45.3196C66.8974 45.632 65.5208 45.7911 64.1359 45.7978L64.1432 47.2978ZM68.601 46.7821L68.9345 48.2445C70.2617 47.9419 71.5913 47.8476 72.9286 47.9596L73.0539 46.4649L73.1792 44.9701C71.5312 44.832 69.8922 44.9491 68.2676 45.3196L68.601 46.7821ZM73.0539 46.4649L72.9286 47.9596C74.4143 48.0841 75.896 48.2188 77.3739 48.3637L77.5202 46.8708L77.6665 45.378C76.1745 45.2317 74.6788 45.0958 73.1792 44.9701L73.0539 46.4649ZM77.5202 46.8708L77.3739 48.3637C78.8361 48.507 80.2965 48.6837 81.7551 48.8938L81.969 47.4092L82.183 45.9245C80.6795 45.7079 79.174 45.5257 77.6665 45.378L77.5202 46.8708ZM81.969 47.4092L81.7551 48.8938C83.1306 49.092 84.4696 49.4334 85.7738 49.9183L86.2966 48.5124L86.8194 47.1065C85.3156 46.5473 83.7696 46.1531 82.183 45.9245L81.969 47.4092ZM86.2966 48.5124L85.7738 49.9183C87.1203 50.419 88.4289 50.9994 89.6998 51.6593L90.3911 50.3281L91.0824 48.9969C89.702 48.2801 88.2809 47.6499 86.8194 47.1065L86.2966 48.5124ZM90.3911 50.3281L89.6998 51.6593C91.0113 52.3404 92.304 53.0382 93.5778 53.7527L94.3116 52.4444L95.0454 51.1361C93.7431 50.4057 92.4221 49.6927 91.0824 48.9969L90.3911 50.3281ZM94.3116 52.4444L93.5778 53.7527C94.8748 54.4801 96.1881 55.1992 97.5176 55.9099L98.2247 54.587L98.9319 53.2641C97.6199 52.5629 96.3244 51.8535 95.0454 51.1361L94.3116 52.4444ZM98.2247 54.587L97.5176 55.9099C98.7313 56.5587 99.8471 57.3422 100.867 58.2619L101.872 57.1477L102.876 56.0336C101.675 54.951 100.36 54.0273 98.9319 53.2641L98.2247 54.587ZM101.872 57.1477L100.867 58.2619C101.984 59.2689 103.111 60.2668 104.247 61.2555L105.232 60.1241L106.217 58.9927C105.094 58.0153 103.98 57.0289 102.876 56.0336L101.872 57.1477ZM105.232 60.1241L104.247 61.2555C105.304 62.1759 106.263 63.1866 107.124 64.2885L108.306 63.3649L109.488 62.4413C108.509 61.1883 107.418 60.0385 106.217 58.9927L105.232 60.1241ZM108.306 63.3649L107.124 64.2885C108.087 65.5206 109.129 66.6787 110.251 67.7624L111.293 66.6837L112.335 65.605C111.314 64.6184 110.365 63.564 109.488 62.4413L108.306 63.3649ZM111.293 66.6837L110.251 67.7624C111.315 68.7905 112.166 69.639 112.81 70.3108L113.893 69.2731L114.976 68.2354C114.296 67.5249 113.414 66.6471 112.335 65.605L111.293 66.6837ZM113.893 69.2731L112.81 70.3108C113.13 70.645 113.291 70.8414 113.35 70.9282C113.393 70.9906 113.319 70.9029 113.267 70.7171C113.24 70.6203 113.184 70.3781 113.252 70.0683C113.332 69.6997 113.561 69.3598 113.907 69.1494L114.686 70.4316L115.464 71.7138C115.844 71.4831 116.094 71.1133 116.183 70.7053C116.259 70.3562 116.2 70.0652 116.156 69.9099C116.072 69.6073 115.915 69.3646 115.826 69.234C115.621 68.9346 115.318 68.5923 114.976 68.2354L113.893 69.2731ZM114.686 70.4316L114.426 68.9543L114.159 69.0012L114.419 70.4785L114.679 71.9558L114.946 71.9089L114.686 70.4316ZM114.419 70.4785L113.297 71.4739L113.363 71.5487L114.485 70.5533L115.607 69.5579L115.541 69.4831L114.419 70.4785Z" fill="black"/>
<path d="M27.3939 70.4863C26.7566 69.957 25.8109 70.0445 25.2816 70.6818C24.7523 71.3191 24.8399 72.2648 25.4772 72.7941L26.4355 71.6402L27.3939 70.4863ZM26.5125 71.7041L27.5372 70.6087L27.5049 70.5785L27.4709 70.5502L26.5125 71.7041ZM35.1171 78.6315L34.0457 79.6814L35.1171 78.6315ZM56.4825 93.8229L56.5498 95.3214V95.3214L56.4825 93.8229ZM60.9239 94.2856L60.5334 95.7338L60.9239 94.2856ZM74.1999 95.5147L73.8149 96.9644L74.1999 95.5147ZM87.2617 93.6337L87.6099 95.0927L87.2617 93.6337ZM91.2832 91.8114L92.1495 93.0359L91.2832 91.8114ZM99.24 87.7185L99.9163 89.0574L99.24 87.7185ZM107.172 83.6296L106.299 82.4092L107.172 83.6296ZM115.908 74.1948L114.45 73.843L115.908 74.1948ZM116.803 71.6176L115.629 70.6842L115.621 70.6944L115.613 70.7049L116.803 71.6176ZM117.15 71.1816L118.324 72.115L118.378 72.0472L118.424 71.9737L117.15 71.1816ZM118.476 71.8888C118.914 71.1853 118.698 70.2604 117.995 69.8229C117.291 69.3854 116.366 69.601 115.929 70.3045L117.203 71.0967L118.476 71.8888ZM26.4355 71.6402L25.4772 72.7941L25.5541 72.858L26.5125 71.7041L27.4709 70.5502L27.3939 70.4863L26.4355 71.6402ZM26.5125 71.7041L25.4877 72.7995C27.6341 74.8075 29.4274 76.2768 30.84 77.1346L31.6186 75.8525L32.3971 74.5704C31.2573 73.8782 29.6466 72.582 27.5372 70.6087L26.5125 71.7041ZM31.6186 75.8525L30.84 77.1346C32.0082 77.844 33.0762 78.692 34.0457 79.6814L35.1171 78.6315L36.1884 77.5816C35.0457 76.4155 33.7814 75.4109 32.3971 74.5704L31.6186 75.8525ZM35.1171 78.6315L34.0457 79.6814C35.0838 80.7406 36.0871 81.819 37.0556 82.9164L38.1802 81.9238L39.3049 80.9312C38.3014 79.7942 37.2626 78.6777 36.1884 77.5816L35.1171 78.6315ZM38.1802 81.9238L37.0556 82.9164C38.0671 84.0625 39.1183 85.1646 40.2092 86.2227L41.2536 85.1459L42.2979 84.0692C41.263 83.0655 40.2654 82.0195 39.3049 80.9312L38.1802 81.9238ZM41.2536 85.1459L40.2092 86.2227C41.2607 87.2425 42.3058 88.2884 43.3444 89.3605L44.4217 88.3168L45.4991 87.2731C44.4392 86.1791 43.3721 85.1111 42.2979 84.0692L41.2536 85.1459ZM44.4217 88.3168L43.3444 89.3605C44.5749 90.6307 46.0552 91.5241 47.7612 92.0317L48.189 90.594L48.6168 89.1563C47.3982 88.7937 46.367 88.1689 45.4991 87.2731L44.4217 88.3168ZM48.189 90.594L47.7612 92.0317C49.0635 92.4192 50.2726 93.0102 51.3939 93.8089L52.2642 92.5872L53.1345 91.3655C51.7467 90.3769 50.239 89.639 48.6168 89.1563L48.189 90.594ZM52.2642 92.5872L51.3939 93.8089C52.9249 94.8996 54.6619 95.4062 56.5498 95.3214L56.4825 93.8229L56.4153 92.3244C55.1878 92.3795 54.1126 92.0623 53.1345 91.3655L52.2642 92.5872ZM56.4825 93.8229L56.5498 95.3214C57.9645 95.2579 59.2897 95.3985 60.5334 95.7338L60.9239 94.2856L61.3143 92.8373C59.7516 92.4159 58.116 92.2481 56.4153 92.3244L56.4825 93.8229ZM60.9239 94.2856L60.5334 95.7338C61.9729 96.122 63.4488 96.4618 64.9608 96.7536L65.245 95.2807L65.5292 93.8079C64.0861 93.5294 62.6812 93.2058 61.3143 92.8373L60.9239 94.2856ZM65.245 95.2807L64.9608 96.7536C66.6194 97.0736 68.296 97.0868 69.9816 96.7968L69.7273 95.3185L69.4729 93.8403C68.1373 94.0701 66.8257 94.0581 65.5292 93.8079L65.245 95.2807ZM69.7273 95.3185L69.9816 96.7968C71.2811 96.5732 72.5539 96.6295 73.8149 96.9644L74.1999 95.5147L74.5848 94.0649C72.9037 93.6185 71.1947 93.544 69.4729 93.8403L69.7273 95.3185ZM74.1999 95.5147L73.8149 96.9644C75.4479 97.3981 77.1019 97.5499 78.7697 97.4167L78.6503 95.9215L78.5309 94.4263C77.207 94.532 75.894 94.4126 74.5848 94.0649L74.1999 95.5147ZM78.6503 95.9215L78.7697 97.4167C80.406 97.2861 81.9907 96.9307 83.5193 96.3507L82.9873 94.9483L82.4552 93.5458C81.193 94.0246 79.8863 94.318 78.5309 94.4263L78.6503 95.9215ZM82.9873 94.9483L83.5193 96.3507C84.8546 95.8442 86.218 95.4248 87.6099 95.0927L87.2617 93.6337L86.9136 92.1746C85.397 92.5365 83.9108 92.9936 82.4552 93.5458L82.9873 94.9483ZM87.2617 93.6337L87.6099 95.0927C89.2512 94.7011 90.7674 94.0137 92.1495 93.0359L91.2832 91.8114L90.417 90.5868C89.3455 91.3448 88.1808 91.8723 86.9136 92.1746L87.2617 93.6337ZM91.2832 91.8114L92.1495 93.0359C93.2919 92.2278 94.5016 91.5476 95.7798 90.9945L95.1841 89.6179L94.5884 88.2413C93.119 88.8771 91.7281 89.6593 90.417 90.5868L91.2832 91.8114ZM95.1841 89.6179L95.7798 90.9945C97.1806 90.3884 98.5595 89.7426 99.9163 89.0574L99.24 87.7185L98.5638 86.3796C97.2602 87.038 95.9351 87.6585 94.5884 88.2413L95.1841 89.6179ZM99.24 87.7185L99.9163 89.0574C101.22 88.399 102.544 87.7792 103.888 87.1979L103.293 85.8211L102.697 84.4443C101.299 85.0492 99.9207 85.6943 98.5638 86.3796L99.24 87.7185ZM103.293 85.8211L103.888 87.1979C105.357 86.5626 106.743 85.7797 108.044 84.8499L107.172 83.6296L106.299 82.4092C105.172 83.2152 103.971 83.8933 102.697 84.4443L103.293 85.8211ZM107.172 83.6296L108.044 84.8499C109.265 83.9771 110.476 83.0957 111.678 82.2057L110.786 81.0003L109.893 79.7948C108.705 80.6748 107.507 81.5462 106.299 82.4092L107.172 83.6296ZM110.786 81.0003L111.678 82.2057C112.97 81.249 114.128 80.1529 115.15 78.9188L113.995 77.962L112.84 77.0052C111.972 78.0522 110.991 78.9816 109.893 79.7948L110.786 81.0003ZM113.995 77.962L115.15 78.9188C116.233 77.6114 116.979 76.1508 117.366 74.5466L115.908 74.1948L114.45 73.843C114.175 74.9807 113.646 76.0316 112.84 77.0052L113.995 77.962ZM115.908 74.1948L117.366 74.5466C117.525 73.8859 117.67 73.3802 117.797 73.0146C117.937 72.6096 118.015 72.5019 117.994 72.5302L116.803 71.6176L115.613 70.7049C115.325 71.0804 115.121 71.5759 114.963 72.03C114.791 72.5235 114.621 73.1328 114.45 73.843L115.908 74.1948ZM116.803 71.6176L117.978 72.551L118.324 72.115L117.15 71.1816L115.976 70.2482L115.629 70.6842L116.803 71.6176ZM117.15 71.1816L118.424 71.9737L118.476 71.8888L117.203 71.0967L115.929 70.3045L115.876 70.3895L117.15 71.1816Z" fill="black"/>
<path d="M20.0988 73.0197C19.6599 72.3171 18.7345 72.1034 18.0319 72.5423C17.3293 72.9812 17.1156 73.9066 17.5545 74.6092L18.8267 73.8145L20.0988 73.0197ZM18.8796 73.8993L20.2619 73.3166L20.2153 73.2062L20.1518 73.1045L18.8796 73.8993ZM22.0262 79.6542L20.8788 80.6204L22.0262 79.6542ZM27.6623 86.6076L26.5161 87.5752L27.6623 86.6076ZM33.5568 93.2115L32.4856 94.2616L33.5568 93.2115ZM37.0486 95.9327L37.8054 94.6375L37.0486 95.9327ZM45.2766 99.2769L45.7569 97.8559L45.2766 99.2769ZM49.5061 100.648L49.9509 99.2153L49.5061 100.648ZM53.8032 101.864L53.431 103.317L53.8032 101.864ZM58.1662 102.819L57.8975 104.295L58.1662 102.819ZM60.5206 103.192L60.78 104.669L61.1643 104.602L61.4671 104.356L60.5206 103.192ZM60.5795 103.144L60.8855 101.675L60.1867 101.53L59.633 101.98L60.5795 103.144ZM60.3714 104.633C61.1824 104.802 61.9769 104.281 62.1459 103.47C62.3148 102.659 61.7944 101.865 60.9833 101.696L60.6774 103.164L60.3714 104.633ZM18.8267 73.8145L17.5545 74.6092L17.6075 74.694L18.8796 73.8993L20.1518 73.1045L20.0988 73.0197L18.8267 73.8145ZM18.8796 73.8993L17.4974 74.4819C18.6467 77.2085 19.766 79.2987 20.8788 80.6204L22.0262 79.6542L23.1737 78.6881C22.362 77.7242 21.3835 75.9777 20.2619 73.3166L18.8796 73.8993ZM22.0262 79.6542L20.8788 80.6204C21.8288 81.7486 22.7553 82.8924 23.6584 84.0519L24.8418 83.1301L26.0252 82.2084C25.0986 81.0188 24.1481 79.8454 23.1737 78.6881L22.0262 79.6542ZM24.8418 83.1301L23.6584 84.0519C24.5853 85.242 25.5379 86.4164 26.5161 87.5752L27.6623 86.6076L28.8085 85.64C27.8555 84.5112 26.9278 83.3673 26.0252 82.2084L24.8418 83.1301ZM27.6623 86.6076L26.5161 87.5752C27.4873 88.7256 28.4565 89.8534 29.4237 90.9584L30.5524 89.9705L31.6811 88.9825C30.726 87.8913 29.7684 86.7771 28.8085 85.64L27.6623 86.6076ZM30.5524 89.9705L29.4237 90.9584C30.4039 92.0782 31.4246 93.1793 32.4856 94.2616L33.5568 93.2115L34.6279 92.1614C33.6056 91.1187 32.6234 90.059 31.6811 88.9825L30.5524 89.9705ZM33.5568 93.2115L32.4856 94.2616C33.6208 95.4195 34.8905 96.409 36.2919 97.2278L37.0486 95.9327L37.8054 94.6375C36.6342 93.9532 35.576 93.1285 34.6279 92.1614L33.5568 93.2115ZM37.0486 95.9327L36.2919 97.2278C37.6576 98.0258 39.0845 98.6919 40.5716 99.2257L41.0784 97.8139L41.5852 96.4021C40.2718 95.9307 39.0122 95.3427 37.8054 94.6375L37.0486 95.9327ZM41.0784 97.8139L40.5716 99.2257C41.9806 99.7315 43.3888 100.222 44.7963 100.698L45.2766 99.2769L45.7569 97.8559C44.3672 97.3862 42.9767 96.9016 41.5852 96.4021L41.0784 97.8139ZM45.2766 99.2769L44.7963 100.698C46.2067 101.175 47.6284 101.635 49.0613 102.08L49.5061 100.648L49.9509 99.2153C48.5415 98.7777 47.1435 98.3246 45.7569 97.8559L45.2766 99.2769ZM49.5061 100.648L49.0613 102.08C50.5065 102.529 51.9631 102.941 53.431 103.317L53.8032 101.864L54.1755 100.411C52.7562 100.048 51.348 99.649 49.9509 99.2153L49.5061 100.648ZM53.8032 101.864L53.431 103.317C54.9088 103.696 56.3977 104.022 57.8975 104.295L58.1662 102.819L58.4349 101.344C57.0047 101.083 55.5849 100.772 54.1755 100.411L53.8032 101.864ZM58.1662 102.819L57.8975 104.295C58.6334 104.429 59.2093 104.529 59.6191 104.594C59.8222 104.626 59.9979 104.652 60.1373 104.668C60.2057 104.677 60.2815 104.684 60.3552 104.689C60.3786 104.691 60.5689 104.706 60.78 104.669L60.5206 103.192L60.2611 101.714C60.3799 101.694 60.4704 101.694 60.4887 101.694C60.5207 101.694 60.5413 101.695 60.5437 101.695C60.5488 101.695 60.5346 101.694 60.4919 101.689C60.409 101.68 60.2773 101.661 60.088 101.631C59.713 101.572 59.164 101.476 58.4349 101.344L58.1662 102.819ZM60.5206 103.192L61.4671 104.356L61.526 104.308L60.5795 103.144L59.633 101.98L59.574 102.028L60.5206 103.192ZM60.5795 103.144L60.2735 104.612L60.3714 104.633L60.6774 103.164L60.9833 101.696L60.8855 101.675L60.5795 103.144Z" fill="black"/>
<path d="M74.611 101.134C73.7898 101.244 73.2126 101.998 73.3217 102.819C73.4308 103.64 74.1849 104.217 75.0061 104.108L74.8086 102.621L74.611 101.134ZM74.9077 102.608L74.8838 101.108L74.7966 101.11L74.7102 101.121L74.9077 102.608ZM81.5063 102.138L81.2387 100.662L81.5063 102.138ZM94.545 99.1762L94.1147 97.7392L94.545 99.1762ZM102.309 95.0753L101.15 94.1221L102.309 95.0753ZM105.736 92.1878L104.997 90.8826L105.736 92.1878ZM113.368 87.4298L112.447 86.246L113.368 87.4298ZM121.048 76.5986L122.373 77.3023L121.048 76.5986ZM122.638 73.9513L121.484 72.9927L121.475 73.0034L121.466 73.0142L122.638 73.9513ZM123.131 73.3577L124.285 74.3162L124.362 74.223L124.423 74.1185L123.131 73.3577ZM124.474 74.0324C124.894 73.3184 124.656 72.399 123.942 71.9788C123.228 71.5586 122.309 71.7967 121.889 72.5106L123.182 73.2715L124.474 74.0324ZM74.8086 102.621L75.0061 104.108L75.1053 104.095L74.9077 102.608L74.7102 101.121L74.611 101.134L74.8086 102.621ZM74.9077 102.608L74.9316 104.108C77.8796 104.061 80.1786 103.903 81.774 103.614L81.5063 102.138L81.2387 100.662C79.892 100.906 77.7919 101.062 74.8838 101.108L74.9077 102.608ZM81.5063 102.138L81.774 103.614C83.2989 103.337 84.8084 102.978 86.3024 102.535L85.8762 101.097L85.4501 99.6585C84.0596 100.071 82.6559 100.405 81.2387 100.662L81.5063 102.138ZM85.8762 101.097L86.3024 102.535C87.6777 102.127 89.063 101.821 90.4586 101.615L90.2397 100.131L90.0209 98.6472C88.483 98.874 86.9592 99.2113 85.4501 99.6585L85.8762 101.097ZM90.2397 100.131L90.4586 101.615C91.996 101.388 93.5018 101.054 94.9753 100.613L94.545 99.1762L94.1147 97.7392C92.7814 98.1385 91.417 98.4412 90.0209 98.6472L90.2397 100.131ZM94.545 99.1762L94.9753 100.613C96.4247 100.179 97.8704 99.6704 99.3122 99.0875L98.75 97.6968L98.1879 96.3062C96.8298 96.8552 95.4721 97.3327 94.1147 97.7392L94.545 99.1762ZM98.75 97.6968L99.3122 99.0875C100.948 98.4264 102.338 97.4007 103.467 96.0284L102.309 95.0753L101.15 94.1221C100.335 95.1133 99.3525 95.8354 98.1879 96.3062L98.75 97.6968ZM102.309 95.0753L103.467 96.0284C104.324 94.9866 105.325 94.1442 106.475 93.4931L105.736 92.1878L104.997 90.8826C103.522 91.7178 102.238 92.8004 101.15 94.1221L102.309 95.0753ZM105.736 92.1878L106.475 93.4931C107.793 92.747 109.102 91.9953 110.404 91.2378L109.65 89.9413L108.895 88.6447C107.604 89.3963 106.304 90.1423 104.997 90.8826L105.736 92.1878ZM109.65 89.9413L110.404 91.2378C111.759 90.4496 113.054 89.5748 114.289 88.6137L113.368 87.4298L112.447 86.246C111.318 87.1244 110.134 87.9239 108.895 88.6447L109.65 89.9413ZM113.368 87.4298L114.289 88.6137C115.53 87.6483 116.699 86.5918 117.795 85.4447L116.711 84.4083L115.626 83.372C114.63 84.414 113.571 85.3718 112.447 86.246L113.368 87.4298ZM116.711 84.4083L117.795 85.4447C118.97 84.2149 119.884 82.8091 120.529 81.2357L119.141 80.6663L117.754 80.0969C117.25 81.3238 116.543 82.4127 115.626 83.372L116.711 84.4083ZM119.141 80.6663L120.529 81.2357C121.085 79.8805 121.7 78.5695 122.373 77.3023L121.048 76.5986L119.724 75.8948C119.003 77.251 118.347 78.6518 117.754 80.0969L119.141 80.6663ZM121.048 76.5986L122.373 77.3023C123.073 75.9846 123.545 75.2186 123.809 74.8884L122.638 73.9513L121.466 73.0142C121.005 73.5904 120.417 74.5892 119.724 75.8948L121.048 76.5986ZM122.638 73.9513L123.791 74.9098L124.285 74.3162L123.131 73.3577L121.977 72.3991L121.484 72.9927L122.638 73.9513ZM123.131 73.3577L124.423 74.1185L124.474 74.0324L123.182 73.2715L121.889 72.5106L121.838 72.5968L123.131 73.3577Z" fill="black"/>
<path d="M10.26 53.3711C9.77565 52.699 8.83819 52.5468 8.16607 53.0311C7.49395 53.5154 7.34169 54.4528 7.82599 55.1249L9.04297 54.248L10.26 53.3711ZM9.10143 54.3292L10.5496 53.9382L10.4783 53.6742L10.3184 53.4523L9.10143 54.3292ZM11.1969 60.6329L9.83372 61.2588L11.1969 60.6329ZM19.049 62.9214L19.1423 64.4185L19.049 62.9214ZM23.6235 61.574L25.1232 61.6032L25.1282 61.3448L25.0465 61.0996L23.6235 61.574ZM23.6179 61.8587L22.1182 61.8294L22.0879 63.3804L23.639 63.3585L23.6179 61.8587ZM23.739 63.3571C24.5674 63.3455 25.2294 62.6645 25.2178 61.8361C25.2061 61.0078 24.5251 60.3457 23.6968 60.3574L23.7179 61.8573L23.739 63.3571ZM9.04297 54.248L7.82599 55.1249L7.88445 55.2061L9.10143 54.3292L10.3184 53.4523L10.26 53.3711L9.04297 54.248ZM9.10143 54.3292L7.65327 54.7201C8.41921 57.5574 9.14347 59.7556 9.83372 61.2588L11.1969 60.6329L12.56 60.007C11.9764 58.7359 11.3037 56.7316 10.5496 53.9382L9.10143 54.3292ZM11.1969 60.6329L9.83372 61.2588C10.2486 62.1623 10.8462 62.924 11.6507 63.4746C12.4535 64.024 13.3826 64.3088 14.3792 64.3826L14.49 62.8867L14.6007 61.3908C14.039 61.3492 13.64 61.2007 13.3451 60.9989C13.0519 60.7982 12.7822 60.4907 12.56 60.007L11.1969 60.6329ZM14.49 62.8867L14.3792 64.3826C16.002 64.5028 17.5899 64.5152 19.1423 64.4185L19.049 62.9214L18.9558 61.4243C17.5463 61.5121 16.0949 61.5014 14.6007 61.3908L14.49 62.8867ZM19.049 62.9214L19.1423 64.4185C20.7346 64.3193 22.1565 63.9954 23.2266 63.2883L22.3997 62.0368L21.5728 60.7854C21.1373 61.0731 20.3253 61.339 18.9558 61.4243L19.049 62.9214ZM22.3997 62.0368L23.2266 63.2883C23.3945 63.1774 23.5293 63.0949 23.6341 63.036C23.6859 63.0069 23.7265 62.9858 23.7567 62.9712C23.7876 62.9561 23.8016 62.9508 23.801 62.951C23.8002 62.9513 23.7933 62.9539 23.7808 62.9577C23.7686 62.9615 23.7478 62.9673 23.7195 62.9734C23.6711 62.9837 23.557 63.004 23.4017 62.9926C23.2432 62.981 22.9891 62.9316 22.731 62.7533C22.4559 62.5632 22.2847 62.3012 22.2004 62.0483L23.6235 61.574L25.0465 61.0996C24.9465 60.7995 24.7488 60.501 24.4363 60.2851C24.141 60.0811 23.8388 60.0167 23.6214 60.0007C23.2307 59.972 22.9014 60.0838 22.7396 60.145C22.3712 60.2844 21.9655 60.5259 21.5728 60.7854L22.3997 62.0368ZM23.6235 61.574L22.1238 61.5447L22.1182 61.8294L23.6179 61.8587L25.1176 61.8879L25.1232 61.6032L23.6235 61.574ZM23.6179 61.8587L23.639 63.3585L23.739 63.3571L23.7179 61.8573L23.6968 60.3574L23.5968 60.3588L23.6179 61.8587Z" fill="black"/>
<path d="M10.2542 55.5918C10.9961 55.2231 11.2985 54.3228 10.9297 53.5809C10.561 52.8391 9.66069 52.5367 8.91886 52.9054L9.58654 54.2486L10.2542 55.5918ZM9.497 54.2931L9.19611 55.7626L9.70214 55.8662L10.1647 55.6363L9.497 54.2931ZM5.49625 69.2994L6.4071 68.1077L5.49625 69.2994ZM9.53988 71.1461L9.23174 72.6141L9.53988 71.1461ZM17.8235 73.8403L17.6917 75.3345L17.8235 73.8403ZM19.9133 73.9199H21.4133V73.4305L21.1247 73.0353L19.9133 73.9199ZM19.8171 73.7881L20.2233 72.3441L16.0474 71.1695L18.6057 74.6727L19.8171 73.7881ZM19.5072 75.2591C20.3046 75.4835 21.133 75.0188 21.3573 74.2214C21.5816 73.4239 21.117 72.5956 20.3195 72.3712L19.9133 73.8152L19.5072 75.2591ZM9.58654 54.2486L8.91886 52.9054L8.82931 52.9499L9.497 54.2931L10.1647 55.6363L10.2542 55.5918L9.58654 54.2486ZM9.497 54.2931L9.79789 52.8236C6.93963 52.2384 4.46581 52.1429 2.74747 52.9896L3.41051 54.3351L4.07354 55.6806C4.81768 55.3139 6.40152 55.1904 9.19611 55.7626L9.497 54.2931ZM3.41051 54.3351L2.74747 52.9896C1.89932 53.4076 1.20214 54.0162 0.721699 54.8267C0.246575 55.6282 0.0331054 56.5426 0.0107309 57.5058L1.51033 57.5407L3.00992 57.5755C3.02309 57.0084 3.1441 56.6234 3.30236 56.3564C3.45531 56.0984 3.69045 55.8694 4.07354 55.6806L3.41051 54.3351ZM1.51033 57.5407L0.0107309 57.5058C-0.0262285 59.0969 0.0344089 60.6506 0.193839 62.166L1.68561 62.0091L3.17737 61.8522C3.032 60.4703 2.97579 59.045 3.00992 57.5755L1.51033 57.5407ZM1.68561 62.0091L0.193839 62.166C0.363074 63.7747 0.779853 65.2888 1.45099 66.6979L2.80523 66.0529L4.15948 65.4079C3.64258 64.3226 3.31294 63.1408 3.17737 61.8522L1.68561 62.0091ZM2.80523 66.0529L1.45099 66.6979C2.15664 68.1795 3.2143 69.4433 4.5854 70.4912L5.49625 69.2994L6.4071 68.1077C5.37821 67.3213 4.64186 66.4208 4.15948 65.4079L2.80523 66.0529ZM5.49625 69.2994L4.5854 70.4912C5.96536 71.5459 7.51969 72.2547 9.23174 72.6141L9.53988 71.1461L9.84802 69.6781C8.56854 69.4095 7.42712 68.8872 6.4071 68.1077L5.49625 69.2994ZM9.53988 71.1461L9.23174 72.6141C10.5996 72.9012 11.8776 73.3536 13.0707 73.9694L13.7586 72.6365L14.4466 71.3035C13.0062 70.5601 11.4717 70.0189 9.84802 69.6781L9.53988 71.1461ZM13.7586 72.6365L13.0707 73.9694C14.5501 74.733 16.093 75.1934 17.6917 75.3345L17.8235 73.8403L17.9554 72.3461C16.7676 72.2413 15.6006 71.8992 14.4466 71.3035L13.7586 72.6365ZM17.8235 73.8403L17.6917 75.3345C18.3937 75.3964 18.9466 75.4365 19.3338 75.4513C19.519 75.4584 19.7109 75.4616 19.8757 75.4513C19.944 75.4471 20.0947 75.4362 20.2617 75.3924C20.3342 75.3733 20.5272 75.3193 20.7346 75.1817C20.9382 75.0466 21.4133 74.6439 21.4133 73.9199H19.9133H18.4133C18.4133 73.2046 18.883 72.81 19.0758 72.682C19.2723 72.5517 19.4489 72.5041 19.4997 72.4908C19.5723 72.4717 19.6269 72.4641 19.648 72.4614C19.6731 72.4581 19.6883 72.4572 19.6897 72.4571C19.6915 72.457 19.6731 72.4581 19.6265 72.4578C19.5823 72.4576 19.5235 72.4564 19.448 72.4535C19.1386 72.4417 18.6466 72.4071 17.9554 72.3461L17.8235 73.8403ZM19.9133 73.9199L21.1247 73.0353L21.0285 72.9035L19.8171 73.7881L18.6057 74.6727L18.702 74.8046L19.9133 73.9199ZM19.8171 73.7881L19.4109 75.2321L19.5072 75.2591L19.9133 73.8152L20.3195 72.3712L20.2233 72.3441L19.8171 73.7881Z" fill="black"/>
<path d="M123.897 72.4265C123.145 72.7733 122.816 73.6643 123.163 74.4167C123.51 75.169 124.401 75.4978 125.153 75.151L124.525 73.7888L123.897 72.4265ZM124.616 73.7469L124.321 72.2761L124.148 72.3108L123.988 72.3847L124.616 73.7469ZM130.613 71.6083L129.734 70.3927L130.613 71.6083ZM136.335 65.4931L134.977 64.8568L136.335 65.4931ZM136.77 56.9359L138.27 56.9347L136.77 56.9359ZM130.937 56.4419L132.171 57.2949L130.937 56.4419ZM127.671 63.6035L128.271 64.9784L127.671 63.6035ZM113.033 56.9026L111.994 57.9852L113.033 56.9026ZM109.643 53.991L110.557 52.8013L109.643 53.991ZM102.459 48.6479L103.663 47.7533L102.459 48.6479ZM99.0926 45.7489L98.3951 47.0769L99.0926 45.7489ZM91.007 41.8145L91.5156 40.4033L91.007 41.8145ZM69.0372 37.6451L68.6386 39.0912L69.0372 37.6451ZM64.6155 37.5724L64.2565 36.116L64.6155 37.5724ZM60.2963 38.9084L59.7706 37.5035L60.2963 38.9084ZM51.5914 40.8755L51.3865 39.3896L51.5914 40.8755ZM39.505 46.5784L38.7799 45.2653L39.505 46.5784ZM32.1621 51.6471L31.1772 50.5158L32.1621 51.6471ZM28.7085 54.5198L27.7757 53.3451L28.7085 54.5198ZM23.7074 59.8407L22.2673 59.4208L22.249 59.4837L22.2362 59.5479L23.7074 59.8407ZM23.6003 60.3788L24.6643 61.4361L24.9831 61.1152L25.0714 60.6716L23.6003 60.3788ZM22.4657 59.3925C21.8818 59.9802 21.8849 60.9299 22.4725 61.5138C23.0602 62.0977 24.0099 62.0947 24.5938 61.507L23.5298 60.4498L22.4657 59.3925ZM124.525 73.7888L125.153 75.151L125.244 75.1092L124.616 73.7469L123.988 72.3847L123.897 72.4265L124.525 73.7888ZM124.616 73.7469L124.911 75.2177C127.763 74.6464 130.026 73.884 131.492 72.8239L130.613 71.6083L129.734 70.3927C128.81 71.0614 127.074 71.7247 124.321 72.2761L124.616 73.7469ZM130.613 71.6083L131.492 72.8239C132.74 71.9219 133.895 70.9649 134.955 69.9523L133.919 68.8675L132.883 67.7828C131.927 68.6959 130.878 69.5661 129.734 70.3927L130.613 71.6083ZM133.919 68.8675L134.955 69.9523C136.1 68.8587 137.013 67.581 137.693 66.1294L136.335 65.4931L134.977 64.8568C134.451 65.9788 133.754 66.9507 132.883 67.7828L133.919 68.8675ZM136.335 65.4931L137.693 66.1294C138.415 64.5882 138.681 62.9461 138.497 61.2349L137.005 61.3956L135.514 61.5564C135.641 62.735 135.46 63.8245 134.977 64.8568L136.335 65.4931ZM137.005 61.3956L138.497 61.2349C138.347 59.8457 138.271 58.4124 138.27 56.9347L136.77 56.9359L135.27 56.9371C135.271 58.5159 135.352 60.0559 135.514 61.5564L137.005 61.3956ZM136.77 56.9359L138.27 56.9347C138.269 55.9424 138.024 54.931 137.288 54.1636C136.548 53.3917 135.546 53.1111 134.554 53.0852L134.515 54.5847L134.476 56.0842C134.986 56.0975 135.111 56.2283 135.123 56.2402C135.139 56.2565 135.27 56.401 135.27 56.9371L136.77 56.9359ZM134.515 54.5847L134.554 53.0852C132.526 53.0323 130.863 53.9118 129.703 55.5888L130.937 56.4419L132.171 57.2949C132.778 56.4174 133.5 56.0588 134.476 56.0842L134.515 54.5847ZM130.937 56.4419L129.703 55.5888C128.668 57.0866 128.09 58.7419 127.995 60.5297L129.493 60.6094L130.991 60.6892C131.055 59.4748 131.44 58.3517 132.171 57.2949L130.937 56.4419ZM129.493 60.6094L127.995 60.5297C127.964 61.1017 127.839 61.469 127.696 61.7041C127.563 61.9231 127.373 62.0969 127.071 62.2286L127.671 63.6035L128.271 64.9784C129.103 64.6152 129.785 64.0425 130.259 63.2635C130.723 62.5005 130.941 61.6183 130.991 60.6892L129.493 60.6094ZM127.671 63.6035L127.071 62.2286C126.175 62.6194 125.093 62.82 123.787 62.7823L123.744 64.2816L123.7 65.781C125.361 65.829 126.897 65.5776 128.271 64.9784L127.671 63.6035ZM123.744 64.2816L123.787 62.7823C122.703 62.7509 121.817 62.3568 121.051 61.5536L119.966 62.5886L118.88 63.6237C120.184 64.992 121.817 65.7266 123.7 65.781L123.744 64.2816ZM119.966 62.5886L121.051 61.5536C119.939 60.3871 118.709 59.3546 117.362 58.457L116.53 59.7053L115.698 60.9536C116.862 61.7289 117.922 62.6186 118.88 63.6237L119.966 62.5886ZM116.53 59.7053L117.362 58.457C116.179 57.669 115.082 56.7901 114.071 55.8201L113.033 56.9026L111.994 57.9852C113.135 59.0791 114.37 60.0687 115.698 60.9536L116.53 59.7053ZM113.033 56.9026L114.071 55.8201C112.956 54.7501 111.784 53.7438 110.557 52.8013L109.643 53.991L108.73 55.1806C109.87 56.0563 110.958 56.9911 111.994 57.9852L113.033 56.9026ZM109.643 53.991L110.557 52.8013C109.305 51.8396 107.969 50.9852 106.552 50.238L105.852 51.5649L105.153 52.8919C106.423 53.5612 107.615 54.3242 108.73 55.1806L109.643 53.991ZM105.852 51.5649L106.552 50.238C105.409 49.6358 104.45 48.8123 103.663 47.7533L102.459 48.6479L101.255 49.5425C102.305 50.9563 103.608 52.0775 105.153 52.8919L105.852 51.5649ZM102.459 48.6479L103.663 47.7533C102.614 46.3416 101.321 45.2249 99.7902 44.421L99.0926 45.7489L98.3951 47.0769C99.5155 47.6654 100.466 48.4813 101.255 49.5425L102.459 48.6479ZM99.0926 45.7489L99.7902 44.421C98.468 43.7265 97.1463 43.026 95.8252 42.3195L95.1179 43.6423L94.4106 44.9651C95.7382 45.675 97.0664 46.3789 98.3951 47.0769L99.0926 45.7489ZM95.1179 43.6423L95.8252 42.3195C94.4367 41.5771 92.9999 40.9383 91.5156 40.4033L91.007 41.8145L90.4984 43.2256C91.8465 43.7115 93.1504 44.2912 94.4106 44.9651L95.1179 43.6423ZM91.007 41.8145L91.5156 40.4033C90.005 39.8589 88.4573 39.4712 86.874 39.2408L86.658 40.7251L86.442 42.2095C87.8249 42.4107 89.1766 42.7492 90.4984 43.2256L91.007 41.8145ZM86.658 40.7251L86.874 39.2408C85.4507 39.0336 84.0551 38.7428 82.6867 38.3685L82.2909 39.8154L81.8952 41.2622C83.3832 41.6692 84.8989 41.9849 86.442 42.2095L86.658 40.7251ZM82.2909 39.8154L82.6867 38.3685C81.2682 37.9805 79.8483 37.5768 78.4272 37.1574L78.0026 38.596L77.5779 40.0347C79.0182 40.4597 80.4572 40.8689 81.8952 41.2622L82.2909 39.8154ZM78.0026 38.596L78.4272 37.1574C76.8227 36.6838 75.1652 36.5041 73.4636 36.6139L73.5602 38.1108L73.6567 39.6077C75.0169 39.5199 76.321 39.6637 77.5779 40.0347L78.0026 38.596ZM73.5602 38.1108L73.4636 36.6139C72.1001 36.7018 70.7598 36.564 69.4358 36.199L69.0372 37.6451L68.6386 39.0912C70.2835 39.5446 71.9585 39.7172 73.6567 39.6077L73.5602 38.1108ZM69.0372 37.6451L69.4358 36.199C67.7095 35.7232 65.9747 35.6924 64.2565 36.116L64.6155 37.5724L64.9745 39.0288C66.183 38.7309 67.396 38.7487 68.6386 39.0912L69.0372 37.6451ZM64.6155 37.5724L64.2565 36.116C62.7365 36.4907 61.2411 36.9532 59.7706 37.5035L60.2963 38.9084L60.822 40.3132C62.1838 39.8036 63.5679 39.3755 64.9745 39.0288L64.6155 37.5724ZM60.2963 38.9084L59.7706 37.5035C58.4284 38.0057 57.0742 38.3922 55.7075 38.664L56.0001 40.1352L56.2926 41.6064C57.8219 41.3022 59.3319 40.8708 60.822 40.3132L60.2963 38.9084ZM56.0001 40.1352L55.7075 38.664C54.2891 38.9461 52.8488 39.188 51.3865 39.3896L51.5914 40.8755L51.7964 42.3615C53.3162 42.1519 54.815 41.9002 56.2926 41.6064L56.0001 40.1352ZM51.5914 40.8755L51.3865 39.3896C49.6753 39.6256 48.0906 40.2195 46.648 41.166L47.4709 42.4202L48.2938 43.6743C49.3632 42.9726 50.5255 42.5367 51.7964 42.3615L51.5914 40.8755ZM47.4709 42.4202L46.648 41.166C45.4594 41.946 44.2162 42.6254 42.9177 43.2048L43.5289 44.5746L44.1401 45.9445C45.5857 45.2995 46.9705 44.5426 48.2938 43.6743L47.4709 42.4202ZM43.5289 44.5746L42.9177 43.2048C41.507 43.8342 40.1277 44.5211 38.7799 45.2653L39.505 46.5784L40.2301 47.8915C41.5033 47.1884 42.8066 46.5394 44.1401 45.9445L43.5289 44.5746ZM39.505 46.5784L38.7799 45.2653C37.4291 46.0112 36.1215 46.8144 34.8574 47.6748L35.7014 48.9148L36.5454 50.1548C37.7318 49.3473 38.96 48.5929 40.2301 47.8915L39.505 46.5784ZM35.7014 48.9148L34.8574 47.6748C33.5824 48.5426 32.3556 49.4897 31.1772 50.5158L32.1621 51.6471L33.1471 52.7784C34.2373 51.8292 35.37 50.9548 36.5454 50.1548L35.7014 48.9148ZM32.1621 51.6471L31.1772 50.5158C30.0598 51.4886 28.926 52.4317 27.7757 53.3451L28.7085 54.5198L29.6413 55.6945C30.8273 54.7527 31.9959 53.7807 33.1471 52.7784L32.1621 51.6471ZM28.7085 54.5198L27.7757 53.3451C26.547 54.3208 25.3948 55.3903 24.3195 56.5528L25.4207 57.5714L26.5218 58.5899C27.4942 57.5387 28.5339 56.5738 29.6413 55.6945L28.7085 54.5198ZM25.4207 57.5714L24.3195 56.5528C23.791 57.1242 23.3551 57.6309 23.0274 58.065C22.7345 58.453 22.4097 58.9324 22.2673 59.4208L23.7074 59.8407L25.1474 60.2606C25.1234 60.3429 25.1434 60.2411 25.4216 59.8727C25.6649 59.5504 26.0266 59.1254 26.5218 58.5899L25.4207 57.5714ZM23.7074 59.8407L22.2362 59.5479L22.1291 60.086L23.6003 60.3788L25.0714 60.6716L25.1785 60.1335L23.7074 59.8407ZM23.6003 60.3788L22.5362 59.3216L22.4657 59.3925L23.5298 60.4498L24.5938 61.507L24.6643 61.4361L23.6003 60.3788Z" fill="black"/>
<path d="M63.9884 103.437C63.9915 102.609 63.3225 101.935 62.4941 101.932C61.6656 101.929 60.9915 102.598 60.9884 103.426L62.4884 103.432L63.9884 103.437ZM62.488 103.532L60.988 103.526L60.9878 103.576L60.9909 103.626L62.488 103.532ZM62.4046 119.079L60.9104 118.947L62.4046 119.079ZM62.0894 123.547L60.5914 123.469L62.0894 123.547ZM61.6484 128.038L60.1636 127.824L61.6484 128.038ZM58.2808 136.339L59.5203 137.184L58.2808 136.339ZM55.2542 149.29L56.6894 149.726L55.2542 149.29ZM54.9935 153.719L53.5177 153.987L54.9935 153.719ZM55.8414 158.195L54.3696 158.484L55.8414 158.195ZM57.9273 162.038L56.881 163.113L57.9273 162.038ZM63.9478 168.564L63.1499 169.834L63.9478 168.564ZM76.3811 166.606L75.3859 165.484L76.3811 166.606ZM78.8104 162.962L77.3888 162.483L78.8104 162.962ZM80.1929 158.714L78.762 158.264L80.1929 158.714ZM81.1633 154.377L82.6495 154.58L81.1633 154.377ZM81.5991 145.433L83.0894 145.604L81.5991 145.433ZM74.9143 103.717L75.0556 102.223L74.7896 102.198L74.5313 102.266L74.9143 103.717ZM75.1949 103.743L75.0536 105.237L76.7405 105.396L76.6944 103.702L75.1949 103.743ZM76.6916 103.603C76.6691 102.774 75.9795 102.121 75.1514 102.144C74.3232 102.166 73.6702 102.856 73.6928 103.684L75.1922 103.643L76.6916 103.603ZM62.4884 103.432L60.9884 103.426L60.988 103.526L62.488 103.532L63.988 103.537L63.9884 103.437L62.4884 103.432ZM62.488 103.532L60.9909 103.626C61.1728 106.518 61.1804 108.619 61.0393 109.981L62.5313 110.136L64.0233 110.29C64.1908 108.673 64.1695 106.371 63.985 103.437L62.488 103.532ZM62.5313 110.136L61.0393 109.981C60.8762 111.556 60.848 113.133 60.9549 114.71L62.4514 114.609L63.948 114.508C63.8527 113.101 63.8778 111.695 64.0233 110.29L62.5313 110.136ZM62.4514 114.609L60.9549 114.71C61.0506 116.125 61.0358 117.537 60.9104 118.947L62.4046 119.079L63.8987 119.212C64.0379 117.647 64.0543 116.078 63.948 114.508L62.4514 114.609ZM62.4046 119.079L60.9104 118.947C60.7765 120.453 60.6702 121.96 60.5914 123.469L62.0894 123.547L63.5873 123.625C63.6642 122.153 63.768 120.682 63.8987 119.212L62.4046 119.079ZM62.0894 123.547L60.5914 123.469C60.516 124.913 60.3735 126.365 60.1636 127.824L61.6484 128.038L63.1331 128.251C63.3556 126.704 63.5071 125.162 63.5873 123.625L62.0894 123.547ZM61.6484 128.038L60.1636 127.824C59.9657 129.201 59.5981 130.523 59.0606 131.793L60.442 132.378L61.8234 132.962C62.4621 131.453 62.8987 129.882 63.1331 128.251L61.6484 128.038ZM60.442 132.378L59.0606 131.793C58.5112 133.091 57.8384 134.324 57.0413 135.494L58.2808 136.339L59.5203 137.184C60.4286 135.851 61.1965 134.443 61.8234 132.962L60.442 132.378ZM58.2808 136.339L57.0413 135.494C56.1088 136.862 55.387 138.333 54.8784 139.901L56.3053 140.364L57.7322 140.826C58.1523 139.531 58.7475 138.318 59.5203 137.184L58.2808 136.339ZM56.3053 140.364L54.8784 139.901C54.3541 141.518 54.1516 143.19 54.2686 144.905L55.7651 144.803L57.2616 144.701C57.1703 143.361 57.328 142.073 57.7322 140.826L56.3053 140.364ZM55.7651 144.803L54.2686 144.905C54.3604 146.251 54.2108 147.564 53.819 148.853L55.2542 149.29L56.6894 149.726C57.1871 148.088 57.3782 146.41 57.2616 144.701L55.7651 144.803ZM55.2542 149.29L53.819 148.853C53.3056 150.543 53.2036 152.261 53.5177 153.987L54.9935 153.719L56.4693 153.45C56.2415 152.198 56.3132 150.964 56.6894 149.726L55.2542 149.29ZM54.9935 153.719L53.5177 153.987C53.79 155.484 54.074 156.983 54.3696 158.484L55.8414 158.195L57.3131 157.905C57.0203 156.417 56.739 154.932 56.4693 153.45L54.9935 153.719ZM55.8414 158.195L54.3696 158.484C54.723 160.28 55.5674 161.834 56.881 163.113L57.9273 162.038L58.9736 160.963C58.0945 160.107 57.5483 159.1 57.3131 157.905L55.8414 158.195ZM57.9273 162.038L56.881 163.113C57.9026 164.107 58.7919 165.179 59.5515 166.328L60.8027 165.5L62.0539 164.673C61.1725 163.34 60.1448 162.103 58.9736 160.963L57.9273 162.038ZM60.8027 165.5L59.5515 166.328C60.4915 167.749 61.6953 168.921 63.1499 169.834L63.9478 168.564L64.7457 167.294C63.648 166.604 62.7551 165.733 62.0539 164.673L60.8027 165.5ZM63.9478 168.564L63.1499 169.834C64.7275 170.825 66.4679 171.193 68.3068 170.92L68.0862 169.436L67.8656 167.952C66.739 168.12 65.7205 167.906 64.7457 167.294L63.9478 168.564ZM68.0862 169.436L68.3068 170.92C69.8256 170.694 71.3291 170.414 72.8173 170.079L72.4885 168.616L72.1597 167.152C70.7436 167.47 69.3123 167.737 67.8656 167.952L68.0862 169.436ZM72.4885 168.616L72.8173 170.079C74.5235 169.696 76.0488 168.906 77.3763 167.728L76.3811 166.606L75.3859 165.484C74.4274 166.334 73.3577 166.883 72.1597 167.152L72.4885 168.616ZM76.3811 166.606L77.3763 167.728C78.7105 166.545 79.67 165.11 80.232 163.44L78.8104 162.962L77.3888 162.483C76.9977 163.645 76.3376 164.64 75.3859 165.484L76.3811 166.606ZM78.8104 162.962L80.232 163.44C80.7118 162.015 81.1758 160.59 81.6239 159.164L80.1929 158.714L78.762 158.264C78.3199 159.671 77.8622 161.077 77.3888 162.483L78.8104 162.962ZM80.1929 158.714L81.6239 159.164C82.0944 157.667 82.4363 156.139 82.6495 154.58L81.1633 154.377L79.6772 154.173C79.4867 155.566 79.1817 156.929 78.762 158.264L80.1929 158.714ZM81.1633 154.377L82.6495 154.58C82.8625 153.023 82.9471 151.456 82.9034 149.881L81.404 149.922L79.9046 149.964C79.9437 151.376 79.8679 152.779 79.6772 154.173L81.1633 154.377ZM81.404 149.922L82.9034 149.881C82.864 148.459 82.9259 147.033 83.0894 145.604L81.5991 145.433L80.1088 145.263C79.9294 146.832 79.8612 148.399 79.9046 149.964L81.404 149.922ZM81.5991 145.433L83.0894 145.604C83.2864 143.881 83.0999 142.193 82.5312 140.558L81.1144 141.05L79.6976 141.543C80.1181 142.752 80.2548 143.987 80.1088 145.263L81.5991 145.433ZM81.1144 141.05L82.5312 140.558C82.077 139.252 81.793 137.922 81.6774 136.565L80.1828 136.692L78.6882 136.82C78.8254 138.428 79.1624 140.004 79.6976 141.543L81.1144 141.05ZM80.1828 136.692L81.6774 136.565C81.5436 134.994 81.2728 133.444 80.8656 131.914L79.4161 132.3L77.9666 132.686C78.3289 134.047 78.5694 135.425 78.6882 136.82L80.1828 136.692ZM79.4161 132.3L80.8656 131.914C80.5167 130.603 80.3518 129.261 80.372 127.882L78.8721 127.86L77.3723 127.839C77.3482 129.489 77.546 131.106 77.9666 132.686L79.4161 132.3ZM78.8721 127.86L80.372 127.882C80.3967 126.186 80.1194 124.54 79.5403 122.951L78.1311 123.465L76.7218 123.979C77.1751 125.222 77.3918 126.506 77.3723 127.839L78.8721 127.86ZM78.1311 123.465L79.5403 122.951C79.0256 121.539 78.5203 120.135 78.0245 118.739L76.611 119.241L75.1974 119.743C75.6961 121.147 76.2042 122.559 76.7218 123.979L78.1311 123.465ZM76.611 119.241L78.0245 118.739C77.5442 117.387 77.1327 116.011 76.7898 114.611L75.3329 114.968L73.8759 115.325C74.2428 116.822 74.6832 118.295 75.1974 119.743L76.611 119.241ZM75.3329 114.968L76.7898 114.611C76.4697 113.304 76.3409 111.968 76.4048 110.598L74.9065 110.528L73.4081 110.458C73.3309 112.111 73.4864 113.735 73.8759 115.325L75.3329 114.968ZM74.9065 110.528L76.4048 110.598C76.4784 109.022 76.4499 107.456 76.3191 105.9L74.8243 106.026L73.3296 106.151C73.4494 107.576 73.4757 109.011 73.4081 110.458L74.9065 110.528ZM74.8243 106.026L76.3191 105.9C76.2577 105.17 76.2404 104.679 76.2517 104.389C76.2578 104.233 76.2699 104.214 76.2551 104.27C76.2484 104.296 76.2149 104.422 76.1159 104.577C76.0162 104.733 75.7657 105.043 75.2973 105.167L74.9143 103.717L74.5313 102.266C74.0165 102.402 73.7245 102.748 73.5882 102.961C73.4526 103.173 73.3874 103.379 73.3537 103.507C73.2851 103.768 73.2628 104.044 73.254 104.272C73.2353 104.752 73.2656 105.391 73.3296 106.151L74.8243 106.026ZM74.9143 103.717L74.7729 105.21L75.0536 105.237L75.1949 103.743L75.3363 102.25L75.0556 102.223L74.9143 103.717ZM75.1949 103.743L76.6944 103.702L76.6916 103.603L75.1922 103.643L73.6928 103.684L73.6955 103.784L75.1949 103.743Z" fill="black"/>
<path d="M23.0579 47.3894C22.3933 47.8839 22.2553 48.8236 22.7498 49.4882C23.2443 50.1529 24.184 50.2908 24.8486 49.7963L23.9533 48.5929L23.0579 47.3894ZM24.0335 48.5332L24.9289 49.7366L25.0721 49.6301L25.1864 49.4928L24.0335 48.5332ZM28.9308 44.2566L28.338 42.8787L28.9308 44.2566ZM33.0095 42.3362L32.3245 41.0017L33.0095 42.3362ZM36.8549 40.04L37.7047 41.2761L36.8549 40.04ZM40.8398 33.3906L39.3988 33.8069L40.8398 33.3906ZM38.3537 30.1523L39.1618 28.8885L38.3537 30.1523ZM31.0335 25.0218L32.1924 24.0695L31.0335 25.0218ZM25.8499 46.7747L26.7032 48.0083L26.8186 47.9285L26.9173 47.8285L25.8499 46.7747ZM26.1975 46.4226L26.9923 45.1504L25.9738 44.5142L25.1301 45.3687L26.1975 46.4226ZM25.4875 47.7477C26.1901 48.1866 27.1155 47.9729 27.5545 47.2703C27.9934 46.5677 27.7797 45.6424 27.0771 45.2034L26.2823 46.4756L25.4875 47.7477ZM23.9533 48.5929L24.8486 49.7963L24.9289 49.7366L24.0335 48.5332L23.1381 47.3297L23.0579 47.3894L23.9533 48.5929ZM24.0335 48.5332L25.1864 49.4928C27.0274 47.281 28.4727 46.0866 29.5235 45.6345L28.9308 44.2566L28.338 42.8787C26.6107 43.6218 24.7911 45.2784 22.8806 47.5736L24.0335 48.5332ZM28.9308 44.2566L29.5235 45.6345C30.9435 45.0236 32.3338 44.369 33.6944 43.6706L33.0095 42.3362L32.3245 41.0017C31.025 41.6687 29.6962 42.2944 28.338 42.8787L28.9308 44.2566ZM33.0095 42.3362L33.6944 43.6706C35.0815 42.9587 36.4184 42.1604 37.7047 41.2761L36.8549 40.04L36.0051 38.8039C34.8242 39.6158 33.5975 40.3483 32.3245 41.0017L33.0095 42.3362ZM36.8549 40.04L37.7047 41.2761C39.0522 40.3497 40.2296 39.2693 41.2301 38.0347L40.0647 37.0903L38.8993 36.146C38.0873 37.148 37.1249 38.0341 36.0051 38.8039L36.8549 40.04ZM40.0647 37.0903L41.2301 38.0347C42.4358 36.5469 42.8107 34.808 42.2809 32.9742L40.8398 33.3906L39.3988 33.8069C39.6479 34.6694 39.5061 35.3971 38.8993 36.146L40.0647 37.0903ZM40.8398 33.3906L42.2809 32.9742C41.7826 31.2496 40.7125 29.8801 39.1618 28.8885L38.3537 30.1523L37.5457 31.416C38.5308 32.0459 39.118 32.8353 39.3988 33.8069L40.8398 33.3906ZM38.3537 30.1523L39.1618 28.8885C37.8648 28.0593 36.5348 27.2718 35.1718 26.5261L34.4519 27.842L33.7319 29.158C35.0356 29.8712 36.3069 30.6239 37.5457 31.416L38.3537 30.1523ZM34.4519 27.842L35.1718 26.5261C34.0031 25.8867 33.0137 25.069 32.1924 24.0695L31.0335 25.0218L29.8746 25.9741C30.9444 27.276 32.2339 28.3384 33.7319 29.158L34.4519 27.842ZM31.0335 25.0218L32.1924 24.0695C31.2264 22.8939 30.2235 21.7507 29.1838 20.6398L28.0887 21.6648L26.9935 22.6898C27.9892 23.7536 28.9495 24.8484 29.8746 25.9741L31.0335 25.0218ZM28.0887 21.6648L29.1838 20.6398C28.0362 19.4137 26.7051 18.4476 25.197 17.751L24.568 19.1127L23.9391 20.4745C25.0898 21.006 26.1058 21.7413 26.9935 22.6898L28.0887 21.6648ZM24.568 19.1127L25.197 17.751C24.3848 17.3759 23.2578 17.0894 22.2324 17.7078C21.2401 18.3063 20.9244 19.4118 20.8224 20.3024L22.3126 20.4731L23.8029 20.6438C23.8183 20.5089 23.8383 20.403 23.8588 20.3221C23.8795 20.2409 23.8987 20.1928 23.9096 20.1695C23.9203 20.1467 23.9197 20.1548 23.899 20.1793C23.8769 20.2056 23.8383 20.2427 23.7818 20.2768C23.7249 20.3111 23.6683 20.3311 23.6218 20.3408C23.5777 20.35 23.5554 20.3473 23.5639 20.3479C23.5734 20.3487 23.609 20.3527 23.6749 20.372C23.7405 20.3912 23.828 20.4232 23.9391 20.4745L24.568 19.1127ZM22.3126 20.4731L20.8224 20.3024C20.6427 21.8712 20.5411 23.4262 20.5179 24.9672L22.0177 24.9898L23.5176 25.0123C23.5392 23.5729 23.6342 22.1168 23.8029 20.6438L22.3126 20.4731ZM22.0177 24.9898L20.5179 24.9672C20.4967 26.3802 20.3669 27.7825 20.1287 29.1749L21.6072 29.4279L23.0857 29.6809C23.35 28.1362 23.494 26.5797 23.5176 25.0123L22.0177 24.9898ZM21.6072 29.4279L20.1287 29.1749C19.8689 30.6927 19.6855 32.2202 19.5784 33.757L21.0748 33.8613L22.5711 33.9655C22.6713 32.5284 22.8428 31.1002 23.0857 29.6809L21.6072 29.4279ZM21.0748 33.8613L19.5784 33.757C19.4686 35.3323 19.4981 36.9095 19.6666 38.4874L21.1581 38.3282L22.6497 38.1689C22.4997 36.765 22.4737 35.3642 22.5711 33.9655L21.0748 33.8613ZM21.1581 38.3282L19.6666 38.4874C19.8072 39.8045 19.7214 41.1296 19.4035 42.4699L20.8631 42.816L22.3226 43.1621C22.7166 41.5005 22.8274 39.8338 22.6497 38.1689L21.1581 38.3282ZM20.8631 42.816L19.4035 42.4699C18.9847 44.2362 19.0524 45.9972 19.607 47.7225L21.035 47.2635L22.4631 46.8045C22.0765 45.6018 22.0296 44.3977 22.3226 43.1621L20.8631 42.816ZM21.035 47.2635L19.607 47.7225C19.8881 48.5971 20.4158 49.5906 21.4737 50.0078C22.568 50.4392 23.6255 50.0248 24.3957 49.525L23.5791 48.2667L22.7626 47.0084C22.5539 47.1438 22.4378 47.1798 22.4053 47.1871C22.3931 47.1898 22.4073 47.1851 22.4423 47.1871C22.4791 47.1891 22.5256 47.1977 22.5742 47.2169C22.6789 47.2582 22.7033 47.3104 22.6684 47.2628C22.6274 47.2069 22.5487 47.0709 22.4631 46.8045L21.035 47.2635ZM23.5791 48.2667L24.3957 49.525C25.6137 48.7346 26.3924 48.2233 26.7032 48.0083L25.8499 46.7747L24.9966 45.5411C24.7307 45.7249 23.9956 46.2083 22.7626 47.0084L23.5791 48.2667ZM25.8499 46.7747L26.9173 47.8285L27.2649 47.4764L26.1975 46.4226L25.1301 45.3687L24.7824 45.7208L25.8499 46.7747ZM26.1975 46.4226L25.4027 47.6947L25.4875 47.7477L26.2823 46.4756L27.0771 45.2034L26.9923 45.1504L26.1975 46.4226Z" fill="black"/>
<path d="M54.2855 26.747C54.0308 27.5353 54.4634 28.3808 55.2517 28.6355C56.04 28.8902 56.8856 28.4576 57.1402 27.6693L55.7129 27.2082L54.2855 26.747ZM55.7436 27.113L57.171 27.5742L57.2217 27.4173L57.2371 27.2531L55.7436 27.113ZM56.8067 20.5448L55.3693 20.1159L56.8067 20.5448ZM58.7408 16.4999L59.9757 17.3514L58.7408 16.4999ZM65.8522 5.10787L64.4947 4.46974V4.46974L65.8522 5.10787ZM68.7169 1.91156L67.9375 0.629971L68.7169 1.91156ZM71.7762 2.86678L70.4588 3.58403L71.7762 2.86678ZM74.9162 27.1564L75.1618 25.6767L74.9162 27.1564ZM70.4877 26.3274L70.1819 27.7959L70.4877 26.3274ZM66.008 26.0199L66.1109 27.5164L66.008 26.0199ZM61.6057 26.9659L61.0867 25.5585L61.6057 26.9659ZM57.6622 27.6166L57.5458 29.1121L57.6622 27.6166ZM55.8938 27.66L54.4146 27.9089L54.4758 28.2728L54.6989 28.5667L55.8938 27.66ZM56.0239 27.8315L56.2023 29.3208L58.801 29.0096L57.2188 26.9247L56.0239 27.8315ZM55.7462 26.354C54.9237 26.4525 54.3367 27.1992 54.4353 28.0218C54.5338 28.8443 55.2805 29.4312 56.103 29.3327L55.9246 27.8434L55.7462 26.354ZM55.7129 27.2082L57.1402 27.6693L57.171 27.5742L55.7436 27.113L54.3163 26.6519L54.2855 26.747L55.7129 27.2082ZM55.7436 27.113L57.2371 27.2531C57.5088 24.3565 57.8527 22.2856 58.2441 20.9736L56.8067 20.5448L55.3693 20.1159C54.8915 21.7177 54.5266 24.0256 54.2502 26.9729L55.7436 27.113ZM56.8067 20.5448L58.2441 20.9736C58.6342 19.6658 59.211 18.4604 59.9757 17.3514L58.7408 16.4999L57.5059 15.6485C56.561 17.0188 55.8484 18.5099 55.3693 20.1159L56.8067 20.5448ZM58.7408 16.4999L59.9757 17.3514C60.8698 16.0546 61.6686 14.7041 62.3716 13.3003L61.0304 12.6286L59.6891 11.9569C59.0488 13.2356 58.3212 14.466 57.5059 15.6485L58.7408 16.4999ZM61.0304 12.6286L62.3716 13.3003C62.993 12.0593 63.7437 10.9043 64.6248 9.83341L63.4665 8.88039L62.3081 7.92737C61.2844 9.17166 60.411 10.5155 59.6891 11.9569L61.0304 12.6286ZM63.4665 8.88039L64.6248 9.83341C65.6564 8.57949 66.5186 7.21619 67.2097 5.746L65.8522 5.10787L64.4947 4.46974C63.9096 5.71441 63.1812 6.86613 62.3081 7.92737L63.4665 8.88039ZM65.8522 5.10787L67.2097 5.746C67.7235 4.65296 68.4784 3.81226 69.4964 3.19315L68.7169 1.91156L67.9375 0.629971C66.412 1.55773 65.2571 2.8479 64.4947 4.46974L65.8522 5.10787ZM68.7169 1.91156L69.4964 3.19315C69.7035 3.06718 69.8414 3.02221 69.9156 3.00748C69.951 3.00045 69.9709 3.00043 69.9784 3.00075C69.9852 3.00103 69.9874 3.00178 69.9885 3.00211C69.9898 3.00254 69.9991 3.00547 70.0175 3.01681C70.0365 3.02858 70.068 3.05111 70.1103 3.09209C70.198 3.17683 70.3195 3.32827 70.4588 3.58403L71.7762 2.86678L73.0936 2.14954C72.6155 1.27139 71.9147 0.460728 70.8826 0.138462C69.8188 -0.193689 68.7913 0.110692 67.9375 0.629971L68.7169 1.91156ZM71.7762 2.86678L70.4588 3.58403C71.159 4.87022 71.6326 6.16678 71.8908 7.47638L73.3625 7.1862L74.8341 6.89602C74.5129 5.26691 73.9289 3.68386 73.0936 2.14954L71.7762 2.86678ZM73.3625 7.1862L71.8908 7.47638C72.1737 8.91099 72.4069 10.3613 72.5904 11.8274L74.0788 11.6411L75.5672 11.4548C75.375 9.91977 75.1307 8.40014 74.8341 6.89602L73.3625 7.1862ZM74.0788 11.6411L72.5904 11.8274C72.804 13.5343 73.3551 15.1372 74.2373 16.6244L75.5274 15.8592L76.8175 15.0939C76.1439 13.9582 75.7292 12.7491 75.5672 11.4548L74.0788 11.6411ZM75.5274 15.8592L74.2373 16.6244C74.9796 17.8758 75.6173 19.1496 76.1516 20.4461L77.5384 19.8745L78.9253 19.303C78.3341 17.8686 77.6312 16.4655 76.8175 15.0939L75.5274 15.8592ZM77.5384 19.8745L76.1516 20.4461C76.6715 21.7078 77.054 23.034 77.2975 24.4274L78.7751 24.1691L80.2527 23.9109C79.9728 22.309 79.5308 20.7722 78.9253 19.303L77.5384 19.8745ZM78.7751 24.1691L77.2975 24.4274C77.4121 25.083 77.3941 25.4696 77.3505 25.6632C77.3165 25.8146 77.3038 25.7191 77.4311 25.6501L78.1454 26.9692L78.8596 28.2882C79.6685 27.8502 80.1015 27.1035 80.2774 26.3215C80.4438 25.5818 80.3999 24.7529 80.2527 23.9109L78.7751 24.1691ZM78.1454 26.9692L77.4311 25.6501C77.2115 25.769 76.5643 25.9095 75.1618 25.6767L74.9162 27.1564L74.6705 28.6362C76.2105 28.8918 77.716 28.9074 78.8596 28.2882L78.1454 26.9692ZM74.9162 27.1564L75.1618 25.6767C73.711 25.4358 72.255 25.1632 70.7936 24.8589L70.4877 26.3274L70.1819 27.7959C71.6827 28.1084 73.1789 28.3885 74.6705 28.6362L74.9162 27.1564ZM70.4877 26.3274L70.7936 24.8589C69.1785 24.5226 67.5478 24.4106 65.9051 24.5235L66.008 26.0199L66.1109 27.5164C67.479 27.4224 68.8348 27.5153 70.1819 27.7959L70.4877 26.3274ZM66.008 26.0199L65.9051 24.5235C64.2561 24.6368 62.6486 24.9826 61.0867 25.5585L61.6057 26.9659L62.1247 28.3733C63.4217 27.895 64.7491 27.61 66.1109 27.5164L66.008 26.0199ZM61.6057 26.9659L61.0867 25.5585C59.8079 26.0301 58.713 26.1938 57.7786 26.1211L57.6622 27.6166L57.5458 29.1121C59.0104 29.2261 60.5445 28.956 62.1247 28.3733L61.6057 26.9659ZM57.6622 27.6166L57.7786 26.1211C57.1688 26.0736 56.6585 26.0487 56.2836 26.0579C56.1144 26.062 55.8742 26.0742 55.6422 26.13C55.5437 26.1537 55.2908 26.2194 55.0362 26.4033C54.7276 26.6262 54.2867 27.1496 54.4146 27.9089L55.8938 27.66L57.3729 27.411C57.4244 27.7165 57.3781 28.0368 57.2323 28.3216C57.098 28.5842 56.916 28.7462 56.7931 28.835C56.5715 28.9951 56.3706 29.0404 56.3432 29.0469C56.2534 29.0685 56.2317 29.06 56.3572 29.057C56.5718 29.0517 56.9561 29.0662 57.5458 29.1121L57.6622 27.6166ZM55.8938 27.66L54.6989 28.5667L54.829 28.7383L56.0239 27.8315L57.2188 26.9247L57.0886 26.7532L55.8938 27.66ZM56.0239 27.8315L55.8455 26.3421L55.7462 26.354L55.9246 27.8434L56.103 29.3327L56.2023 29.3208L56.0239 27.8315Z" fill="black"/>
<path d="M95.6267 30.2819C94.9858 30.8069 94.8918 31.7519 95.4167 32.3928C95.9416 33.0337 96.8867 33.1277 97.5276 32.6028L96.5771 31.4424L95.6267 30.2819ZM96.6545 31.379L97.605 32.5394L97.6583 32.4958L97.7073 32.4474L96.6545 31.379ZM105.289 24.6594L105.993 25.9841L105.289 24.6594ZM116.372 19.346L115.879 20.7626L116.372 19.346ZM118.57 22.0283L120.008 21.6014L118.57 22.0283ZM118.826 26.3862L117.347 26.134V26.134L118.826 26.3862ZM118.092 30.8124L119.572 31.0512L118.092 30.8124ZM117.813 39.772L116.339 39.4975V39.4975L117.813 39.772ZM116.641 43.594L115.283 42.9562L116.641 43.594ZM114.233 43.7425L115.235 42.626L114.233 43.7425ZM110.604 41.1613L109.874 42.4718L110.604 41.1613ZM106.987 38.5248L105.961 39.6186L106.987 38.5248ZM103.605 35.6074L104.536 34.4314L103.605 35.6074ZM100.12 32.8119L101.066 31.6477L100.12 32.8119ZM98.0105 31.4225L97.9312 29.9246L97.7736 29.933L97.6212 29.9739L98.0105 31.4225ZM97.7164 31.5016L96.8283 32.7104L97.4094 33.1373L98.1057 32.9502L97.7164 31.5016ZM98.5239 30.2335C97.8563 29.7431 96.9174 29.8867 96.427 30.5543C95.9365 31.2219 96.0801 32.1607 96.7477 32.6512L97.6358 31.4424L98.5239 30.2335ZM96.5771 31.4424L97.5276 32.6028L97.605 32.5394L96.6545 31.379L95.7041 30.2186L95.6267 30.2819L96.5771 31.4424ZM96.6545 31.379L97.7073 32.4474C99.7662 30.4186 101.337 29.0227 102.442 28.2134L101.556 27.0032L100.67 25.793C99.3826 26.7356 97.6858 28.2569 95.6017 30.3106L96.6545 31.379ZM101.556 27.0032L102.442 28.2134C103.581 27.3793 104.765 26.6365 105.993 25.9841L105.289 24.6594L104.585 23.3347C103.228 24.0555 101.923 24.8751 100.67 25.793L101.556 27.0032ZM105.289 24.6594L105.993 25.9841C107.313 25.2826 108.625 24.5315 109.929 23.731L109.144 22.4528L108.359 21.1746C107.107 21.9432 105.849 22.6632 104.585 23.3347L105.289 24.6594ZM109.144 22.4528L109.929 23.731C111.22 22.938 112.498 22.1246 113.761 21.2908L112.935 20.0389L112.108 18.787C110.872 19.6027 109.623 20.3985 108.359 21.1746L109.144 22.4528ZM112.935 20.0389L113.761 21.2908C114.77 20.6249 115.424 20.6042 115.879 20.7626L116.372 19.346L116.865 17.9294C115.236 17.3623 113.599 17.8035 112.108 18.787L112.935 20.0389ZM116.372 19.346L115.879 20.7626C116.316 20.915 116.794 21.3174 117.132 22.4551L118.57 22.0283L120.008 21.6014C119.499 19.8884 118.512 18.5027 116.865 17.9294L116.372 19.346ZM118.57 22.0283L117.132 22.4551C117.489 23.658 117.561 24.8783 117.347 26.134L118.826 26.3862L120.304 26.6384C120.595 24.9343 120.497 23.2492 120.008 21.6014L118.57 22.0283ZM118.826 26.3862L117.347 26.134C117.094 27.6185 116.849 29.0983 116.611 30.5737L118.092 30.8124L119.572 31.0512C119.809 29.5849 120.053 28.114 120.304 26.6384L118.826 26.3862ZM118.092 30.8124L116.611 30.5737C116.352 32.1794 116.312 33.808 116.488 35.4558L117.979 35.2965L119.471 35.1372C119.322 33.7478 119.357 32.3871 119.572 31.0512L118.092 30.8124ZM117.979 35.2965L116.488 35.4558C116.635 36.8333 116.584 38.1789 116.339 39.4975L117.813 39.772L119.288 40.0465C119.588 38.4348 119.648 36.7968 119.471 35.1372L117.979 35.2965ZM117.813 39.772L116.339 39.4975C116.084 40.8664 115.726 42.0132 115.283 42.9562L116.641 43.594L117.999 44.2317C118.573 43.0091 118.997 41.6079 119.288 40.0465L117.813 39.772ZM116.641 43.594L115.283 42.9562C115.214 43.1045 115.18 43.115 115.224 43.0771C115.25 43.0551 115.295 43.0223 115.361 42.9944C115.429 42.9659 115.499 42.9502 115.565 42.9461C115.695 42.9381 115.738 42.9777 115.663 42.9407C115.586 42.903 115.444 42.8133 115.235 42.626L114.233 43.7425L113.232 44.8589C113.853 45.4165 114.722 46.0038 115.75 45.9404C116.94 45.867 117.637 45.0026 117.999 44.2317L116.641 43.594ZM114.233 43.7425L115.235 42.626C114.053 41.5654 112.752 40.6405 111.334 39.8508L110.604 41.1613L109.874 42.4718C111.103 43.1559 112.221 43.9517 113.232 44.8589L114.233 43.7425ZM110.604 41.1613L111.334 39.8508C110.116 39.1728 109.01 38.3664 108.014 37.431L106.987 38.5248L105.961 39.6186C107.139 40.7248 108.445 41.6761 109.874 42.4718L110.604 41.1613ZM106.987 38.5248L108.014 37.431C106.895 36.3816 105.736 35.3817 104.536 34.4314L103.605 35.6074L102.674 36.7833C103.808 37.6814 104.903 38.6265 105.961 39.6186L106.987 38.5248ZM103.605 35.6074L104.536 34.4314C103.374 33.5111 102.217 32.5832 101.066 31.6477L100.12 32.8119L99.1739 33.9761C100.335 34.9195 101.502 35.8552 102.674 36.7833L103.605 35.6074ZM100.12 32.8119L101.066 31.6477C100.473 31.1664 99.9634 30.7795 99.5502 30.5073C99.3458 30.3727 99.1324 30.2443 98.9232 30.1455C98.7761 30.0761 98.393 29.9002 97.9312 29.9246L98.0105 31.4225L98.0897 32.9204C97.8895 32.931 97.7478 32.8923 97.7055 32.88C97.6524 32.8645 97.6286 32.8518 97.6424 32.8583C97.6714 32.8721 97.7528 32.9157 97.9 33.0126C98.1898 33.2036 98.6098 33.5179 99.1739 33.9761L100.12 32.8119ZM98.0105 31.4225L97.6212 29.9739L97.3271 30.053L97.7164 31.5016L98.1057 32.9502L98.3998 32.8711L98.0105 31.4225ZM97.7164 31.5016L98.6045 30.2927L98.5239 30.2335L97.6358 31.4424L96.7477 32.6512L96.8283 32.7104L97.7164 31.5016Z" fill="black"/>
<path d="M65.0653 56.8172C65.6315 56.2125 65.6003 55.2633 64.9956 54.697C64.3908 54.1308 63.4416 54.162 62.8754 54.7668L63.9703 55.792L65.0653 56.8172ZM63.902 55.865L64.7431 57.1069L64.8822 57.0128L64.9969 56.8902L63.902 55.865ZM54.6789 67.619L55.9617 68.3964L54.6789 67.619ZM52.868 75.9942L51.4362 76.4414V76.4414L52.868 75.9942ZM56.8478 83.9947L58.0351 83.078L56.8478 83.9947ZM59.8235 87.375L58.7632 88.436L59.8235 87.375ZM63.6664 89.2386L63.4918 90.7284L63.6664 89.2386ZM68.1202 89.7971L68.319 88.3103L68.1202 89.7971ZM72.4441 89.418L71.9873 87.9893L72.4441 89.418ZM76.767 88.281L76.4603 86.8127L76.767 88.281ZM80.9574 86.7182L80.2282 85.4074V85.4074L80.9574 86.7182ZM84.4916 83.9752L85.5806 85.0067L84.4916 83.9752ZM87.6691 75.7329L89.077 76.2504L87.6691 75.7329ZM88.1549 71.3476L89.6415 71.1476L88.1549 71.3476ZM87.1955 66.923L88.6317 66.4901L87.1955 66.923ZM85.2363 62.8769L86.4662 62.0182L85.2363 62.8769ZM69.317 56.8641L69.2863 58.3637L69.317 56.8641ZM64.8038 56.3173L63.3149 56.4998L63.376 56.9979L63.7245 57.359L64.8038 56.3173ZM64.917 56.4346L64.8057 57.9305L68.7267 58.222L65.9963 55.3929L64.917 56.4346ZM64.9285 54.9313C64.1024 54.8699 63.3828 55.4898 63.3214 56.3159C63.26 57.1421 63.8799 57.8616 64.706 57.9231L64.8173 56.4272L64.9285 54.9313ZM63.9703 55.792L62.8754 54.7668L62.807 54.8398L63.902 55.865L64.9969 56.8902L65.0653 56.8172L63.9703 55.792ZM63.902 55.865L63.0608 54.623C60.6529 56.2539 58.8258 57.5896 57.6121 58.6193L58.5825 59.7631L59.5529 60.9069C60.6402 59.9844 62.3594 58.7214 64.7431 57.1069L63.902 55.865ZM58.5825 59.7631L57.6121 58.6193C56.2092 59.8096 55.2927 61.3352 54.876 63.1461L56.3378 63.4825L57.7996 63.8189C58.0748 62.6228 58.6549 61.6688 59.5529 60.9069L58.5825 59.7631ZM56.3378 63.4825L54.876 63.1461C54.5639 64.5022 54.069 65.731 53.396 66.8417L54.6789 67.619L55.9617 68.3964C56.8086 66.9987 57.4196 65.4699 57.7996 63.8189L56.3378 63.4825ZM54.6789 67.619L53.396 66.8417C52.5712 68.2029 51.9172 69.6628 51.4329 71.2176L52.8651 71.6637L54.2972 72.1098C54.7114 70.78 55.2667 69.5434 55.9617 68.3964L54.6789 67.619ZM52.8651 71.6637L51.4329 71.2176C50.8929 72.9514 50.8944 74.7065 51.4362 76.4414L52.868 75.9942L54.2998 75.547C53.9392 74.3926 53.9388 73.2607 54.2972 72.1098L52.8651 71.6637ZM52.868 75.9942L51.4362 76.4414C51.9082 77.9528 52.4811 79.4168 53.1549 80.8328L54.5094 80.1882L55.8638 79.5437C55.2515 78.2569 54.7301 76.9249 54.2998 75.547L52.868 75.9942ZM54.5094 80.1882L53.1549 80.8328C53.8439 82.2807 54.6794 83.6407 55.6604 84.9114L56.8478 83.9947L58.0351 83.078C57.1843 81.9761 56.4609 80.7985 55.8638 79.5437L54.5094 80.1882ZM56.8478 83.9947L55.6604 84.9114C56.6158 86.1488 57.6502 87.3237 58.7632 88.436L59.8235 87.375L60.8839 86.314C59.8609 85.2917 58.9114 84.2131 58.0351 83.078L56.8478 83.9947ZM59.8235 87.375L58.7632 88.436C60.0688 89.7408 61.6614 90.5139 63.4918 90.7284L63.6664 89.2386L63.841 87.7488C62.6835 87.6131 61.7142 87.1439 60.8839 86.314L59.8235 87.375ZM63.6664 89.2386L63.4918 90.7284C64.9777 90.9025 66.4542 91.0877 67.9213 91.2839L68.1202 89.7971L68.319 88.3103C66.8356 88.112 65.3429 87.9248 63.841 87.7488L63.6664 89.2386ZM68.1202 89.7971L67.9213 91.2839C69.6151 91.5104 71.2804 91.3649 72.901 90.8467L72.4441 89.418L71.9873 87.9893C70.793 88.3711 69.5757 88.4784 68.319 88.3103L68.1202 89.7971ZM72.4441 89.418L72.901 90.8467C74.2581 90.4128 75.6489 90.0469 77.0737 89.7493L76.767 88.281L76.4603 86.8127C74.9361 87.131 73.4449 87.5232 71.9873 87.9893L72.4441 89.418ZM76.767 88.281L77.0737 89.7493C78.6965 89.4103 80.2358 88.8362 81.6867 88.029L80.9574 86.7182L80.2282 85.4074C79.0409 86.0679 77.7865 86.5357 76.4603 86.8127L76.767 88.281ZM80.9574 86.7182L81.6867 88.029C83.1391 87.2209 84.4385 86.2124 85.5806 85.0067L84.4916 83.9752L83.4026 82.9436C82.4707 83.9274 81.414 84.7476 80.2282 85.4074L80.9574 86.7182ZM84.4916 83.9752L85.5806 85.0067C86.8166 83.7019 87.6076 82.1491 87.9387 80.3803L86.4643 80.1043L84.9899 79.8283C84.7648 81.0312 84.2407 82.0589 83.4026 82.9436L84.4916 83.9752ZM86.4643 80.1043L87.9387 80.3803C88.2014 78.9773 88.5806 77.6009 89.077 76.2504L87.6691 75.7329L86.2612 75.2155C85.7075 76.7219 85.2836 78.2598 84.9899 79.8283L86.4643 80.1043ZM87.6691 75.7329L89.077 76.2504C89.6855 74.5948 89.8755 72.8869 89.6415 71.1476L88.1549 71.3476L86.6683 71.5476C86.8366 72.7984 86.7027 74.014 86.2612 75.2155L87.6691 75.7329ZM88.1549 71.3476L89.6415 71.1476C89.4297 69.5731 89.0929 68.0204 88.6317 66.4901L87.1955 66.923L85.7593 67.3559C86.175 68.7349 86.4778 70.1319 86.6683 71.5476L88.1549 71.3476ZM87.1955 66.923L88.6317 66.4901C88.1475 64.8839 87.4249 63.3914 86.4662 62.0182L85.2363 62.8769L84.0064 63.7356C84.783 64.8479 85.3665 66.0528 85.7593 67.3559L87.1955 66.923ZM85.2363 62.8769L86.4662 62.0182C85.5143 60.6549 84.3826 59.4548 83.0745 58.4213L82.1446 59.5982L81.2146 60.7752C82.2935 61.6277 83.2229 62.6134 84.0064 63.7356L85.2363 62.8769ZM82.1446 59.5982L83.0745 58.4213C81.6928 57.3296 80.1352 56.6174 78.4189 56.2989L78.1451 57.7737L77.8714 59.2485C79.1007 59.4767 80.2093 59.9809 81.2146 60.7752L82.1446 59.5982ZM78.1451 57.7737L78.4189 56.2989C76.9069 56.0183 75.3952 55.8 73.884 55.6444L73.7303 57.1365L73.5766 58.6286C75.0063 58.7758 76.4379 58.9825 77.8714 59.2485L78.1451 57.7737ZM73.7303 57.1365L73.884 55.6444C72.3728 55.4887 70.8607 55.3953 69.3477 55.3644L69.317 56.8641L69.2863 58.3637C70.7168 58.393 72.1468 58.4813 73.5766 58.6286L73.7303 57.1365ZM69.317 56.8641L69.3477 55.3644C67.9132 55.335 66.9319 55.2208 66.3323 55.0627L65.9499 56.5132L65.5675 57.9636C66.5139 58.2131 67.7774 58.3329 69.2863 58.3637L69.317 56.8641ZM65.9499 56.5132L66.3323 55.0627C65.9379 54.9587 65.596 54.8772 65.3362 54.8328C65.2246 54.8137 65.0358 54.7845 64.8384 54.7887C64.767 54.7902 64.5084 54.7956 64.2205 54.9208C64.0625 54.9895 63.798 55.1364 63.5856 55.4341C63.3482 55.7668 63.2724 56.153 63.3149 56.4998L64.8038 56.3173L66.2927 56.1349C66.334 56.4725 66.2602 56.8506 66.0278 57.1763C65.8204 57.4671 65.5639 57.608 65.417 57.6719C65.1513 57.7875 64.9271 57.7875 64.9024 57.788C64.7983 57.7902 64.7516 57.7764 64.8309 57.7899C64.9532 57.8108 65.1889 57.8638 65.5675 57.9636L65.9499 56.5132ZM64.8038 56.3173L63.7245 57.359L63.8377 57.4763L64.917 56.4346L65.9963 55.3929L65.8831 55.2757L64.8038 56.3173ZM64.917 56.4346L65.0282 54.9387L64.9285 54.9313L64.8173 56.4272L64.706 57.9231L64.8057 57.9305L64.917 56.4346Z" fill="black"/>
<path d="M70.3315 67.8112C70.421 66.9877 69.8259 66.2475 69.0024 66.158C68.1788 66.0685 67.4386 66.6636 67.3491 67.4872L68.8403 67.6492L70.3315 67.8112ZM68.8295 67.7486L69.8487 68.8491L70.2602 68.4681L70.3207 67.9106L68.8295 67.7486ZM67.4686 76.3452L68.3687 75.1454L67.4686 76.3452ZM74.5099 75.6812L73.2925 74.8049L74.5099 75.6812ZM68.737 67.0213L67.2778 67.3686L67.3172 67.5342L67.3927 67.6868L68.737 67.0213ZM68.7012 66.871L70.1605 66.5236L70.0569 66.0887L69.7321 65.7814L68.7012 66.871ZM69.6595 65.7126C69.0577 65.1433 68.1083 65.1696 67.539 65.7714C66.9696 66.3732 66.9959 67.3226 67.5977 67.8919L68.6286 66.8023L69.6595 65.7126ZM68.8403 67.6492L67.3491 67.4872L67.3383 67.5866L68.8295 67.7486L70.3207 67.9106L70.3315 67.8112L68.8403 67.6492ZM68.8295 67.7486L67.8103 66.6481C65.6656 68.6343 64.1916 70.7396 64.244 72.91L65.7436 72.8738L67.2432 72.8376C67.2242 72.0512 67.8074 70.7397 69.8487 68.8491L68.8295 67.7486ZM65.7436 72.8738L64.244 72.91C64.2901 74.8149 65.0613 76.4145 66.5684 77.5451L67.4686 76.3452L68.3687 75.1454C67.6473 74.6042 67.2686 73.8895 67.2432 72.8376L65.7436 72.8738ZM67.4686 76.3452L66.5684 77.5451C67.9902 78.6117 69.6338 79.0593 71.4196 78.8916L71.2794 77.3982L71.1391 75.9047C70.0724 76.0049 69.1755 75.7506 68.3687 75.1454L67.4686 76.3452ZM71.2794 77.3982L71.4196 78.8916C73.2053 78.7239 74.7075 77.9744 75.7274 76.5574L74.5099 75.6812L73.2925 74.8049C72.8575 75.4093 72.206 75.8045 71.1391 75.9047L71.2794 77.3982ZM74.5099 75.6812L75.7274 76.5574C76.7194 75.1791 77.0088 73.5943 76.6248 71.9278L75.1631 72.2647L73.7014 72.6015C73.9013 73.469 73.7553 74.1619 73.2925 74.8049L74.5099 75.6812ZM75.1631 72.2647L76.6248 71.9278C76.2792 70.4284 75.5779 68.9934 74.568 67.6245L73.361 68.5149L72.1539 69.4054C72.9629 70.5021 73.463 71.5669 73.7014 72.6015L75.1631 72.2647ZM73.361 68.5149L74.568 67.6245C73.4873 66.1595 71.9998 65.1404 70.1521 65.4773L70.4211 66.953L70.6901 68.4287C70.9433 68.3825 71.4157 68.4048 72.1539 69.4054L73.361 68.5149ZM70.4211 66.953L70.1521 65.4773C69.6461 65.5696 69.3255 65.6079 69.1515 65.6149C69.0554 65.6188 69.0802 65.6094 69.1693 65.6267C69.2149 65.6356 69.3401 65.663 69.4932 65.7447C69.6491 65.8279 69.91 66.0097 70.0813 66.3558L68.737 67.0213L67.3927 67.6868C67.7514 68.4114 68.4679 68.5465 68.5965 68.5715C68.844 68.6197 69.0884 68.6199 69.273 68.6125C69.6603 68.5968 70.1456 68.5279 70.6901 68.4287L70.4211 66.953ZM68.737 67.0213L70.1962 66.6739L70.1605 66.5236L68.7012 66.871L67.242 67.2184L67.2778 67.3686L68.737 67.0213ZM68.7012 66.871L69.7321 65.7814L69.6595 65.7126L68.6286 66.8023L67.5977 67.8919L67.6704 67.9606L68.7012 66.871Z" fill="black"/>
<path d="M52.5057 89.9889L52.0181 91.4074L52.5057 89.9889ZM57.1105 51.1369L56.4945 49.7692L57.1105 51.1369ZM79.1914 51.2359L78.805 52.6853L79.1914 51.2359ZM83.1327 53.1732L84.0441 51.9818L83.1327 53.1732ZM91.8503 68.3297L93.3421 68.1732L91.8503 68.3297ZM86.6933 89.3044L85.4284 88.4983L86.6933 89.3044ZM78.9013 92.7784L78.6166 91.3057L78.9013 92.7784ZM74.5529 93.6442L74.8539 95.1137L74.5529 93.6442ZM52.5057 89.9889L52.9933 88.5704C51.8251 88.1688 50.8401 87.4897 50.0189 86.5077L48.8682 87.47L47.7176 88.4323C48.8815 89.8241 50.3215 90.8242 52.0181 91.4074L52.5057 89.9889ZM48.8682 87.47L50.0189 86.5077C49.1681 85.4904 48.5826 84.3526 48.2533 83.0806L46.8012 83.4565L45.3491 83.8325C45.7906 85.538 46.5832 87.0758 47.7176 88.4323L48.8682 87.47ZM46.8012 83.4565L48.2533 83.0806C47.9161 81.7782 47.8393 80.4809 48.0187 79.1777L46.5327 78.9732L45.0467 78.7687C44.8131 80.4658 44.9154 82.1574 45.3491 83.8325L46.8012 83.4565ZM46.5327 78.9732L48.0187 79.1777C48.2334 77.6171 48.3506 76.0625 48.3697 74.5143L46.8698 74.4958L45.3699 74.4773C45.3524 75.8986 45.2448 77.329 45.0467 78.7687L46.5327 78.9732ZM46.8698 74.4958L48.3697 74.5143C48.387 73.1089 48.5152 71.7107 48.7545 70.3191L47.2762 70.0649L45.7979 69.8107C45.5319 71.3575 45.3892 72.9132 45.3699 74.4773L46.8698 74.4958ZM47.2762 70.0649L48.7545 70.3191C49.011 68.8273 49.232 67.3369 49.4173 65.8481L47.9288 65.6628L46.4403 65.4775C46.2608 66.9198 46.0466 68.3642 45.7979 69.8107L47.2762 70.0649ZM47.9288 65.6628L49.4173 65.8481C49.5876 64.4803 49.8908 63.1362 50.3276 61.8146L48.9033 61.3439L47.4791 60.8732C46.9814 62.379 46.6349 63.9141 46.4403 65.4775L47.9288 65.6628ZM48.9033 61.3439L50.3276 61.8146C50.7395 60.568 51.3483 59.443 52.1563 58.4314L50.9842 57.4953L49.8121 56.5592C48.78 57.8516 48.0015 59.2924 47.4791 60.8732L48.9033 61.3439ZM50.9842 57.4953L52.1563 58.4314C53.0925 57.259 54.0095 56.0484 54.9071 54.7997L53.6891 53.9242L52.4711 53.0487C51.6023 54.2573 50.7159 55.4275 49.8121 56.5592L50.9842 57.4953ZM53.6891 53.9242L54.9071 54.7997C55.6343 53.788 56.5659 53.0272 57.7264 52.5046L57.1105 51.1369L56.4945 49.7692C54.8597 50.5055 53.5104 51.6029 52.4711 53.0487L53.6891 53.9242ZM57.1105 51.1369L57.7264 52.5046C59.0014 51.9303 60.3169 51.5412 61.6761 51.3346L61.4507 49.8517L61.2253 48.3687C59.5929 48.6168 58.0149 49.0844 56.4945 49.7692L57.1105 51.1369ZM61.4507 49.8517L61.6761 51.3346C63.1146 51.116 64.5528 50.9825 65.9911 50.934L65.9405 49.4349L65.8899 47.9357C64.3334 47.9882 62.7785 48.1326 61.2253 48.3687L61.4507 49.8517ZM65.9405 49.4349L65.9911 50.934C67.4372 50.8852 68.8836 50.9104 70.3303 51.0097L70.433 49.5132L70.5357 48.0167C68.9871 47.9105 67.4385 47.8834 65.8899 47.9357L65.9405 49.4349ZM70.433 49.5132L70.3303 51.0097C71.751 51.1072 73.1475 51.3127 74.5207 51.6259L74.8543 50.1635L75.1879 48.701C73.6614 48.3528 72.1104 48.1248 70.5357 48.0167L70.433 49.5132ZM74.8543 50.1635L74.5207 51.6259C75.9528 51.9526 77.3809 52.3057 78.805 52.6853L79.1914 51.2359L79.5777 49.7865C78.1187 49.3976 76.6554 49.0358 75.1879 48.701L74.8543 50.1635ZM79.1914 51.2359L78.805 52.6853C80.0561 53.0188 81.1915 53.5768 82.2213 54.3646L83.1327 53.1732L84.0441 51.9818C82.7018 50.955 81.2097 50.2215 79.5777 49.7865L79.1914 51.2359ZM83.1327 53.1732L82.2213 54.3646C83.3466 55.2255 84.4032 56.1694 85.3914 57.1969L86.4726 56.1571L87.5537 55.1173C86.4607 53.9809 85.2907 52.9355 84.0441 51.9818L83.1327 53.1732ZM86.4726 56.1571L85.3914 57.1969C86.3047 58.1465 87.0161 59.2254 87.5305 60.4417L88.912 59.8574L90.2936 59.2731C89.6365 57.7196 88.7217 56.3317 87.5537 55.1173L86.4726 56.1571ZM88.912 59.8574L87.5305 60.4417C88.1187 61.8325 88.7185 63.2255 89.3297 64.6208L90.7036 64.0188L92.0776 63.4169C91.4714 62.0333 90.8767 60.652 90.2936 59.2731L88.912 59.8574ZM90.7036 64.0188L89.3297 64.6208C89.8774 65.871 90.2191 67.1579 90.3585 68.4862L91.8503 68.3297L93.3421 68.1732C93.17 66.5325 92.7473 64.9455 92.0776 63.4169L90.7036 64.0188ZM91.8503 68.3297L90.3585 68.4862C90.504 69.8738 90.5148 71.2693 90.3903 72.674L91.8845 72.8065L93.3786 72.9389C93.52 71.3436 93.508 69.7546 93.3421 68.1732L91.8503 68.3297ZM91.8845 72.8065L90.3903 72.674C90.2554 74.1964 90.1557 75.7097 90.0914 77.2138L91.59 77.2779L93.0886 77.342C93.151 75.8842 93.2476 74.4165 93.3786 72.9389L91.8845 72.8065ZM91.59 77.2779L90.0914 77.2138C90.032 78.6028 89.8466 79.9601 89.536 81.2872L90.9965 81.6291L92.4571 81.9709C92.8111 80.4584 93.0214 78.915 93.0886 77.342L91.59 77.2779ZM90.9965 81.6291L89.536 81.2872C89.249 82.5134 88.7339 83.6507 87.9819 84.7073L89.204 85.5771L90.4261 86.4469C91.3995 85.0792 92.0794 83.5845 92.4571 81.9709L90.9965 81.6291ZM89.204 85.5771L87.9819 84.7073C87.1042 85.9407 86.253 87.2043 85.4284 88.4983L86.6933 89.3044L87.9583 90.1106C88.7558 88.8591 89.5784 87.6379 90.4261 86.4469L89.204 85.5771ZM86.6933 89.3044L85.4284 88.4983C84.8228 89.4485 83.9997 90.0474 82.8908 90.3356L83.2681 91.7874L83.6453 93.2391C85.4813 92.7621 86.9417 91.7057 87.9583 90.1106L86.6933 89.3044ZM83.2681 91.7874L82.8908 90.3356C81.4479 90.7105 80.0232 91.0338 78.6166 91.3057L78.9013 92.7784L79.186 94.2512C80.657 93.9668 82.1434 93.6294 83.6453 93.2391L83.2681 91.7874ZM78.9013 92.7784L78.6166 91.3057C77.1723 91.5849 75.7174 91.8746 74.252 92.1747L74.5529 93.6442L74.8539 95.1137C76.3087 94.8157 77.7527 94.5282 79.186 94.2512L78.9013 92.7784ZM74.5529 93.6442L74.252 92.1747C72.9339 92.4446 71.6025 92.5216 70.2531 92.4051L70.1241 93.8995L69.9951 95.394C71.6306 95.5351 73.2517 95.4418 74.8539 95.1137L74.5529 93.6442ZM70.1241 93.8995L70.2531 92.4051C68.6139 92.2636 66.9742 92.362 65.3385 92.6974L65.6398 94.1669L65.9412 95.6363C67.2997 95.3577 68.6495 95.2778 69.9951 95.394L70.1241 93.8995ZM65.6398 94.1669L65.3385 92.6974C64.1208 92.9472 62.9416 92.8531 61.7676 92.4098L61.2377 93.813L60.7077 95.2163C62.4091 95.8588 64.1647 96.0006 65.9412 95.6363L65.6398 94.1669ZM61.2377 93.813L61.7676 92.4098C60.3258 91.8653 58.9038 91.3356 57.5018 90.8207L56.9847 92.2288L56.4676 93.6369C57.8608 94.1485 59.2742 94.675 60.7077 95.2163L61.2377 93.813ZM56.9847 92.2288L57.5018 90.8207C56.8229 90.5714 56.3558 90.3731 56.0678 90.2254C55.999 90.19 55.9476 90.1613 55.911 90.1392C55.8732 90.1165 55.8599 90.1061 55.8633 90.1087C55.8635 90.1089 55.9046 90.1395 55.9601 90.2029C56.0101 90.26 56.1259 90.4047 56.2 90.6363L54.7713 91.0932L53.3426 91.5501C53.5113 92.0776 53.9008 92.3849 54.0437 92.4939C54.2459 92.6481 54.4767 92.7808 54.6984 92.8946C55.1482 93.1253 55.7488 93.3729 56.4676 93.6369L56.9847 92.2288ZM54.7713 91.0932L56.2 90.6363C56.0261 90.0924 55.6173 89.7835 55.4738 89.6781C55.2664 89.5258 55.03 89.3962 54.8036 89.2859C54.3439 89.0618 53.7294 88.8234 52.9933 88.5704L52.5057 89.9889L52.0181 91.4074C52.7144 91.6468 53.1937 91.8386 53.4892 91.9826C53.5598 92.017 53.6124 92.0451 53.6499 92.0667C53.6886 92.0889 53.702 92.099 53.6979 92.096C53.6973 92.0955 53.6537 92.0643 53.5951 91.9991C53.5422 91.9403 53.4196 91.7909 53.3426 91.5501L54.7713 91.0932Z" fill="black"/>
</svg>
