<svg width="184" height="240" viewBox="0 0 184 240" fill="none" xmlns="http://www.w3.org/2000/svg">
<path d="M72.8169 139.168C72.8169 138.34 72.1453 137.668 71.3169 137.668C70.4885 137.668 69.8169 138.34 69.8169 139.168H71.3169H72.8169ZM71.3169 139.268L72.8044 139.461L72.8169 139.365V139.268H71.3169ZM71.2535 223.735V225.235H72.0783L72.5201 224.539L71.2535 223.735ZM71.3169 223.635H72.8169V218.471L70.0503 222.832L71.3169 223.635ZM69.8169 223.735C69.8169 224.564 70.4885 225.235 71.3169 225.235C72.1453 225.235 72.8169 224.564 72.8169 223.735H71.3169H69.8169ZM71.3169 139.168H69.8169V139.268H71.3169H72.8169V139.168H71.3169ZM71.3169 139.268L69.8294 139.075C69.4487 142.01 69.2843 144.322 69.371 145.953L70.8689 145.873L72.3668 145.793C72.2951 144.444 72.4293 142.353 72.8044 139.461L71.3169 139.268ZM70.8689 145.873L69.371 145.953C69.4484 147.407 69.4742 148.862 69.4483 150.316L70.9481 150.343L72.4478 150.37C72.4749 148.844 72.4479 147.319 72.3668 145.793L70.8689 145.873ZM70.9481 150.343L69.4483 150.316C69.4216 151.819 69.4143 153.322 69.4265 154.825L70.9265 154.813L72.4264 154.801C72.4144 153.324 72.4216 151.847 72.4478 150.37L70.9481 150.343ZM70.9265 154.813L69.4265 154.825C69.4386 156.308 69.4401 157.791 69.431 159.274L70.9309 159.283L72.4309 159.292C72.4401 157.795 72.4386 156.298 72.4264 154.801L70.9265 154.813ZM70.9309 159.283L69.431 159.274C69.4214 160.829 69.5135 162.384 69.7069 163.938L71.1954 163.753L72.6839 163.568C72.5064 162.142 72.4222 160.717 72.4309 159.292L70.9309 159.283ZM71.1954 163.753L69.7069 163.938C69.8769 165.305 69.8761 166.67 69.7045 168.036L71.1928 168.223L72.6812 168.41C72.8838 166.796 72.8847 165.181 72.6839 163.568L71.1954 163.753ZM71.1928 168.223L69.7045 168.036C69.5117 169.572 69.3903 171.108 69.3405 172.644L70.8397 172.693L72.3389 172.742C72.3857 171.298 72.4998 169.854 72.6812 168.41L71.1928 168.223ZM70.8397 172.693L69.3405 172.644C69.2896 174.213 69.3622 175.782 69.558 177.349L71.0465 177.163L72.5349 176.977C72.3583 175.564 72.2931 174.153 72.3389 172.742L70.8397 172.693ZM71.0465 177.163L69.558 177.349C69.7445 178.841 69.9349 180.334 70.129 181.826L71.6164 181.633L73.1039 181.44C72.9104 179.952 72.7208 178.464 72.5349 176.977L71.0465 177.163ZM71.6164 181.633L70.129 181.826C70.2974 183.122 70.2158 184.419 69.8781 185.728L71.3305 186.103L72.783 186.478C73.214 184.807 73.323 183.124 73.1039 181.44L71.6164 181.633ZM71.3305 186.103L69.8781 185.728C69.4512 187.383 69.3161 189.049 69.4787 190.718L70.9716 190.573L72.4645 190.428C72.3369 189.117 72.4411 187.803 72.783 186.478L71.3305 186.103ZM70.9716 190.573L69.4787 190.718C69.6227 192.197 69.7499 193.676 69.8603 195.155L71.3562 195.043L72.852 194.931C72.7399 193.43 72.6107 191.929 72.4645 190.428L70.9716 190.573ZM71.3562 195.043L69.8603 195.155C69.9695 196.616 70.037 198.078 70.0629 199.54L71.5627 199.513L73.0625 199.486C73.0356 197.968 72.9654 196.45 72.852 194.931L71.3562 195.043ZM71.5627 199.513L70.0629 199.54C70.0895 201.04 70.1325 202.541 70.1919 204.042L71.6908 203.983L73.1896 203.924C73.131 202.445 73.0887 200.965 73.0625 199.486L71.5627 199.513ZM71.6908 203.983L70.1919 204.042C70.2466 205.424 70.1531 206.808 69.9102 208.194L71.3877 208.453L72.8651 208.712C73.1443 207.118 73.2528 205.522 73.1896 203.924L71.6908 203.983ZM71.3877 208.453L69.9102 208.194C69.6225 209.836 69.5911 211.482 69.8168 213.127L71.3029 212.923L72.7889 212.719C72.6057 211.384 72.6307 210.05 72.8651 208.712L71.3877 208.453ZM71.3029 212.923L69.8168 213.127C70.0157 214.576 70.1528 216.024 70.2284 217.471L71.7264 217.393L73.2244 217.315C73.1443 215.782 72.9992 214.25 72.7889 212.719L71.3029 212.923ZM71.7264 217.393L70.2284 217.471C70.3012 218.864 70.2352 220.188 70.0352 221.446L71.5166 221.682L72.998 221.917C73.2333 220.437 73.3072 218.902 73.2244 217.315L71.7264 217.393ZM71.5166 221.682L70.0352 221.446C69.9258 222.134 69.8465 222.666 69.7997 223.031C69.7769 223.209 69.7582 223.374 69.7494 223.508C69.7457 223.564 69.7394 223.672 69.7461 223.789C69.7486 223.831 69.7571 223.983 69.812 224.164C69.8375 224.248 69.9068 224.455 70.0778 224.669C70.2726 224.913 70.6679 225.235 71.2535 225.235V223.735V222.235C71.8363 222.235 72.2293 222.556 72.422 222.797C72.5908 223.009 72.6582 223.212 72.6821 223.29C72.7337 223.46 72.74 223.597 72.7412 223.617C72.7455 223.692 72.7409 223.735 72.7428 223.706C72.7453 223.668 72.7543 223.577 72.7754 223.412C72.8162 223.094 72.8896 222.598 72.998 221.917L71.5166 221.682ZM71.2535 223.735L72.5201 224.539L72.5835 224.439L71.3169 223.635L70.0503 222.832L69.9868 222.932L71.2535 223.735ZM71.3169 223.635H69.8169V223.735H71.3169H72.8169V223.635H71.3169Z" fill="black"/>
<path d="M73.7754 222.235C72.947 222.235 72.2754 222.907 72.2754 223.735C72.2754 224.564 72.947 225.235 73.7754 225.235V223.735V222.235ZM73.8754 223.735L73.9528 222.237L73.9141 222.235H73.8754V223.735ZM80.4787 223.964L80.4763 225.464L80.4787 223.964ZM93.8859 223.484L93.8112 224.982L93.8859 223.484ZM98.3582 223.45L98.4554 224.947L98.3582 223.45ZM125.18 224.149L125.048 225.643L125.18 224.149ZM138.592 223.978L138.922 225.442L138.592 223.978ZM147.536 224.057L147.354 225.545L147.536 224.057ZM155.403 225.334L154.971 226.77L155.403 225.334ZM156.747 225.702V227.202H157.177L157.542 226.974L156.747 225.702ZM156.769 225.688L156.974 224.202L156.435 224.128L155.973 224.417L156.769 225.688ZM156.663 227.188C157.483 227.301 158.24 226.728 158.354 225.907C158.467 225.086 157.893 224.329 157.073 224.216L156.868 225.702L156.663 227.188ZM73.7754 223.735V225.235H73.8754V223.735V222.235H73.7754V223.735ZM73.8754 223.735L73.798 225.233C76.7159 225.384 78.9473 225.462 80.4763 225.464L80.4787 223.964L80.481 222.464C79.0292 222.462 76.8583 222.387 73.9528 222.237L73.8754 223.735ZM80.4787 223.964L80.4763 225.464C81.9319 225.467 83.3861 225.52 84.8389 225.624L84.9458 224.127L85.0526 222.631C83.5303 222.522 82.0064 222.467 80.481 222.464L80.4787 223.964ZM84.9458 224.127L84.8389 225.624C86.4655 225.74 88.0919 225.631 89.7142 225.299L89.414 223.83L89.1138 222.36C87.7536 222.638 86.4011 222.727 85.0526 222.631L84.9458 224.127ZM89.414 223.83L89.7142 225.299C91.0846 225.02 92.4493 224.915 93.8112 224.982L93.8859 223.484L93.9605 221.986C92.3423 221.906 90.7258 222.031 89.1138 222.36L89.414 223.83ZM93.8859 223.484L93.8112 224.982C95.3587 225.06 96.9068 225.048 98.4554 224.947L98.3582 223.45L98.2609 221.954C96.8266 222.047 95.3932 222.058 93.9605 221.986L93.8859 223.484ZM98.3582 223.45L98.4554 224.947C99.9088 224.853 101.361 224.814 102.811 224.831L102.829 223.331L102.846 221.831C101.319 221.813 99.7904 221.854 98.2609 221.954L98.3582 223.45ZM102.829 223.331L102.811 224.831C104.308 224.849 105.806 224.855 107.305 224.849L107.299 223.349L107.294 221.849C105.81 221.855 104.328 221.849 102.846 221.831L102.829 223.331ZM107.299 223.349L107.305 224.849C108.811 224.843 110.316 224.815 111.822 224.765L111.771 223.266L111.721 221.767C110.246 221.816 108.77 221.844 107.294 221.849L107.299 223.349ZM111.771 223.266L111.822 224.765C113.162 224.72 114.507 224.872 115.86 225.227L116.24 223.775L116.62 222.324C114.995 221.899 113.361 221.712 111.721 221.767L111.771 223.266ZM116.24 223.775L115.86 225.227C117.512 225.659 119.177 225.802 120.846 225.65L120.709 224.156L120.573 222.662C119.26 222.782 117.945 222.671 116.62 222.324L116.24 223.775ZM120.709 224.156L120.846 225.65C122.248 225.522 123.648 225.52 125.048 225.643L125.18 224.149L125.311 222.655C123.733 222.516 122.153 222.518 120.573 222.662L120.709 224.156ZM125.18 224.149L125.048 225.643C126.679 225.787 128.31 225.7 129.938 225.386L129.653 223.913L129.369 222.44C128.01 222.703 126.659 222.773 125.311 222.655L125.18 224.149ZM129.653 223.913L129.938 225.386C131.228 225.136 132.508 225.156 133.791 225.445L134.121 223.982L134.45 222.518C132.764 222.139 131.066 222.112 129.369 222.44L129.653 223.913ZM134.121 223.982L133.791 225.445C135.495 225.829 137.21 225.827 138.922 225.442L138.592 223.978L138.263 222.515C136.982 222.803 135.717 222.804 134.45 222.518L134.121 223.982ZM138.592 223.978L138.922 225.442C140.279 225.136 141.627 225.032 142.97 225.125L143.074 223.629L143.178 222.133C141.537 222.019 139.897 222.147 138.263 222.515L138.592 223.978ZM143.074 223.629L142.97 225.125C144.436 225.227 145.897 225.367 147.354 225.545L147.536 224.057L147.718 222.568C146.209 222.383 144.696 222.238 143.178 222.133L143.074 223.629ZM147.536 224.057L147.354 225.545C148.827 225.725 150.294 225.921 151.756 226.132L151.97 224.647L152.184 223.163C150.701 222.949 149.212 222.75 147.718 222.568L147.536 224.057ZM151.97 224.647L151.756 226.132C153.201 226.34 154.26 226.557 154.971 226.77L155.403 225.334L155.835 223.898C154.914 223.621 153.685 223.379 152.184 223.163L151.97 224.647ZM155.403 225.334L154.971 226.77C155.382 226.894 155.712 226.991 155.954 227.057C156.074 227.09 156.184 227.118 156.278 227.14C156.301 227.146 156.522 227.202 156.747 227.202V225.702V224.202C156.826 224.202 156.886 224.209 156.908 224.211C156.935 224.215 156.955 224.218 156.962 224.219C156.976 224.222 156.976 224.222 156.956 224.218C156.918 224.209 156.851 224.192 156.746 224.163C156.541 224.107 156.239 224.019 155.835 223.898L155.403 225.334ZM156.747 225.702L157.542 226.974L157.564 226.96L156.769 225.688L155.973 224.417L155.951 224.43L156.747 225.702ZM156.769 225.688L156.564 227.174L156.663 227.188L156.868 225.702L157.073 224.216L156.974 224.202L156.769 225.688Z" fill="black"/>
<path d="M158.859 138.185C158.859 137.356 158.188 136.685 157.359 136.685C156.531 136.685 155.859 137.356 155.859 138.185H157.359H158.859ZM157.359 138.285L158.859 138.295V138.285H157.359ZM157.089 176.18L155.598 176.344L157.089 176.18ZM157.505 223.917L158.973 224.22L158.977 224.202L158.981 224.184L157.505 223.917ZM157.359 224.619L155.89 224.315L155.859 224.465V224.619H157.359ZM155.859 224.719C155.859 225.547 156.531 226.219 157.359 226.219C158.188 226.219 158.859 225.547 158.859 224.719H157.359H155.859ZM157.359 138.185H155.859V138.285H157.359H158.859V138.185H157.359ZM157.359 138.285L155.859 138.274C155.839 141.185 155.809 143.375 155.77 144.849L157.269 144.89L158.769 144.93C158.809 143.424 158.839 141.211 158.859 138.295L157.359 138.285ZM157.269 144.89L155.77 144.849C155.73 146.344 155.697 147.839 155.672 149.334L157.172 149.36L158.672 149.385C158.697 147.9 158.729 146.415 158.769 144.93L157.269 144.89ZM157.172 149.36L155.672 149.334C155.646 150.9 155.737 152.464 155.945 154.028L157.432 153.83L158.919 153.631C158.73 152.215 158.648 150.8 158.672 149.385L157.172 149.36ZM157.432 153.83L155.945 154.028C156.137 155.47 156.258 156.911 156.309 158.352L157.808 158.3L159.307 158.247C159.253 156.708 159.124 155.169 158.919 153.631L157.432 153.83ZM157.808 158.3L156.309 158.352C156.356 159.708 156.225 161.068 155.911 162.434L157.373 162.77L158.835 163.105C159.206 161.491 159.364 159.871 159.307 158.247L157.808 158.3ZM157.373 162.77L155.911 162.434C155.516 164.153 155.53 165.881 155.952 167.598L157.409 167.24L158.866 166.881C158.555 165.618 158.545 164.366 158.835 163.105L157.373 162.77ZM157.409 167.24L155.952 167.598C156.261 168.85 156.258 170.093 155.945 171.346L157.4 171.71L158.856 172.073C159.287 170.347 159.291 168.609 158.866 166.881L157.409 167.24ZM157.4 171.71L155.945 171.346C155.531 173.004 155.413 174.673 155.598 176.344L157.089 176.18L158.58 176.015C158.435 174.706 158.525 173.395 158.856 172.073L157.4 171.71ZM157.089 176.18L155.598 176.344C155.763 177.842 155.94 179.339 156.128 180.837L157.616 180.65L159.105 180.463C158.918 178.98 158.743 177.497 158.58 176.015L157.089 176.18ZM157.616 180.65L156.128 180.837C156.302 182.222 156.329 183.606 156.21 184.99L157.704 185.12L159.198 185.249C159.336 183.653 159.305 182.057 159.105 180.463L157.616 180.65ZM157.704 185.12L156.21 184.99C156.084 186.44 155.9 187.891 155.657 189.342L157.136 189.59L158.615 189.838C158.872 188.309 159.066 186.779 159.198 185.249L157.704 185.12ZM157.136 189.59L155.657 189.342C155.391 190.925 155.279 192.512 155.322 194.1L156.821 194.06L158.321 194.019C158.284 192.627 158.381 191.234 158.615 189.838L157.136 189.59ZM156.821 194.06L155.322 194.1C155.364 195.663 155.519 197.224 155.787 198.784L157.266 198.53L158.744 198.276C158.5 196.855 158.359 195.437 158.321 194.019L156.821 194.06ZM157.266 198.53L155.787 198.784C156.031 200.203 156.17 201.62 156.205 203.037L157.705 203L159.204 202.962C159.166 201.399 159.012 199.836 158.744 198.276L157.266 198.53ZM157.705 203L156.205 203.037C156.239 204.408 156.112 205.782 155.822 207.161L157.29 207.47L158.758 207.778C159.095 206.177 159.244 204.571 159.204 202.962L157.705 203ZM157.29 207.47L155.822 207.161C155.469 208.839 155.443 210.524 155.747 212.206L157.223 211.94L158.699 211.673C158.465 210.375 158.484 209.08 158.758 207.778L157.29 207.47ZM157.223 211.94L155.747 212.206C155.984 213.522 155.986 214.833 155.754 216.149L157.231 216.41L158.709 216.67C159.002 215.006 158.999 213.337 158.699 211.673L157.223 211.94ZM157.231 216.41L155.754 216.149C155.46 217.814 155.465 219.483 155.767 221.148L157.243 220.88L158.719 220.611C158.48 219.296 158.476 217.985 158.709 216.67L157.231 216.41ZM157.243 220.88L155.767 221.148C155.898 221.867 155.979 222.442 156.017 222.885C156.058 223.352 156.041 223.581 156.029 223.649L157.505 223.917L158.981 224.184C159.065 223.718 159.053 223.173 159.006 222.628C158.957 222.058 158.859 221.382 158.719 220.611L157.243 220.88ZM157.505 223.917L156.036 223.613L155.89 224.315L157.359 224.619L158.828 224.922L158.973 224.22L157.505 223.917ZM157.359 224.619H155.859V224.719H157.359H158.859V224.619H157.359Z" fill="black"/>
<path d="M73.2837 136.192C72.4553 136.192 71.7837 136.864 71.7837 137.692C71.7837 138.521 72.4553 139.192 73.2837 139.192V137.692V136.192ZM73.3837 137.692L73.5831 136.206L73.4838 136.192H73.3837V137.692ZM115.749 137.458L115.614 135.964L115.749 137.458ZM158.278 137.842L159.656 138.435L159.852 137.979L159.738 137.497L158.278 137.842ZM158.243 137.692V136.192H156.346L156.783 138.038L158.243 137.692ZM158.343 139.192C159.171 139.192 159.843 138.521 159.843 137.692C159.843 136.864 159.171 136.192 158.343 136.192V137.692V139.192ZM73.2837 137.692V139.192H73.3837V137.692V136.192H73.2837V137.692ZM73.3837 137.692L73.1843 139.179C76.1176 139.572 78.4228 139.754 80.0453 139.693L79.9887 138.194L79.9321 136.695C78.5746 136.746 76.4764 136.594 73.5831 136.206L73.3837 137.692ZM79.9887 138.194L80.0453 139.693C81.5229 139.637 83.0006 139.6 84.4782 139.581L84.4587 138.081L84.4392 136.581C82.9368 136.6 81.4344 136.638 79.9321 136.695L79.9887 138.194ZM84.4587 138.081L84.4782 139.581C85.9629 139.561 87.4477 139.55 88.9324 139.546L88.9287 138.046L88.925 136.546C87.4297 136.55 85.9345 136.561 84.4392 136.581L84.4587 138.081ZM88.9287 138.046L88.9324 139.546C90.473 139.542 92.0132 139.461 93.5529 139.302L93.3987 137.809L93.2445 136.317C91.8042 136.466 90.3644 136.542 88.925 136.546L88.9287 138.046ZM93.3987 137.809L93.5529 139.302C95.0176 139.15 96.4821 139.036 97.9464 138.961L97.8687 137.463L97.791 135.965C96.2753 136.043 94.7598 136.161 93.2445 136.317L93.3987 137.809ZM97.8687 137.463L97.9464 138.961C99.339 138.888 100.732 138.951 102.127 139.15L102.339 137.665L102.55 136.18C100.965 135.954 99.3784 135.882 97.791 135.965L97.8687 137.463ZM102.339 137.665L102.127 139.15C103.722 139.377 105.318 139.434 106.914 139.321L106.809 137.825L106.703 136.329C105.32 136.426 103.936 136.377 102.55 136.18L102.339 137.665ZM106.809 137.825L106.914 139.321C108.37 139.218 109.826 139.166 111.281 139.163L111.279 137.663L111.276 136.163C109.752 136.166 108.227 136.221 106.703 136.329L106.809 137.825ZM111.279 137.663L111.281 139.163C112.815 139.161 114.35 139.09 115.883 138.952L115.749 137.458L115.614 135.964C114.168 136.095 112.722 136.161 111.276 136.163L111.279 137.663ZM115.749 137.458L115.883 138.952C117.237 138.83 118.591 138.892 119.949 139.14L120.219 137.665L120.488 136.189C118.867 135.893 117.241 135.817 115.614 135.964L115.749 137.458ZM120.219 137.665L119.949 139.14C121.517 139.426 123.088 139.585 124.659 139.616L124.689 138.116L124.718 136.616C123.31 136.589 121.9 136.447 120.488 136.189L120.219 137.665ZM124.689 138.116L124.659 139.616C126.269 139.647 127.876 139.488 129.477 139.14L129.159 137.674L128.84 136.208C127.462 136.508 126.088 136.643 124.718 136.616L124.689 138.116ZM129.159 137.674L129.477 139.14C130.76 138.861 132.035 138.858 133.317 139.13L133.629 137.663L133.94 136.195C132.242 135.835 130.537 135.84 128.84 136.208L129.159 137.674ZM133.629 137.663L133.317 139.13C134.908 139.467 136.502 139.636 138.1 139.635L138.099 138.135L138.098 136.635C136.715 136.636 135.33 136.49 133.94 136.195L133.629 137.663ZM138.099 138.135L138.1 139.635C139.681 139.634 141.26 139.49 142.837 139.203L142.569 137.727L142.3 136.252C140.897 136.507 139.497 136.635 138.098 136.635L138.099 138.135ZM142.569 137.727L142.837 139.203C144.255 138.945 145.67 138.795 147.083 138.753L147.039 137.254L146.994 135.755C145.428 135.801 143.863 135.967 142.3 136.252L142.569 137.727ZM147.039 137.254L147.083 138.753C148.461 138.712 149.84 138.825 151.224 139.093L151.509 137.62L151.794 136.147C150.197 135.838 148.597 135.707 146.994 135.755L147.039 137.254ZM151.509 137.62L151.224 139.093C152.812 139.4 154.405 139.544 155.999 139.522L155.979 138.023L155.958 136.523C154.573 136.541 153.185 136.417 151.794 136.147L151.509 137.62ZM155.979 138.023L155.999 139.522C156.752 139.512 157.355 139.492 157.788 139.458C157.998 139.441 158.213 139.419 158.401 139.381C158.489 139.364 158.633 139.332 158.788 139.27C158.865 139.239 158.993 139.181 159.132 139.082C159.259 138.992 159.504 138.79 159.656 138.435L158.278 137.842L156.9 137.25C157.047 136.907 157.281 136.718 157.391 136.639C157.513 136.552 157.619 136.506 157.668 136.486C157.724 136.464 157.767 136.452 157.786 136.447C157.807 136.441 157.819 136.438 157.819 136.438C157.82 136.438 157.814 136.439 157.801 136.441C157.788 136.443 157.77 136.446 157.746 136.449C157.698 136.454 157.635 136.461 157.554 136.467C157.22 136.493 156.695 136.513 155.958 136.523L155.979 138.023ZM158.278 137.842L159.738 137.497L159.702 137.347L158.243 137.692L156.783 138.038L156.819 138.188L158.278 137.842ZM158.243 137.692V139.192H158.343V137.692V136.192H158.243V137.692Z" fill="black"/>
<path d="M23.1582 165.718C23.1582 164.889 22.4866 164.218 21.6582 164.218C20.8298 164.218 20.1582 164.889 20.1582 165.718H21.6582H23.1582ZM21.6582 165.818H20.1582V165.832L20.1585 165.845L21.6582 165.818ZM21.4383 217.835V219.335H21.7633L22.0592 219.2L21.4383 217.835ZM21.6582 217.735H23.1582V215.405L21.0373 216.369L21.6582 217.735ZM20.1582 217.835C20.1582 218.663 20.8298 219.335 21.6582 219.335C22.4866 219.335 23.1582 218.663 23.1582 217.835H21.6582H20.1582ZM21.6582 165.718H20.1582V165.818H21.6582H23.1582V165.718H21.6582ZM21.6582 165.818L20.1585 165.845C20.2119 168.745 20.1677 170.879 20.0365 172.283L21.53 172.423L23.0235 172.562C23.1707 170.987 23.2119 168.718 23.1579 165.79L21.6582 165.818ZM21.53 172.423L20.0365 172.283C19.891 173.842 19.8534 175.401 19.9237 176.96L21.4222 176.893L22.9207 176.825C22.8566 175.404 22.8908 173.984 23.0235 172.562L21.53 172.423ZM21.4222 176.893L19.9237 176.96C19.9916 178.464 20.0804 179.968 20.19 181.472L21.686 181.363L23.1821 181.254C23.0744 179.777 22.9873 178.301 22.9207 176.825L21.4222 176.893ZM21.686 181.363L20.19 181.472C20.2968 182.936 20.3656 184.4 20.3964 185.864L21.896 185.833L23.3957 185.801C23.3638 184.285 23.2926 182.769 23.1821 181.254L21.686 181.363ZM21.896 185.833L20.3964 185.864C20.4262 187.284 20.3562 188.704 20.1859 190.124L21.6753 190.303L23.1646 190.481C23.3514 188.922 23.4285 187.362 23.3957 185.801L21.896 185.833ZM21.6753 190.303L20.1859 190.124C19.9979 191.694 19.9362 193.264 20.0012 194.835L21.4999 194.773L22.9986 194.711C22.9403 193.302 22.9956 191.892 23.1646 190.481L21.6753 190.303ZM21.4999 194.773L20.0012 194.835C20.0631 196.331 20.1349 197.828 20.2166 199.325L21.7144 199.243L23.2122 199.161C23.1312 197.678 23.06 196.194 22.9986 194.711L21.4999 194.773ZM21.7144 199.243L20.2166 199.325C20.2962 200.782 20.3286 202.24 20.3137 203.697L21.8136 203.713L23.3135 203.728C23.3291 202.206 23.2953 200.683 23.2122 199.161L21.7144 199.243ZM21.8136 203.713L20.3137 203.697C20.2987 205.169 20.256 206.64 20.1858 208.111L21.6841 208.183L23.1824 208.254C23.2544 206.746 23.2981 205.237 23.3135 203.728L21.8136 203.713ZM21.6841 208.183L20.1858 208.111C20.1137 209.62 20.0699 211.129 20.0542 212.637L21.5542 212.653L23.0541 212.668C23.0693 211.197 23.1121 209.726 23.1824 208.254L21.6841 208.183ZM21.5542 212.653L20.0542 212.637C20.0391 214.101 19.9804 215.285 19.8831 216.203L21.3747 216.361L22.8663 216.52C22.9774 215.472 23.0384 214.185 23.0541 212.668L21.5542 212.653ZM21.3747 216.361L19.8831 216.203C19.8293 216.71 19.7982 217.169 19.8138 217.531C19.8208 217.693 19.8405 217.959 19.9324 218.228C19.9844 218.38 20.3467 219.335 21.4383 219.335V217.835V216.335C21.8973 216.335 22.2599 216.548 22.4829 216.785C22.6716 216.986 22.7464 217.185 22.7713 217.258C22.8212 217.404 22.8146 217.485 22.811 217.402C22.8054 217.272 22.8159 216.995 22.8663 216.52L21.3747 216.361ZM21.4383 217.835L22.0592 219.2L22.2791 219.1L21.6582 217.735L21.0373 216.369L20.8174 216.469L21.4383 217.835ZM21.6582 217.735H20.1582V217.835H21.6582H23.1582V217.735H21.6582Z" fill="black"/>
<path d="M23.454 218.049C22.7575 217.6 21.8293 217.801 21.3806 218.497C20.932 219.194 21.1328 220.122 21.8292 220.571L22.6416 219.31L23.454 218.049ZM22.7257 219.364L21.9133 220.625L21.9782 220.666L22.047 220.701L22.7257 219.364ZM32.0571 225.305L31.4483 226.676L32.0571 225.305ZM43.1458 232.773L42.3161 234.022L43.1458 232.773ZM45.8485 234.511L45.076 235.797L45.0818 235.801L45.8485 234.511ZM46.65 234.988L47.4756 233.736L47.4465 233.716L47.4166 233.699L46.65 234.988ZM45.9078 236.295C46.5994 236.751 47.5298 236.56 47.9858 235.869C48.4418 235.177 48.2507 234.247 47.5591 233.791L46.7334 235.043L45.9078 236.295ZM22.6416 219.31L21.8292 220.571L21.9133 220.625L22.7257 219.364L23.538 218.103L23.454 218.049L22.6416 219.31ZM22.7257 219.364L22.047 220.701C24.6313 222.013 26.3493 223.109 27.3116 223.982L28.3194 222.871L29.3271 221.76C28.0584 220.609 26.0472 219.367 23.4044 218.026L22.7257 219.364ZM28.3194 222.871L27.3116 223.982C28.5454 225.101 29.926 226 31.4483 226.676L32.0571 225.305L32.6659 223.934C31.4356 223.388 30.3243 222.664 29.3271 221.76L28.3194 222.871ZM32.0571 225.305L31.4483 226.676C32.6848 227.225 33.8062 227.945 34.8172 228.839L35.8105 227.715L36.8039 226.591C35.5628 225.494 34.1819 224.607 32.6659 223.934L32.0571 225.305ZM35.8105 227.715L34.8172 228.839C36.0074 229.89 37.2776 230.832 38.6272 231.664L39.4139 230.387L40.2006 229.109C38.9977 228.368 37.8657 227.529 36.8039 226.591L35.8105 227.715ZM39.4139 230.387L38.6272 231.664C39.8893 232.441 41.1189 233.227 42.3161 234.022L43.1458 232.773L43.9756 231.523C42.7492 230.709 41.4908 229.904 40.2006 229.109L39.4139 230.387ZM43.1458 232.773L42.3161 234.022C43.5308 234.829 44.4553 235.424 45.076 235.797L45.8485 234.511L46.621 233.226C46.0617 232.89 45.1845 232.326 43.9756 231.523L43.1458 232.773ZM45.8485 234.511L45.0818 235.801L45.8833 236.277L46.65 234.988L47.4166 233.699L46.6152 233.222L45.8485 234.511ZM46.65 234.988L45.8243 236.24L45.9078 236.295L46.7334 235.043L47.5591 233.791L47.4756 233.736L46.65 234.988Z" fill="black"/>
<path d="M48.2085 236.002C47.3801 236.002 46.7085 236.674 46.7085 237.502C46.7085 238.33 47.3801 239.002 48.2085 239.002V237.502V236.002ZM48.3085 237.502V239.002H48.3932L48.4774 238.992L48.3085 237.502ZM126.434 237.668L126.703 239.143L126.434 237.668ZM153.254 237.233L153.097 238.725L153.254 237.233ZM169.766 237.624L169.976 239.11L169.989 239.108L170.003 239.106L169.766 237.624ZM170.534 237.502V236.002H170.416L170.298 236.021L170.534 237.502ZM170.634 239.002C171.463 239.002 172.134 238.33 172.134 237.502C172.134 236.674 171.463 236.002 170.634 236.002V237.502V239.002ZM48.2085 237.502V239.002H48.3085V237.502V236.002H48.2085V237.502ZM48.3085 237.502L48.4774 238.992C51.364 238.665 53.4306 238.599 54.7493 238.744L54.9135 237.253L55.0777 235.762C53.4164 235.579 51.0797 235.678 48.1396 236.011L48.3085 237.502ZM54.9135 237.253L54.7493 238.744C56.3374 238.919 57.9267 238.936 59.5155 238.796L59.3835 237.302L59.2515 235.807C57.8603 235.93 56.4696 235.915 55.0777 235.762L54.9135 237.253ZM59.3835 237.302L59.5155 238.796C60.9831 238.666 62.4506 238.57 63.9181 238.506L63.8535 237.008L63.7889 235.509C62.2764 235.574 60.7639 235.674 59.2515 235.807L59.3835 237.302ZM63.8535 237.008L63.9181 238.506C65.2994 238.447 66.6821 238.536 68.0679 238.776L68.3235 237.298L68.5791 235.82C66.9849 235.544 65.3876 235.44 63.7889 235.509L63.8535 237.008ZM68.3235 237.298L68.0679 238.776C69.6892 239.056 71.3144 239.118 72.9398 238.958L72.7935 237.466L72.6472 235.973C71.2926 236.105 69.9378 236.055 68.5791 235.82L68.3235 237.298ZM72.7935 237.466L72.9398 238.958C74.3839 238.817 75.8276 238.743 77.2711 238.735L77.2635 237.235L77.2559 235.735C75.7194 235.743 74.1831 235.822 72.6472 235.973L72.7935 237.466ZM77.2635 237.235L77.2711 238.735C78.6898 238.728 80.1091 238.822 81.5298 239.016L81.7335 237.53L81.9372 236.044C80.3778 235.831 78.8172 235.727 77.2559 235.735L77.2635 237.235ZM81.7335 237.53L81.5298 239.016C83.0794 239.229 84.63 239.347 86.1813 239.37L86.2035 237.87L86.2257 236.37C84.797 236.349 83.3676 236.24 81.9372 236.044L81.7335 237.53ZM86.2035 237.87L86.1813 239.37C87.7125 239.392 89.2436 239.352 90.7745 239.249L90.6735 237.752L90.5725 236.255C89.1234 236.353 87.6745 236.391 86.2257 236.37L86.2035 237.87ZM90.6735 237.752L90.7745 239.249C92.2469 239.149 93.7192 239.076 95.1915 239.029L95.1435 237.529L95.0955 236.03C93.5878 236.079 92.0801 236.154 90.5725 236.255L90.6735 237.752ZM95.1435 237.529L95.1915 239.029C96.6702 238.981 98.1489 238.951 99.6275 238.937L99.6135 237.437L99.5995 235.937C98.0981 235.951 96.5968 235.982 95.0955 236.03L95.1435 237.529ZM99.6135 237.437L99.6275 238.937C101.098 238.923 102.569 238.938 104.039 238.981L104.083 237.482L104.128 235.983C102.618 235.938 101.109 235.923 99.5995 235.937L99.6135 237.437ZM104.083 237.482L104.039 238.981C105.499 239.024 106.958 239.112 108.418 239.244L108.553 237.75L108.689 236.256C107.169 236.119 105.648 236.027 104.128 235.983L104.083 237.482ZM108.553 237.75L108.418 239.244C109.99 239.387 111.563 239.399 113.135 239.282L113.023 237.786L112.912 236.29C111.504 236.395 110.097 236.384 108.689 236.256L108.553 237.75ZM113.023 237.786L113.135 239.282C114.604 239.172 116.073 239.093 117.543 239.045L117.493 237.546L117.444 236.047C115.934 236.096 114.423 236.178 112.912 236.29L113.023 237.786ZM117.493 237.546L117.543 239.045C118.948 238.999 120.355 239.071 121.763 239.261L121.964 237.774L122.164 236.288C120.592 236.076 119.019 235.995 117.444 236.047L117.493 237.546ZM121.964 237.774L121.763 239.261C123.41 239.483 125.059 239.444 126.703 239.143L126.434 237.668L126.164 236.192C124.828 236.436 123.497 236.468 122.164 236.288L121.964 237.774ZM126.434 237.668L126.703 239.143C128.069 238.894 129.431 238.82 130.792 238.922L130.904 237.426L131.015 235.93C129.396 235.81 127.778 235.898 126.164 236.192L126.434 237.668ZM130.904 237.426L130.792 238.922C132.316 239.035 133.839 239.096 135.363 239.107L135.374 237.607L135.384 236.107C133.928 236.097 132.471 236.038 131.015 235.93L130.904 237.426ZM135.374 237.607L135.363 239.107C136.917 239.118 138.471 239.029 140.024 238.842L139.844 237.352L139.663 235.863C138.236 236.036 136.81 236.117 135.384 236.107L135.374 237.607ZM139.844 237.352L140.024 238.842C141.397 238.675 142.768 238.672 144.141 238.831L144.313 237.341L144.486 235.851C142.879 235.665 141.27 235.669 139.663 235.863L139.844 237.352ZM144.313 237.341L144.141 238.831C145.755 239.018 147.37 239.003 148.983 238.786L148.784 237.299L148.584 235.813C147.217 235.997 145.852 236.009 144.486 235.851L144.313 237.341ZM148.784 237.299L148.983 238.786C150.356 238.601 151.726 238.581 153.097 238.725L153.254 237.233L153.41 235.741C151.801 235.572 150.191 235.597 148.584 235.813L148.784 237.299ZM153.254 237.233L153.097 238.725C154.684 238.891 156.272 238.901 157.86 238.756L157.724 237.262L157.587 235.769C156.195 235.896 154.803 235.887 153.41 235.741L153.254 237.233ZM157.724 237.262L157.86 238.756C159.236 238.631 160.611 238.662 161.989 238.852L162.194 237.366L162.398 235.88C160.796 235.659 159.191 235.622 157.587 235.769L157.724 237.262ZM162.194 237.366L161.989 238.852C163.538 239.065 165.088 239.185 166.639 239.21L166.664 237.71L166.688 236.21C165.259 236.187 163.829 236.077 162.398 235.88L162.194 237.366ZM166.664 237.71L166.639 239.21C168.124 239.234 169.267 239.21 169.976 239.11L169.766 237.624L169.557 236.139C169.109 236.202 168.183 236.235 166.688 236.21L166.664 237.71ZM169.766 237.624L170.003 239.106L170.77 238.983L170.534 237.502L170.298 236.021L169.53 236.143L169.766 237.624ZM170.534 237.502V239.002H170.634V237.502V236.002H170.534V237.502Z" fill="black"/>
<path d="M175.576 127.859C175.576 127.031 174.905 126.359 174.076 126.359C173.248 126.359 172.576 127.031 172.576 127.859H174.076H175.576ZM174.076 127.959L175.562 128.163L175.576 128.062V127.959H174.076ZM173.895 238.485V239.985H174.28L174.618 239.799L173.895 238.485ZM174.076 238.385H175.576V235.847L173.353 237.071L174.076 238.385ZM172.576 238.485C172.576 239.314 173.248 239.985 174.076 239.985C174.905 239.985 175.576 239.314 175.576 238.485H174.076H172.576ZM174.076 127.859H172.576V127.959H174.076H175.576V127.859H174.076ZM174.076 127.959L172.59 127.756C172.187 130.696 172.039 133.04 172.202 134.71L173.695 134.564L175.188 134.419C175.06 133.109 175.167 131.049 175.562 128.163L174.076 127.959ZM173.695 134.564L172.202 134.71C172.341 136.129 172.378 137.548 172.314 138.967L173.813 139.034L175.311 139.102C175.381 137.54 175.34 135.979 175.188 134.419L173.695 134.564ZM173.813 139.034L172.314 138.967C172.246 140.47 172.198 141.973 172.169 143.475L173.669 143.504L175.169 143.533C175.197 142.056 175.245 140.579 175.311 139.102L173.813 139.034ZM173.669 143.504L172.169 143.475C172.14 144.977 172.128 146.478 172.132 147.979L173.632 147.974L175.132 147.97C175.128 146.491 175.14 145.012 175.169 143.533L173.669 143.504ZM173.632 147.974L172.132 147.979C172.137 149.503 172.193 151.027 172.301 152.551L173.798 152.444L175.294 152.338C175.19 150.882 175.136 149.426 175.132 147.97L173.632 147.974ZM173.798 152.444L172.301 152.551C172.405 154.01 172.464 155.47 172.479 156.929L173.979 156.914L175.479 156.899C175.463 155.379 175.402 153.858 175.294 152.338L173.798 152.444ZM173.979 156.914L172.479 156.929C172.493 158.381 172.453 159.834 172.357 161.286L173.854 161.384L175.351 161.483C175.451 159.955 175.494 158.427 175.479 156.899L173.979 156.914ZM173.854 161.384L172.357 161.286C172.257 162.801 172.196 164.317 172.174 165.833L173.674 165.854L175.174 165.876C175.195 164.412 175.254 162.947 175.351 161.483L173.854 161.384ZM173.674 165.854L172.174 165.833C172.152 167.367 172.198 168.902 172.312 170.436L173.808 170.324L175.304 170.213C175.196 168.767 175.153 167.322 175.174 165.876L173.674 165.854ZM173.808 170.324L172.312 170.436C172.426 171.954 172.581 173.471 172.779 174.988L174.267 174.794L175.754 174.6C175.563 173.138 175.413 171.675 175.304 170.213L173.808 170.324ZM174.267 174.794L172.779 174.988C172.963 176.398 173.032 177.807 172.985 179.215L174.484 179.264L175.983 179.314C176.035 177.742 175.959 176.17 175.754 174.6L174.267 174.794ZM174.484 179.264L172.985 179.215C172.937 180.674 172.844 182.134 172.706 183.593L174.199 183.734L175.693 183.875C175.836 182.355 175.933 180.835 175.983 179.314L174.484 179.264ZM174.199 183.734L172.706 183.593C172.565 185.081 172.421 186.568 172.273 188.056L173.766 188.204L175.258 188.353C175.407 186.86 175.552 185.368 175.693 183.875L174.199 183.734ZM173.766 188.204L172.273 188.056C172.118 189.614 172.071 191.173 172.131 192.733L173.63 192.674L175.129 192.616C175.074 191.195 175.117 189.774 175.258 188.353L173.766 188.204ZM173.63 192.674L172.131 192.733C172.191 194.261 172.308 195.788 172.484 197.316L173.974 197.144L175.464 196.973C175.297 195.52 175.186 194.068 175.129 192.616L173.63 192.674ZM173.974 197.144L172.484 197.316C172.653 198.783 172.787 200.249 172.886 201.716L174.383 201.614L175.879 201.513C175.777 200 175.638 198.486 175.464 196.973L173.974 197.144ZM174.383 201.614L172.886 201.716C172.979 203.085 172.907 204.455 172.669 205.828L174.147 206.084L175.625 206.34C175.903 204.734 175.988 203.124 175.879 201.513L174.383 201.614ZM174.147 206.084L172.669 205.828C172.398 207.393 172.248 208.959 172.219 210.527L173.719 210.554L175.219 210.582C175.245 209.17 175.38 207.756 175.625 206.34L174.147 206.084ZM173.719 210.554L172.219 210.527C172.191 212.067 172.24 213.608 172.368 215.148L173.863 215.024L175.358 214.901C175.238 213.461 175.192 212.021 175.219 210.582L173.719 210.554ZM173.863 215.024L172.368 215.148C172.487 216.593 172.541 218.037 172.528 219.481L174.028 219.494L175.528 219.508C175.541 217.972 175.485 216.436 175.358 214.901L173.863 215.024ZM174.028 219.494L172.528 219.481C172.515 220.974 172.506 222.467 172.501 223.959L174.001 223.964L175.501 223.969C175.506 222.482 175.515 220.995 175.528 219.508L174.028 219.494ZM174.001 223.964L172.501 223.959C172.496 225.467 172.518 226.975 172.567 228.483L174.066 228.434L175.565 228.386C175.518 226.914 175.496 225.441 175.501 223.969L174.001 223.964ZM174.066 228.434L172.567 228.483C172.617 230.013 172.727 231.542 172.898 233.071L174.389 232.904L175.88 232.737C175.717 231.286 175.613 229.836 175.565 228.386L174.066 228.434ZM174.389 232.904L172.898 233.071C173.05 234.425 172.976 235.527 172.731 236.412L174.176 236.812L175.622 237.213C175.994 235.867 176.062 234.364 175.88 232.737L174.389 232.904ZM174.176 236.812L172.731 236.412C172.574 236.979 172.455 237.459 172.395 237.818C172.368 237.979 172.334 238.215 172.346 238.454C172.351 238.554 172.368 238.821 172.509 239.111C172.684 239.474 173.134 239.985 173.895 239.985V238.485V236.985C174.197 236.985 174.505 237.079 174.767 237.273C175.009 237.452 175.141 237.664 175.21 237.807C175.333 238.062 175.341 238.277 175.342 238.308C175.347 238.407 175.333 238.434 175.353 238.316C175.387 238.117 175.47 237.761 175.622 237.213L174.176 236.812ZM173.895 238.485L174.618 239.799L174.8 239.699L174.076 238.385L173.353 237.071L173.171 237.171L173.895 238.485ZM174.076 238.385H172.576V238.485H174.076H175.576V238.385H174.076Z" fill="black"/>
<path d="M172.109 236.493C171.281 236.493 170.609 237.165 170.609 237.993C170.609 238.822 171.281 239.493 172.109 239.493V237.993V236.493ZM172.209 237.993V239.493H172.407L172.598 239.442L172.209 237.993ZM174.469 238.011L173.772 239.339L174.469 238.011ZM176.043 237.713L177.455 238.218L177.543 237.973V237.713H176.043ZM175.943 237.993L174.53 237.489L173.814 239.493H175.943V237.993ZM176.043 239.493C176.871 239.493 177.543 238.822 177.543 237.993C177.543 237.165 176.871 236.493 176.043 236.493V237.993V239.493ZM172.109 237.993V239.493H172.209V237.993V236.493H172.109V237.993ZM172.209 237.993L172.598 239.442C173.457 239.211 173.751 239.328 173.772 239.339L174.469 238.011L175.167 236.683C174.139 236.143 172.926 236.248 171.82 236.544L172.209 237.993ZM174.469 238.011L173.772 239.339C174.165 239.546 174.681 239.734 175.262 239.694C175.911 239.648 176.452 239.331 176.824 238.861L175.649 237.929L174.474 236.996C174.518 236.942 174.594 236.866 174.71 236.803C174.828 236.739 174.949 236.708 175.054 236.701C175.241 236.688 175.298 236.752 175.167 236.683L174.469 238.011ZM175.649 237.929L176.824 238.861C176.847 238.833 176.864 238.812 176.877 238.797C176.89 238.782 176.896 238.777 176.894 238.778C176.893 238.779 176.878 238.795 176.849 238.819C176.824 238.84 176.761 238.89 176.665 238.942C176.585 238.987 175.777 239.404 175.03 238.75C174.736 238.492 174.628 238.193 174.588 238.044C174.546 237.888 174.543 237.765 174.543 237.713H176.043H177.543C177.543 237.615 177.535 237.453 177.485 237.266C177.437 237.087 177.317 236.765 177.006 236.493C176.226 235.81 175.37 236.232 175.223 236.312C174.993 236.438 174.828 236.601 174.749 236.681C174.651 236.781 174.558 236.891 174.474 236.996L175.649 237.929ZM176.043 237.713L174.63 237.209L174.53 237.489L175.943 237.993L177.355 238.498L177.455 238.218L176.043 237.713ZM175.943 237.993V239.493H176.043V237.993V236.493H175.943V237.993Z" fill="black"/>
<path d="M48.011 235.048C47.1986 234.885 46.4084 235.412 46.2459 236.224C46.0835 237.037 46.6103 237.827 47.4226 237.989L47.7168 236.519L48.011 235.048ZM47.8149 236.538L48.5606 235.237L48.3486 235.115L48.109 235.067L47.8149 236.538ZM49.0988 237.216L48.481 238.583L49.0988 237.216ZM49.8535 237.361L49.4744 235.91L49.8535 237.361ZM50.1517 237.15L51.6309 237.399L51.7086 236.937L51.5099 236.513L50.1517 237.15ZM50.0771 236.991L50.3713 235.52L47.458 234.937L48.7189 237.627L50.0771 236.991ZM49.881 238.481C50.6933 238.644 51.4836 238.117 51.646 237.304C51.8085 236.492 51.2817 235.702 50.4693 235.539L50.1751 237.01L49.881 238.481ZM47.7168 236.519L47.4226 237.989L47.5207 238.009L47.8149 236.538L48.109 235.067L48.011 235.048L47.7168 236.519ZM47.8149 236.538L47.0691 237.84C47.6205 238.156 48.0965 238.409 48.481 238.583L49.0988 237.216L49.7165 235.849C49.461 235.733 49.081 235.535 48.5606 235.237L47.8149 236.538ZM49.0988 237.216L48.481 238.583C48.8797 238.763 49.5333 238.995 50.2326 238.812L49.8535 237.361L49.4744 235.91C49.6618 235.861 49.7907 235.884 49.8109 235.888C49.8339 235.892 49.8061 235.889 49.7165 235.849L49.0988 237.216ZM49.8535 237.361L50.2326 238.812C50.413 238.765 50.6768 238.677 50.9326 238.496C51.2086 238.301 51.539 237.944 51.6309 237.399L50.1517 237.15L48.6725 236.901C48.7486 236.448 49.0215 236.174 49.1982 236.048C49.2827 235.989 49.3544 235.955 49.396 235.937C49.4387 235.919 49.4672 235.912 49.4744 235.91L49.8535 237.361ZM50.1517 237.15L51.5099 236.513L51.4353 236.354L50.0771 236.991L48.7189 237.627L48.7934 237.786L50.1517 237.15ZM50.0771 236.991L49.7829 238.461L49.881 238.481L50.1751 237.01L50.4693 235.539L50.3713 235.52L50.0771 236.991Z" fill="black"/>
<path d="M21.1139 165.125C20.5148 165.697 20.493 166.647 21.0652 167.246C21.6373 167.845 22.5868 167.867 23.1859 167.295L22.1499 166.21L21.1139 165.125ZM22.2222 166.141L23.2582 167.226L23.2762 167.208L23.2937 167.191L22.2222 166.141ZM27.1519 161.737L28 162.974L27.1519 161.737ZM30.406 158.676L29.2215 157.756L30.406 158.676ZM33.1241 155.106L31.9218 154.209L33.1241 155.106ZM36.0942 151.77L35.0639 150.68L36.0942 151.77ZM41.9831 145.046L40.8217 144.097L41.9831 145.046ZM53.1624 131.166L51.8966 130.361L53.1624 131.166ZM56.047 127.761L55.0459 126.644L56.047 127.761ZM66.7032 122.304L68.1064 122.834L66.7032 122.304ZM68.5712 118.854L67.3856 117.935L68.5712 118.854ZM76.4582 117.5L76.2959 116.009L76.4582 117.5ZM83.9567 115.332L84.1934 116.813L83.9567 115.332ZM85.0993 115.111L86.4704 114.503L86.1334 113.743L85.3106 113.626L85.0993 115.111ZM84.9855 115.095L84.699 113.623L84.7743 116.58L84.9855 115.095ZM85.3703 116.549C86.1834 116.39 86.7143 115.603 86.5561 114.79C86.3978 113.976 85.6103 113.446 84.7971 113.604L85.0837 115.076L85.3703 116.549ZM22.1499 166.21L23.1859 167.295L23.2582 167.226L22.2222 166.141L21.1862 165.056L21.1139 165.125L22.1499 166.21ZM22.2222 166.141L23.2937 167.191C25.3132 165.129 26.8745 163.746 28 162.974L27.1519 161.737L26.3038 160.5C24.9315 161.441 23.2063 162.993 21.1508 165.091L22.2222 166.141ZM27.1519 161.737L28 162.974C29.3755 162.031 30.574 160.904 31.5905 159.596L30.406 158.676L29.2215 157.756C28.397 158.817 27.4261 159.731 26.3038 160.5L27.1519 161.737ZM30.406 158.676L31.5905 159.596C32.517 158.404 33.429 157.206 34.3265 156.003L33.1241 155.106L31.9218 154.209C31.0361 155.396 30.136 156.579 29.2215 157.756L30.406 158.676ZM33.1241 155.106L34.3265 156.003C35.1662 154.877 36.0986 153.83 37.1245 152.86L36.0942 151.77L35.0639 150.68C33.9129 151.768 32.8653 152.944 31.9218 154.209L33.1241 155.106ZM36.0942 151.77L37.1245 152.86C38.2581 151.789 39.3186 150.654 40.3057 149.455L39.1478 148.502L37.9899 147.548C37.0825 148.65 36.1073 149.694 35.0639 150.68L36.0942 151.77ZM39.1478 148.502L40.3057 149.455C41.2541 148.304 42.2004 147.15 43.1445 145.995L41.9831 145.046L40.8217 144.097C39.8799 145.249 38.9359 146.4 37.9899 147.548L39.1478 148.502ZM41.9831 145.046L43.1445 145.995C44.0658 144.868 45.0281 143.77 46.0315 142.7L44.9375 141.674L43.8435 140.647C42.7937 141.767 41.7864 142.916 40.8217 144.097L41.9831 145.046ZM44.9375 141.674L46.0315 142.7C47.0997 141.561 48.0916 140.365 49.0068 139.113L47.7957 138.228L46.5845 137.343C45.742 138.496 44.8285 139.597 43.8435 140.647L44.9375 141.674ZM47.7957 138.228L49.0068 139.113C49.865 137.938 50.7554 136.806 51.6779 135.716L50.5329 134.747L49.3878 133.778C48.4185 134.923 47.4841 136.112 46.5845 137.343L47.7957 138.228ZM50.5329 134.747L51.6779 135.716C52.6689 134.545 53.5856 133.296 54.4283 131.971L53.1624 131.166L51.8966 130.361C51.1249 131.575 50.2886 132.713 49.3878 133.778L50.5329 134.747ZM53.1624 131.166L54.4283 131.971C55.1622 130.816 56.0347 129.786 57.0481 128.878L56.047 127.761L55.0459 126.644C53.8275 127.736 52.777 128.976 51.8966 130.361L53.1624 131.166ZM56.047 127.761L57.0481 128.878C58.0371 127.992 59.1152 127.322 60.2863 126.859L59.7343 125.464L59.1823 124.069C57.6688 124.668 56.2888 125.53 55.0459 126.644L56.047 127.761ZM59.7343 125.464L60.2863 126.859C61.4944 126.381 62.7183 126.094 63.962 125.995L63.8424 124.5L63.7227 123.004C62.1735 123.128 60.6586 123.485 59.1823 124.069L59.7343 125.464ZM63.8424 124.5L63.962 125.995C64.9 125.92 65.7759 125.627 66.5182 125.057C67.2578 124.489 67.7725 123.718 68.1064 122.834L66.7032 122.304L65.3 121.774C65.1232 122.242 64.9057 122.513 64.6916 122.677C64.4803 122.839 64.1812 122.968 63.7227 123.004L63.8424 124.5ZM66.7032 122.304L68.1064 122.834C68.5749 121.594 69.1302 120.581 69.7568 119.773L68.5712 118.854L67.3856 117.935C66.543 119.022 65.853 120.31 65.3 121.774L66.7032 122.304ZM68.5712 118.854L69.7568 119.773C70.1023 119.327 70.6786 119.004 71.8546 119.083L71.9561 117.587L72.0575 116.09C70.1897 115.964 68.5094 116.485 67.3856 117.935L68.5712 118.854ZM71.9561 117.587L71.8546 119.083C73.4623 119.192 75.0513 119.162 76.6205 118.991L76.4582 117.5L76.2959 116.009C74.9062 116.16 73.4937 116.188 72.0575 116.09L71.9561 117.587ZM76.4582 117.5L76.6205 118.991C78.2454 118.814 79.814 118.407 81.3218 117.769L80.7379 116.388L80.154 115.006C78.9145 115.53 77.63 115.864 76.2959 116.009L76.4582 117.5ZM80.7379 116.388L81.3218 117.769C82.6653 117.202 83.604 116.907 84.1934 116.813L83.9567 115.332L83.72 113.851C82.765 114.003 81.5579 114.413 80.154 115.006L80.7379 116.388ZM83.9567 115.332L84.1934 116.813C84.5829 116.751 84.8906 116.699 85.1057 116.657C85.2075 116.637 85.3179 116.615 85.4138 116.59C85.4503 116.58 85.548 116.554 85.6565 116.509C85.6926 116.495 85.8485 116.431 86.0147 116.303C86.0934 116.242 86.2834 116.085 86.4268 115.812C86.6 115.483 86.6896 114.997 86.4704 114.503L85.0993 115.111L83.7283 115.72C83.5098 115.227 83.5992 114.743 83.7716 114.416C83.9141 114.145 84.1025 113.989 84.1787 113.93C84.3401 113.805 84.4882 113.746 84.5134 113.736C84.5649 113.715 84.6045 113.702 84.6198 113.697C84.6383 113.692 84.6506 113.688 84.6538 113.687C84.6571 113.687 84.626 113.694 84.5374 113.711C84.3715 113.743 84.1027 113.79 83.72 113.851L83.9567 115.332ZM85.0993 115.111L85.3106 113.626L85.1968 113.61L84.9855 115.095L84.7743 116.58L84.8881 116.597L85.0993 115.111ZM84.9855 115.095L85.2721 116.568L85.3703 116.549L85.0837 115.076L84.7971 113.604L84.699 113.623L84.9855 115.095Z" fill="black"/>
<path d="M91.1683 113.607C90.3574 113.777 89.8377 114.572 90.0074 115.383C90.1771 116.194 90.9721 116.713 91.7829 116.544L91.4756 115.076L91.1683 113.607ZM91.5735 115.055L91.8808 116.523L91.8925 116.521L91.5735 115.055ZM105.137 112.695L105.33 114.182L105.331 114.182L105.137 112.695ZM105.635 112.63L105.447 111.142L105.441 111.142L105.635 112.63ZM105.922 114.105C106.744 114.002 107.326 113.251 107.222 112.429C107.118 111.607 106.368 111.025 105.546 111.129L105.734 112.617L105.922 114.105ZM91.4756 115.076L91.7829 116.544L91.8808 116.523L91.5735 115.055L91.2661 113.587L91.1683 113.607L91.4756 115.076ZM91.5735 115.055L91.8925 116.521C94.6905 115.912 96.7979 115.483 98.2262 115.23L97.9649 113.753L97.7035 112.276C96.2158 112.539 94.0623 112.978 91.2544 113.589L91.5735 115.055ZM97.9649 113.753L98.2262 115.23C99.6642 114.975 101.104 114.751 102.547 114.556L102.346 113.069L102.145 111.583C100.662 111.783 99.1815 112.014 97.7035 112.276L97.9649 113.753ZM102.346 113.069L102.547 114.556C104.011 114.357 104.937 114.233 105.33 114.182L105.137 112.695L104.944 111.207C104.541 111.26 103.606 111.385 102.145 111.583L102.346 113.069ZM105.137 112.695L105.331 114.182L105.829 114.117L105.635 112.63L105.441 111.142L104.943 111.207L105.137 112.695ZM105.635 112.63L105.823 114.118L105.922 114.105L105.734 112.617L105.546 111.129L105.447 111.142L105.635 112.63Z" fill="black"/>
<path d="M112.17 112.692C111.396 112.396 110.529 112.783 110.233 113.557C109.937 114.331 110.325 115.198 111.099 115.494L111.634 114.093L112.17 112.692ZM111.728 114.128L111.192 115.53L111.443 115.625L111.711 115.628L111.728 114.128ZM124.133 120.216L123.478 121.565L124.133 120.216ZM128.212 121.046L128.166 119.547L128.212 121.046ZM141.548 122.097L141.505 123.596L141.548 122.097ZM146.015 122.161L146.015 120.661L146.015 122.161ZM150.479 122.531L150.723 121.051L150.479 122.531ZM168.307 123.723L167.949 125.18L168.307 123.723ZM172.273 125.742L171.308 126.89L172.273 125.742ZM174.705 129.41L173.272 129.852L174.705 129.41ZM175.221 131.697L175.366 133.19L175.701 133.157L175.99 132.985L175.221 131.697ZM174.992 131.719L174.847 130.226L171.863 130.517L173.885 132.731L174.992 131.719ZM173.952 132.805C174.511 133.416 175.46 133.459 176.071 132.9C176.683 132.342 176.726 131.393 176.167 130.781L175.06 131.793L173.952 132.805ZM111.634 114.093L111.099 115.494L111.192 115.53L111.728 114.128L112.263 112.727L112.17 112.692L111.634 114.093ZM111.728 114.128L111.711 115.628C114.613 115.66 116.742 115.8 118.143 116.03L118.386 114.55L118.629 113.07C116.999 112.802 114.689 112.661 111.744 112.629L111.728 114.128ZM118.386 114.55L118.143 116.03C119.114 116.189 119.705 116.671 120.064 117.64L121.471 117.12L122.878 116.6C122.153 114.64 120.688 113.408 118.629 113.07L118.386 114.55ZM121.471 117.12L120.064 117.64C120.719 119.413 121.847 120.773 123.478 121.565L124.133 120.216L124.789 118.866C123.952 118.46 123.305 117.756 122.878 116.6L121.471 117.12ZM124.133 120.216L123.478 121.565C124.948 122.279 126.551 122.598 128.258 122.546L128.212 121.046L128.166 119.547C126.903 119.586 125.787 119.351 124.789 118.866L124.133 120.216ZM128.212 121.046L128.258 122.546C129.581 122.505 130.898 122.675 132.213 123.06L132.635 121.621L133.056 120.181C131.446 119.71 129.814 119.497 128.166 119.547L128.212 121.046ZM132.635 121.621L132.213 123.06C133.835 123.535 135.482 123.732 137.148 123.647L137.072 122.148L136.995 120.65C135.672 120.718 134.361 120.563 133.056 120.181L132.635 121.621ZM137.072 122.148L137.148 123.647C138.604 123.572 140.056 123.556 141.505 123.596L141.548 122.097L141.59 120.598C140.061 120.554 138.53 120.572 136.995 120.65L137.072 122.148ZM141.548 122.097L141.505 123.596C143.008 123.639 144.511 123.66 146.014 123.661L146.015 122.161L146.015 120.661C144.54 120.66 143.065 120.639 141.59 120.598L141.548 122.097ZM146.015 122.161L146.014 123.661C147.42 123.662 148.827 123.778 150.235 124.011L150.479 122.531L150.723 121.051C149.157 120.792 147.587 120.662 146.015 120.661L146.015 122.161ZM150.479 122.531L150.235 124.011C151.811 124.271 153.392 124.386 154.976 124.354L154.946 122.854L154.916 121.355C153.518 121.383 152.121 121.282 150.723 121.051L150.479 122.531ZM154.946 122.854L154.976 124.354C156.439 124.325 157.898 124.337 159.354 124.391L159.409 122.892L159.464 121.393C157.951 121.337 156.435 121.324 154.916 121.355L154.946 122.854ZM159.409 122.892L159.354 124.391C160.833 124.445 162.314 124.507 163.797 124.575L163.866 123.077L163.935 121.579C162.444 121.509 160.953 121.448 159.464 121.393L159.409 122.892ZM163.866 123.077L163.797 124.575C165.185 124.64 166.568 124.841 167.949 125.18L168.307 123.723L168.665 122.266C167.098 121.882 165.522 121.652 163.935 121.579L163.866 123.077ZM168.307 123.723L167.949 125.18C169.197 125.486 170.312 126.053 171.308 126.89L172.273 125.742L173.239 124.594C171.893 123.463 170.364 122.683 168.665 122.266L168.307 123.723ZM172.273 125.742L171.308 126.89C172.258 127.689 172.907 128.667 173.272 129.852L174.705 129.41L176.139 128.968C175.603 127.231 174.63 125.764 173.239 124.594L172.273 125.742ZM174.705 129.41L173.272 129.852C173.495 130.573 173.636 131.084 173.709 131.407C173.747 131.577 173.754 131.64 173.753 131.635C173.753 131.628 173.751 131.607 173.751 131.575C173.752 131.545 173.754 131.486 173.766 131.407C173.777 131.336 173.805 131.195 173.884 131.03C173.964 130.862 174.131 130.6 174.451 130.409L175.221 131.697L175.99 132.985C176.621 132.607 176.714 131.97 176.729 131.873C176.761 131.674 176.752 131.499 176.744 131.401C176.728 131.189 176.683 130.958 176.636 130.747C176.536 130.308 176.367 129.707 176.139 128.968L174.705 129.41ZM175.221 131.697L175.075 130.204L174.847 130.226L174.992 131.719L175.138 133.212L175.366 133.19L175.221 131.697ZM174.992 131.719L173.885 132.731L173.952 132.805L175.06 131.793L176.167 130.781L176.1 130.707L174.992 131.719Z" fill="black"/>
<path d="M0.41672 18.654C-0.156301 19.2522 -0.135827 20.2018 0.462452 20.7748C1.06073 21.3478 2.01026 21.3273 2.58328 20.7291L1.5 19.6915L0.41672 18.654ZM1.56917 19.6193L0.524542 18.5428L0.50486 18.5619L0.48589 18.5817L1.56917 19.6193ZM17.0746 4.76235L18.4957 4.28243L18.3984 3.99424L18.1965 3.76673L17.0746 4.76235ZM17.1566 5.00545L15.7355 5.48537L16.4359 7.55949L18.1173 6.15749L17.1566 5.00545ZM18.1941 6.09344C18.8303 5.5629 18.916 4.61703 18.3855 3.98078C17.8549 3.34452 16.9091 3.25883 16.2728 3.78937L17.2334 4.94141L18.1941 6.09344ZM1.5 19.6915L2.58328 20.7291L2.65245 20.6568L1.56917 19.6193L0.48589 18.5817L0.41672 18.654L1.5 19.6915ZM1.56917 19.6193L2.6138 20.6957C4.70522 18.6662 6.27124 17.1106 7.3028 16.0364L6.22091 14.9974L5.13901 13.9585C4.14534 14.9932 2.61021 16.5188 0.524542 18.5428L1.56917 19.6193ZM6.22091 14.9974L7.3028 16.0364C8.32652 14.9704 9.34529 13.8754 10.3591 12.7513L9.24525 11.7467L8.13138 10.7421C7.13799 11.8435 6.14052 12.9156 5.13901 13.9585L6.22091 14.9974ZM9.24525 11.7467L10.3591 12.7513C11.3418 11.6619 12.3591 10.6024 13.4113 9.57295L12.3622 8.5008L11.3132 7.42865C10.2166 8.50162 9.15596 9.6061 8.13138 10.7421L9.24525 11.7467ZM12.3622 8.5008L13.4113 9.57295C14.456 8.55076 15.445 7.67024 16.3786 6.92744L15.4447 5.75364L14.5108 4.57984C13.4831 5.3975 12.4172 6.34842 11.3132 7.42865L12.3622 8.5008ZM15.4447 5.75364L16.3786 6.92744C16.8573 6.54662 17.1786 6.31688 17.3671 6.20222C17.4732 6.13771 17.4633 6.15556 17.3769 6.18367C17.3373 6.19653 17.184 6.2449 16.9661 6.2379C16.7305 6.23033 16.2984 6.14762 15.9526 5.75798L17.0746 4.76235L18.1965 3.76673C17.8242 3.34724 17.3519 3.24875 17.0625 3.23945C16.7908 3.23072 16.5701 3.29141 16.4493 3.33065C16.2006 3.41153 15.9737 3.53837 15.8082 3.63907C15.4534 3.85485 15.0128 4.18043 14.5108 4.57984L15.4447 5.75364ZM17.0746 4.76235L15.6534 5.24227L15.7355 5.48537L17.1566 5.00545L18.5778 4.52553L18.4957 4.28243L17.0746 4.76235ZM17.1566 5.00545L18.1173 6.15749L18.1941 6.09344L17.2334 4.94141L16.2728 3.78937L16.196 3.85341L17.1566 5.00545Z" fill="black"/>
<path d="M3.25114 18.217C2.43686 18.0646 1.65317 18.6011 1.50072 19.4154C1.34826 20.2296 1.88478 21.0133 2.69906 21.1658L2.9751 19.6914L3.25114 18.217ZM3.07339 19.7098L3.36759 18.2389L3.35852 18.2371L3.34943 18.2354L3.07339 19.7098ZM9.55166 20.8229L9.37697 22.3127L9.55166 20.8229ZM30.4129 27.1166L31.5017 26.0848L30.4129 27.1166ZM33.8396 29.9838L33.0175 31.2384L33.8396 29.9838ZM37.3271 32.7119L36.306 33.8106L37.3271 32.7119ZM46.9401 42.0009L48.0175 40.9573L46.9401 42.0009ZM52.6419 48.8959L51.5872 49.9625L52.6419 48.8959ZM55.6813 52.1586L56.8198 51.182L55.6813 52.1586ZM63.5381 62.9642L64.9233 62.3887L63.5381 62.9642ZM65.4483 67.0303L64.1211 67.7293L65.4483 67.0303ZM70.4413 74.4732L71.8103 73.8601L70.4413 74.4732ZM71.8839 78.7205L73.3431 78.3729L71.8839 78.7205ZM73.4489 82.9112L72.119 83.605L73.4489 82.9112ZM81.4148 98.7634L79.9682 99.1598L81.4148 98.7634ZM82.788 103.013L81.3821 103.536L82.788 103.013ZM83.7963 107.369L82.3033 107.515L83.7963 107.369ZM85.2572 114.691L86.7132 115.052L86.7218 115.017L86.7287 114.982L85.2572 114.691ZM85.0647 115.469L83.6086 115.109L83.5285 115.432L83.5931 115.76L85.0647 115.469ZM83.6124 115.858C83.7729 116.67 84.5619 117.199 85.3746 117.039C86.1873 116.878 86.7161 116.089 86.5556 115.277L85.084 115.567L83.6124 115.858ZM2.9751 19.6914L2.69906 21.1658L2.79735 21.1842L3.07339 19.7098L3.34943 18.2354L3.25114 18.217L2.9751 19.6914ZM3.07339 19.7098L2.77919 21.1807C5.63636 21.7522 7.84371 22.1329 9.37697 22.3127L9.55166 20.8229L9.72634 19.3331C8.31684 19.1678 6.20535 18.8065 3.36759 18.2389L3.07339 19.7098ZM9.55166 20.8229L9.37697 22.3127C10.7705 22.4761 12.1576 22.749 13.5388 23.1321L13.9397 21.6866L14.3406 20.2412C12.8138 19.8177 11.2756 19.5148 9.72634 19.3331L9.55166 20.8229ZM13.9397 21.6866L13.5388 23.1321C15.1047 23.5664 16.694 23.8132 18.3044 23.8713L18.3584 22.3723L18.4125 20.8732C17.0393 20.8237 15.6827 20.6134 14.3406 20.2412L13.9397 21.6866ZM18.3584 22.3723L18.3044 23.8713C19.7354 23.9229 21.1549 24.0609 22.563 24.2853L22.799 22.804L23.0351 21.3227C21.506 21.079 19.965 20.9292 18.4125 20.8732L18.3584 22.3723ZM22.799 22.804L22.563 24.2853C23.8398 24.4887 25.0346 24.9254 26.1568 25.6009L26.9303 24.3157L27.7039 23.0306C26.2549 22.1584 24.6955 21.5872 23.0351 21.3227L22.799 22.804ZM26.9303 24.3157L26.1568 25.6009C27.3259 26.3046 28.3808 27.1529 29.3241 28.1483L30.4129 27.1166L31.5017 26.0848C30.3728 24.8935 29.106 23.8745 27.7039 23.0306L26.9303 24.3157ZM30.4129 27.1166L29.3241 28.1483C30.4394 29.3253 31.671 30.356 33.0175 31.2384L33.8396 29.9838L34.6618 28.7292C33.5115 27.9754 32.4586 27.0946 31.5017 26.0848L30.4129 27.1166ZM33.8396 29.9838L33.0175 31.2384C34.1964 32.0109 35.2921 32.8683 36.306 33.8106L37.3271 32.7119L38.3483 31.6132C37.2089 30.5542 35.9797 29.5928 34.6618 28.7292L33.8396 29.9838ZM37.3271 32.7119L36.306 33.8106C37.3321 34.7644 38.3008 35.796 39.2118 36.9065L40.3715 35.955L41.5311 35.0035C40.5363 33.7911 39.4754 32.6608 38.3483 31.6132L37.3271 32.7119ZM40.3715 35.955L39.2118 36.9065C40.2401 38.1597 41.4004 39.2732 42.6912 40.2451L43.5935 39.0468L44.4957 37.8486C43.3964 37.0208 42.4087 36.0731 41.5311 35.0035L40.3715 35.955ZM43.5935 39.0468L42.6912 40.2451C43.8242 41.0983 44.8812 42.0313 45.8627 43.0445L46.9401 42.0009L48.0175 40.9573C46.927 39.8314 45.7528 38.7951 44.4957 37.8486L43.5935 39.0468ZM46.9401 42.0009L45.8627 43.0445C46.84 44.0535 47.7319 45.1437 48.5386 46.3161L49.7744 45.4658L51.0101 44.6155C50.1098 43.3071 49.1122 42.0874 48.0175 40.9573L46.9401 42.0009ZM49.7744 45.4658L48.5386 46.3161C49.4449 47.6332 50.4612 48.8491 51.5872 49.9625L52.6419 48.8959L53.6966 47.8294C52.7062 46.85 51.8108 45.7792 51.0101 44.6155L49.7744 45.4658ZM52.6419 48.8959L51.5872 49.9625C52.6162 50.9801 53.6013 52.0376 54.5427 53.1351L55.6813 52.1586L56.8198 51.182C55.825 50.0222 54.7839 48.9046 53.6966 47.8294L52.6419 48.8959ZM55.6813 52.1586L54.5427 53.1351C55.5106 54.2636 56.4797 55.3943 57.4501 56.5271L58.5893 55.5512L59.7285 54.5754C58.7577 53.4421 57.7881 52.311 56.8198 51.182L55.6813 52.1586ZM58.5893 55.5512L57.4501 56.5271C58.3939 57.6289 59.2919 58.7688 60.1442 59.9467L61.3595 59.0675L62.5747 58.1882C61.6745 56.944 60.7257 55.7397 59.7285 54.5754L58.5893 55.5512ZM61.3595 59.0675L60.1442 59.9467C60.9519 61.0631 61.6212 62.26 62.1529 63.5398L63.5381 62.9642L64.9233 62.3887C64.3027 60.895 63.5195 59.4941 62.5747 58.1882L61.3595 59.0675ZM63.5381 62.9642L62.1529 63.5398C62.7465 64.9684 63.4026 66.3649 64.1211 67.7293L65.4483 67.0303L66.7755 66.3313C66.0995 65.0477 65.4821 63.7335 64.9233 62.3887L63.5381 62.9642ZM65.4483 67.0303L64.1211 67.7293C64.8758 69.1621 65.7986 70.491 66.887 71.7143L68.0076 70.7172L69.1283 69.7202C68.1989 68.6755 67.4155 67.5464 66.7755 66.3313L65.4483 67.0303ZM68.0076 70.7172L66.887 71.7143C67.7951 72.735 68.5222 73.8578 69.0723 75.0863L70.4413 74.4732L71.8103 73.8601C71.1334 72.3486 70.238 70.9674 69.1283 69.7202L68.0076 70.7172ZM70.4413 74.4732L69.0723 75.0863C69.6475 76.3707 70.0982 77.6976 70.4248 79.0682L71.8839 78.7205L73.3431 78.3729C72.9732 76.8203 72.4621 75.3156 71.8103 73.8601L70.4413 74.4732ZM71.8839 78.7205L70.4248 79.0682C70.8017 80.6501 71.3667 82.1632 72.119 83.605L73.4489 82.9112L74.7787 82.2173C74.1409 80.9948 73.6627 79.7142 73.3431 78.3729L71.8839 78.7205ZM73.4489 82.9112L72.119 83.605C72.8258 84.9597 73.5654 86.2933 74.3378 87.6057L75.6305 86.8449L76.9233 86.0842C76.1769 84.8159 75.462 83.5269 74.7787 82.2173L73.4489 82.9112ZM75.6305 86.8449L74.3378 87.6057C75.1549 88.9943 76.1283 90.2892 77.2548 91.49L78.3488 90.4637L79.4427 89.4374C78.4637 88.3939 77.6248 87.2763 76.9233 86.0842L75.6305 86.8449ZM78.3488 90.4637L77.2548 91.49C78.118 92.41 78.6639 93.4677 78.9101 94.69L80.3805 94.3938L81.851 94.0975C81.4937 92.3239 80.6851 90.7616 79.4427 89.4374L78.3488 90.4637ZM80.3805 94.3938L78.9101 94.69C79.2183 96.2202 79.571 97.7102 79.9682 99.1598L81.4148 98.7634L82.8615 98.367C82.4832 96.9862 82.1463 95.5632 81.851 94.0975L80.3805 94.3938ZM81.4148 98.7634L79.9682 99.1598C80.368 100.619 80.8395 102.078 81.3821 103.536L82.788 103.013L84.1938 102.49C83.6812 101.112 83.2372 99.738 82.8615 98.367L81.4148 98.7634ZM82.788 103.013L81.3821 103.536C81.8651 104.835 82.1715 106.16 82.3033 107.515L83.7963 107.369L85.2892 107.224C85.1319 105.607 84.7661 104.029 84.1938 102.49L82.788 103.013ZM83.7963 107.369L82.3033 107.515C82.4588 109.113 82.791 110.67 83.2998 112.184L84.7217 111.707L86.1436 111.229C85.7076 109.931 85.4228 108.597 85.2892 107.224L83.7963 107.369ZM84.7217 111.707L83.2998 112.184C83.5224 112.847 83.6616 113.372 83.7334 113.772C83.7691 113.971 83.7853 114.123 83.7898 114.236C83.792 114.292 83.7912 114.333 83.7895 114.361C83.7877 114.39 83.7852 114.402 83.7856 114.4L85.2572 114.691L86.7287 114.982C86.8394 114.422 86.7887 113.813 86.6863 113.242C86.5796 112.648 86.3934 111.972 86.1436 111.229L84.7217 111.707ZM85.2572 114.691L83.8011 114.331L83.6086 115.109L85.0647 115.469L86.5207 115.829L86.7132 115.052L85.2572 114.691ZM85.0647 115.469L83.5931 115.76L83.6124 115.858L85.084 115.567L86.5556 115.277L86.5362 115.178L85.0647 115.469Z" fill="black"/>
<path d="M19.574 0.861152C19.2211 0.111615 18.3275 -0.209982 17.5779 0.142844C16.8284 0.49567 16.5068 1.38931 16.8596 2.13885L18.2168 1.5L19.574 0.861152ZM18.2594 1.59048L19.6586 1.04981L19.6393 0.999971L19.6165 0.951629L18.2594 1.59048ZM27.6593 19.1569L26.6661 20.281L27.6593 19.1569ZM31.4604 21.541L30.8806 22.9244L31.4604 21.541ZM35.3673 23.764L34.4728 24.9682L35.3673 23.764ZM38.7287 26.7383L39.815 25.7039L38.7287 26.7383ZM42.1739 29.5717L41.3693 30.8376L42.1739 29.5717ZM49.4504 34.7954L50.4311 33.6604L49.4504 34.7954ZM61.4446 47.9668L60.7152 49.2775L61.4446 47.9668ZM64.6624 50.9433L65.9141 50.1167L64.6624 50.9433ZM69.121 58.7082L70.3166 57.8024L69.121 58.7082ZM71.727 62.3368L70.4864 63.18L71.727 62.3368ZM73.771 66.2782L75.174 65.7475L73.771 66.2782ZM76.8693 74.5111L75.5134 75.1527L76.8693 74.5111ZM78.9117 78.4717L77.6028 79.2043L78.9117 78.4717ZM83.3121 86.2454L81.9969 86.9667L83.3121 86.2454ZM91.1467 106.846L92.6419 106.725L91.1467 106.846ZM92.2065 114.286L93.6132 114.807L93.629 114.764L93.6422 114.72L92.2065 114.286ZM91.9504 114.977L90.5438 114.456L90.4038 114.834L90.4721 115.231L91.9504 114.977ZM90.489 115.33C90.6294 116.146 91.4051 116.695 92.2215 116.554C93.038 116.414 93.586 115.638 93.4456 114.822L91.9673 115.076L90.489 115.33ZM18.2168 1.5L16.8596 2.13885L16.9022 2.22933L18.2594 1.59048L19.6165 0.951629L19.574 0.861152L18.2168 1.5ZM18.2594 1.59048L16.8602 2.13114C17.9248 4.88619 18.9476 7.00881 19.945 8.39982L21.164 7.52577L22.383 6.65173C21.6131 5.57792 20.6995 3.74367 19.6586 1.04981L18.2594 1.59048ZM21.164 7.52577L19.945 8.39982C20.7575 9.53302 21.4106 10.7325 21.9072 12L23.3038 11.4527L24.7004 10.9055C24.1113 9.40186 23.3378 7.98335 22.383 6.65173L21.164 7.52577ZM23.3038 11.4527L21.9072 12C22.4586 13.4073 23.0454 14.8082 23.6674 16.2028L25.0373 15.5917L26.4072 14.9806C25.8038 13.6278 25.2348 12.2694 24.7004 10.9055L23.3038 11.4527ZM25.0373 15.5917L23.6674 16.2028C24.3683 17.7739 25.3712 19.1369 26.6661 20.281L27.6593 19.1569L28.6525 18.0329C27.677 17.1709 26.932 16.157 26.4072 14.9806L25.0373 15.5917ZM27.6593 19.1569L26.6661 20.281C27.9242 21.3927 29.3309 22.2749 30.8806 22.9244L31.4604 21.541L32.0402 20.1576C30.7922 19.6345 29.6649 18.9274 28.6525 18.0329L27.6593 19.1569ZM31.4604 21.541L30.8806 22.9244C32.1687 23.4643 33.3652 24.1453 34.4728 24.9682L35.3673 23.764L36.2618 22.5599C34.9578 21.5912 33.5497 20.7902 32.0402 20.1576L31.4604 21.541ZM35.3673 23.764L34.4728 24.9682C35.61 25.813 36.6663 26.7476 37.6423 27.7727L38.7287 26.7383L39.815 25.7039C38.7209 24.5549 37.5363 23.5067 36.2618 22.5599L35.3673 23.764ZM38.7287 26.7383L37.6423 27.7727C38.7612 28.9478 40.0042 29.9701 41.3693 30.8376L42.1739 29.5717L42.9784 28.3057C41.8201 27.5696 40.7662 26.703 39.815 25.7039L38.7287 26.7383ZM42.1739 29.5717L41.3693 30.8376C42.6145 31.629 43.8409 32.4426 45.0485 33.2785L45.9022 32.0452L46.756 30.8118C45.5159 29.9534 44.2567 29.118 42.9784 28.3057L42.1739 29.5717ZM45.9022 32.0452L45.0485 33.2785C46.2277 34.0948 47.3681 34.9787 48.4697 35.9305L49.4504 34.7954L50.4311 33.6604C49.2495 32.6395 48.0245 31.6899 46.756 30.8118L45.9022 32.0452ZM49.4504 34.7954L48.4697 35.9305C49.5146 36.8332 50.4191 37.8449 51.1864 38.967L52.4246 38.1203L53.6628 37.2737C52.7476 35.9353 51.6693 34.7303 50.4311 33.6604L49.4504 34.7954ZM52.4246 38.1203L51.1864 38.967C52.0648 40.2516 53.0238 41.4733 54.0633 42.6319L55.1798 41.6302L56.2963 40.6285C55.3447 39.5678 54.4669 38.4496 53.6628 37.2737L52.4246 38.1203ZM55.1798 41.6302L54.0633 42.6319C55.036 43.7161 55.9773 44.84 56.8873 46.0037L58.0689 45.0798L59.2506 44.1559C58.2995 42.9395 57.3148 41.7637 56.2963 40.6285L55.1798 41.6302ZM58.0689 45.0798L56.8873 46.0037C57.9411 47.3516 59.2201 48.4454 60.7152 49.2775L61.4446 47.9668L62.174 46.6561C61.0291 46.0189 60.0577 45.1881 59.2506 44.1559L58.0689 45.0798ZM61.4446 47.9668L60.7152 49.2775C61.8266 49.896 62.7193 50.7229 63.4107 51.7698L64.6624 50.9433L65.9141 50.1167C64.955 48.6642 63.7025 47.5067 62.174 46.6561L61.4446 47.9668ZM64.6624 50.9433L63.4107 51.7698C64.1925 52.9539 64.8775 54.1927 65.4657 55.4871L66.8313 54.8665L68.1969 54.2458C67.5437 52.8087 66.7827 51.4321 65.9141 50.1167L64.6624 50.9433ZM66.8313 54.8665L65.4657 55.4871C66.1323 56.9539 66.9526 58.3301 67.9254 59.6141L69.121 58.7082L70.3166 57.8024C69.4779 56.6954 68.7717 55.5105 68.1969 54.2458L66.8313 54.8665ZM69.121 58.7082L67.9254 59.6141C68.8158 60.7893 69.6695 61.9779 70.4864 63.18L71.727 62.3368L72.9677 61.4937C72.1214 60.2485 71.2377 59.018 70.3166 57.8024L69.121 58.7082ZM71.727 62.3368L70.4864 63.18C71.2509 64.3048 71.8781 65.5135 72.3681 66.8089L73.771 66.2782L75.174 65.7475C74.6019 64.235 73.8664 62.8162 72.9677 61.4937L71.727 62.3368ZM73.771 66.2782L72.3681 66.8089C72.8915 68.1927 73.3744 69.5592 73.8169 70.9084L75.2422 70.441L76.6675 69.9735C76.2105 68.5802 75.7127 67.1715 75.174 65.7475L73.771 66.2782ZM75.2422 70.441L73.8169 70.9084C74.2866 72.3408 74.8524 73.7556 75.5134 75.1527L76.8693 74.5111L78.2252 73.8696C77.6161 72.5823 77.0971 71.2837 76.6675 69.9735L75.2422 70.441ZM76.8693 74.5111L75.5134 75.1527C76.1631 76.5258 76.8596 77.8763 77.6028 79.2043L78.9117 78.4717L80.2207 77.7392C79.5108 76.4707 78.8456 75.1809 78.2252 73.8696L76.8693 74.5111ZM78.9117 78.4717L77.6028 79.2043C78.3328 80.5086 79.0724 81.8087 79.8217 83.1046L81.1202 82.3538L82.4188 81.603C81.6765 80.3192 80.9438 79.0312 80.2207 77.7392L78.9117 78.4717ZM81.1202 82.3538L79.8217 83.1046C80.5618 84.3847 81.2869 85.672 81.9969 86.9667L83.3121 86.2454L84.6273 85.5242C83.9064 84.2096 83.1702 82.9026 82.4188 81.603L81.1202 82.3538ZM83.3121 86.2454L81.9969 86.9667C82.7416 88.3248 83.5642 89.6289 84.4646 90.8788L85.6817 90.0021L86.8988 89.1253C86.0705 87.9756 85.3134 86.7754 84.6273 85.5242L83.3121 86.2454ZM85.6817 90.0021L84.4646 90.8788C85.1868 91.8814 85.6424 93.0021 85.8329 94.2623L87.316 94.0382L88.7992 93.8141C88.539 92.0924 87.9051 90.5224 86.8988 89.1253L85.6817 90.0021ZM87.316 94.0382L85.8329 94.2623C86.0754 95.8676 86.4985 97.4226 87.1018 98.9251L88.4938 98.3661L89.8858 97.8072C89.3693 96.5209 89.0072 95.1907 88.7992 93.8141L87.316 94.0382ZM88.4938 98.3661L87.1018 98.9251C87.6607 100.317 88.2113 101.699 88.7537 103.072L90.1488 102.52L91.5438 101.969C90.9993 100.591 90.4467 99.2041 89.8858 97.8072L88.4938 98.3661ZM90.1488 102.52L88.7537 103.072C89.2414 104.306 89.5414 105.602 89.6516 106.967L91.1467 106.846L92.6419 106.725C92.5083 105.073 92.1429 103.485 91.5438 101.969L90.1488 102.52ZM91.1467 106.846L89.6516 106.967C89.7803 108.56 90.0411 110.128 90.434 111.672L91.8876 111.302L93.3413 110.933C92.9901 109.552 92.757 108.15 92.6419 106.725L91.1467 106.846ZM91.8876 111.302L90.434 111.672C90.6103 112.365 90.7121 112.904 90.7549 113.304C90.8013 113.738 90.7627 113.878 90.7709 113.851L92.2065 114.286L93.6422 114.72C93.8098 114.167 93.7978 113.546 93.7379 112.985C93.6744 112.391 93.5371 111.702 93.3413 110.933L91.8876 111.302ZM92.2065 114.286L90.7999 113.765L90.5438 114.456L91.9504 114.977L93.357 115.498L93.6132 114.807L92.2065 114.286ZM91.9504 114.977L90.4721 115.231L90.489 115.33L91.9673 115.076L93.4456 114.822L93.4287 114.723L91.9504 114.977Z" fill="black"/>
<path d="M104.741 111.911C104.623 112.731 105.191 113.492 106.011 113.61C106.831 113.729 107.592 113.16 107.71 112.34L106.226 112.125L104.741 111.911ZM106.24 112.026L107.724 112.241L107.731 112.199L107.734 112.156L106.24 112.026ZM107.892 78.7095L106.398 78.5814L107.892 78.7095ZM113.951 61.8367L112.537 61.3372L113.951 61.8367ZM114.779 57.4328L113.28 57.3846L114.779 57.4328ZM115.633 53.0682L117.039 53.5918L115.633 53.0682ZM126.678 47.3042L125.369 48.0365L126.678 47.3042ZM134.296 63.1445L132.976 63.8566L134.296 63.1445ZM136.424 67.096L135.103 67.8064L136.424 67.096ZM144.329 77.2641L143.531 78.5345L144.329 77.2641ZM148.554 71.9404L147.112 71.5264L148.554 71.9404ZM150.317 67.8345L151.609 68.5956L150.317 67.8345ZM152.616 63.9811L153.9 64.7573L152.616 63.9811ZM155.184 60.3179L156.352 61.2599L155.184 60.3179ZM159.364 52.5251L160.749 53.1018V53.1018L159.364 52.5251ZM160.535 48.3577L159.053 48.1231L160.535 48.3577ZM162.435 39.5882L160.958 39.3255L162.435 39.5882ZM173.92 35.8444L173.627 34.3733L173.92 35.8444ZM178.371 35.2219L178.25 33.7268L178.371 35.2219ZM181.43 36.3959L182.709 35.6121L181.43 36.3959ZM181.579 39.9067L180.149 39.4556L181.579 39.9067ZM172.16 54.9687L173.45 55.7334L172.16 54.9687ZM169.891 58.8701L168.588 58.1266L169.891 58.8701ZM167.104 62.3811L166.083 61.282L167.104 62.3811ZM156.406 70.5743L157.499 71.6015L156.406 70.5743ZM148.066 81.1028L146.855 80.2181L148.066 81.1028ZM138.472 87.8073L139.212 86.5028L138.472 87.8073ZM135.852 84.7823L134.476 85.3814L135.852 84.7823ZM134.047 80.7109L132.68 81.3274L134.047 80.7109ZM127.717 69.0145L126.383 69.7018L127.717 69.0145ZM123.652 61.1244L122.386 61.9292L123.652 61.1244ZM121.111 60.6215L122.17 61.684L121.111 60.6215ZM117.64 68.2822L116.358 67.5029L117.64 68.2822ZM115.345 81.3802L113.888 81.0231L115.345 81.3802ZM115.255 85.8315L113.785 86.1292L115.255 85.8315ZM110.323 114.201L109.088 115.053L109.252 115.291L109.493 115.451L110.323 114.201ZM110.18 113.994L111.415 113.142L109.449 110.295L108.714 113.676L110.18 113.994ZM108.693 113.773C108.517 114.583 109.031 115.382 109.84 115.558C110.65 115.734 111.449 115.22 111.625 114.411L110.159 114.092L108.693 113.773ZM106.226 112.125L107.71 112.34L107.724 112.241L106.24 112.026L104.755 111.812L104.741 111.911L106.226 112.125ZM106.24 112.026L107.734 112.156C107.986 109.267 108.226 107.127 108.454 105.714L106.973 105.475L105.492 105.237C105.246 106.761 104.998 108.989 104.746 111.897L106.24 112.026ZM106.973 105.475L108.454 105.714C108.7 104.182 108.847 102.648 108.894 101.111L107.395 101.065L105.895 101.019C105.852 102.426 105.718 103.831 105.492 105.237L106.973 105.475ZM107.395 101.065L108.894 101.111C108.939 99.6391 108.984 98.1603 109.028 96.6747L107.529 96.63L106.029 96.5854C105.985 98.0702 105.94 99.5482 105.895 101.019L107.395 101.065ZM107.529 96.63L109.028 96.6747C109.069 95.2896 109.248 93.9004 109.567 92.5059L108.105 92.1715L106.643 91.837C106.282 93.4168 106.076 95 106.029 96.5854L107.529 96.63ZM108.105 92.1715L109.567 92.5059C109.947 90.8449 110.024 89.1734 109.795 87.5002L108.309 87.7035L106.823 87.9068C107.002 89.2167 106.943 90.5238 106.643 91.837L108.105 92.1715ZM108.309 87.7035L109.795 87.5002C109.596 86.0422 109.446 84.5825 109.347 83.1212L107.85 83.2231L106.354 83.325C106.458 84.8545 106.614 86.3818 106.823 87.9068L108.309 87.7035ZM107.85 83.2231L109.347 83.1212C109.25 81.7034 109.263 80.2757 109.387 78.8376L107.892 78.7095L106.398 78.5814C106.261 80.1705 106.247 81.752 106.354 83.325L107.85 83.2231ZM107.892 78.7095L109.387 78.8376C109.501 77.5041 109.846 76.2378 110.423 75.0304L109.07 74.3832L107.717 73.736C106.983 75.2696 106.543 76.8876 106.398 78.5814L107.892 78.7095ZM109.07 74.3832L110.423 75.0304C111.105 73.6051 111.692 72.1564 112.183 70.6844L110.76 70.2095L109.337 69.7346C108.886 71.0865 108.346 72.4203 107.717 73.736L109.07 74.3832ZM110.76 70.2095L112.183 70.6844C112.642 69.3082 113.153 67.9513 113.715 66.6137L112.332 66.0328L110.949 65.452C110.358 66.8593 109.821 68.2868 109.337 69.7346L110.76 70.2095ZM112.332 66.0328L113.715 66.6137C114.303 65.214 114.853 63.7881 115.366 62.3362L113.951 61.8367L112.537 61.3372C112.043 62.7352 111.514 64.1068 110.949 65.452L112.332 66.0328ZM113.951 61.8367L115.366 62.3362C115.92 60.766 116.225 59.1458 116.278 57.4809L114.779 57.4328L113.28 57.3846C113.236 58.7417 112.989 60.0575 112.537 61.3372L113.951 61.8367ZM114.779 57.4328L116.278 57.4809C116.321 56.1303 116.575 54.8362 117.039 53.5918L115.633 53.0682L114.228 52.5446C113.649 54.0977 113.333 55.7133 113.28 57.3846L114.779 57.4328ZM115.633 53.0682L117.039 53.5918C117.528 52.2792 118.135 51.0143 118.862 49.7965L117.575 49.0275L116.287 48.2585C115.467 49.6308 114.781 51.0598 114.228 52.5446L115.633 53.0682ZM117.575 49.0275L118.862 49.7965C119.569 48.6138 120.315 47.7272 121.084 47.0948L120.131 45.9364L119.178 44.778C118.085 45.6768 117.127 46.851 116.287 48.2585L117.575 49.0275ZM120.131 45.9364L121.084 47.0948C121.646 46.6321 122.351 46.4165 123.35 46.5549L123.556 45.0691L123.762 43.5833C122.055 43.3468 120.477 43.7094 119.178 44.778L120.131 45.9364ZM123.556 45.0691L123.35 46.5549C124.19 46.6713 124.845 47.1 125.369 48.0365L126.678 47.3042L127.987 46.572C127.054 44.9032 125.628 43.8419 123.762 43.5833L123.556 45.0691ZM126.678 47.3042L125.369 48.0365C126.052 49.2575 126.605 50.5119 127.029 51.8005L128.454 51.3312L129.879 50.862C129.393 49.3865 128.762 47.9562 127.987 46.572L126.678 47.3042ZM128.454 51.3312L127.029 51.8005C127.5 53.2284 128.042 54.643 128.656 56.0444L130.03 55.4426L131.404 54.8408C130.827 53.5244 130.319 52.1982 129.879 50.862L128.454 51.3312ZM130.03 55.4426L128.656 56.0444C129.279 57.4687 129.995 58.826 130.802 60.1153L132.073 59.3193L133.345 58.5234C132.617 57.3615 131.97 56.1343 131.404 54.8408L130.03 55.4426ZM132.073 59.3193L130.802 60.1153C131.551 61.3124 132.276 62.5594 132.976 63.8566L134.296 63.1445L135.616 62.4323C134.887 61.0805 134.13 59.7775 133.345 58.5234L132.073 59.3193ZM134.296 63.1445L132.976 63.8566C133.69 65.1805 134.399 66.4971 135.103 67.8064L136.424 67.096L137.745 66.3855C137.041 65.0751 136.331 63.7574 135.616 62.4323L134.296 63.1445ZM136.424 67.096L135.103 67.8064C135.832 69.1621 136.63 70.4778 137.498 71.7533L138.738 70.91L139.978 70.0666C139.169 68.8766 138.425 67.6496 137.745 66.3855L136.424 67.096ZM138.738 70.91L137.498 71.7533C138.356 73.0161 139.263 74.2519 140.219 75.4605L141.395 74.5302L142.572 73.6C141.661 72.4472 140.796 71.2694 139.978 70.0666L138.738 70.91ZM141.395 74.5302L140.219 75.4605C141.233 76.7436 142.333 77.7824 143.531 78.5345L144.329 77.2641L145.127 75.9937C144.28 75.4621 143.424 74.6783 142.572 73.6L141.395 74.5302ZM144.329 77.2641L143.531 78.5345C144.322 79.0305 145.315 79.2827 146.327 78.8511C147.234 78.4636 147.829 77.6534 148.237 76.8414L146.897 76.1682L145.556 75.495C145.425 75.7561 145.311 75.918 145.227 76.0119C145.146 76.104 145.115 76.1063 145.149 76.0919C145.195 76.0724 145.25 76.0678 145.283 76.0726C145.302 76.0754 145.252 76.0725 145.127 75.9937L144.329 77.2641ZM146.897 76.1682L148.237 76.8414C148.967 75.3877 149.554 73.8917 149.995 72.3544L148.554 71.9404L147.112 71.5264C146.723 72.8813 146.205 74.2039 145.556 75.495L146.897 76.1682ZM148.554 71.9404L149.995 72.3544C150.376 71.0293 150.913 69.7773 151.609 68.5956L150.317 67.8345L149.024 67.0735C148.199 68.474 147.562 69.9593 147.112 71.5264L148.554 71.9404ZM150.317 67.8345L151.609 68.5956C152.366 67.3095 153.13 66.0301 153.9 64.7573L152.616 63.9811L151.332 63.2049C150.557 64.4878 149.787 65.7773 149.024 67.0735L150.317 67.8345ZM152.616 63.9811L153.9 64.7573C154.637 63.5373 155.455 62.3716 156.352 61.2599L155.184 60.3179L154.017 59.376C153.035 60.5927 152.14 61.8691 151.332 63.2049L152.616 63.9811ZM155.184 60.3179L156.352 61.2599C157.365 60.0045 158.221 58.6452 158.92 57.1842L157.567 56.5367L156.214 55.8893C155.615 57.1413 154.883 58.3028 154.017 59.376L155.184 60.3179ZM157.567 56.5367L158.92 57.1842C159.58 55.8056 160.19 54.4448 160.749 53.1018L159.364 52.5251L157.98 51.9484C157.441 53.2412 156.853 54.5548 156.214 55.8893L157.567 56.5367ZM159.364 52.5251L160.749 53.1018C161.345 51.6703 161.767 50.166 162.016 48.5924L160.535 48.3577L159.053 48.1231C158.84 49.4702 158.481 50.7441 157.98 51.9484L159.364 52.5251ZM160.535 48.3577L162.016 48.5924C162.239 47.1836 162.537 45.7759 162.911 44.3692L161.461 43.9842L160.011 43.5992C159.612 45.1032 159.293 46.6112 159.053 48.1231L160.535 48.3577ZM161.461 43.9842L162.911 44.3692C163.308 42.8736 163.642 41.3675 163.911 39.8509L162.435 39.5882L160.958 39.3255C160.703 40.7595 160.387 42.184 160.011 43.5992L161.461 43.9842ZM162.435 39.5882L163.911 39.8509C164.001 39.3494 164.17 39.0694 164.341 38.8999C164.512 38.7303 164.795 38.563 165.3 38.4774L165.049 36.9985L164.798 35.5196C163.823 35.6851 162.929 36.0751 162.229 36.7686C161.529 37.4624 161.131 38.3517 160.958 39.3255L162.435 39.5882ZM165.049 36.9985L165.3 38.4774C166.735 38.2338 168.168 38.0581 169.597 37.95L169.484 36.4543L169.371 34.9586C167.848 35.0737 166.323 35.2608 164.798 35.5196L165.049 36.9985ZM169.484 36.4543L169.597 37.95C171.135 37.8337 172.674 37.6221 174.213 37.3155L173.92 35.8444L173.627 34.3733C172.204 34.6567 170.785 34.8516 169.371 34.9586L169.484 36.4543ZM173.92 35.8444L174.213 37.3155C175.638 37.0317 177.065 36.8323 178.492 36.717L178.371 35.2219L178.25 33.7268C176.706 33.8515 175.165 34.0671 173.627 34.3733L173.92 35.8444ZM178.371 35.2219L178.492 36.717C179.677 36.6213 180.009 36.9485 180.151 37.1797L181.43 36.3959L182.709 35.6121C181.744 34.0379 180.037 33.5824 178.25 33.7268L178.371 35.2219ZM181.43 36.3959L180.151 37.1797C180.394 37.5762 180.529 38.2509 180.149 39.4556L181.579 39.9067L183.01 40.3577C183.537 38.6869 183.572 37.021 182.709 35.6121L181.43 36.3959ZM181.579 39.9067L180.149 39.4556C179.738 40.757 179.157 41.9626 178.404 43.077L179.647 43.9169L180.89 44.7568C181.807 43.3999 182.514 41.932 183.01 40.3577L181.579 39.9067ZM179.647 43.9169L178.404 43.077C177.555 44.3336 176.74 45.6073 175.96 46.898L177.244 47.6737L178.528 48.4495C179.282 47.2024 180.069 45.9715 180.89 44.7568L179.647 43.9169ZM177.244 47.6737L175.96 46.898C175.229 48.1091 174.42 49.2637 173.533 50.3623L174.701 51.3042L175.868 52.246C176.84 51.0418 177.726 49.7761 178.528 48.4495L177.244 47.6737ZM174.701 51.3042L173.533 50.3623C172.559 51.5706 171.671 52.8515 170.869 54.2041L172.16 54.9687L173.45 55.7334C174.179 54.5028 174.985 53.3405 175.868 52.246L174.701 51.3042ZM172.16 54.9687L170.869 54.2041C170.1 55.5028 169.339 56.8103 168.588 58.1266L169.891 58.8701L171.194 59.6136C171.937 58.3114 172.689 57.018 173.45 55.7334L172.16 54.9687ZM169.891 58.8701L168.588 58.1266C167.917 59.3029 167.083 60.3535 166.083 61.282L167.104 62.3811L168.125 63.4802C169.346 62.3458 170.371 61.0557 171.194 59.6136L169.891 58.8701ZM167.104 62.3811L166.083 61.282C165.021 62.269 163.906 63.1747 162.741 63.9998L163.607 65.2242L164.474 66.4486C165.749 65.5459 166.966 64.5562 168.125 63.4802L167.104 62.3811ZM163.607 65.2242L162.741 63.9998C161.542 64.8483 160.314 65.6687 159.059 66.4611L159.859 67.7296L160.66 68.9981C161.96 68.1778 163.231 67.328 164.474 66.4486L163.607 65.2242ZM159.859 67.7296L159.059 66.4611C157.675 67.3344 156.425 68.3635 155.313 69.5471L156.406 70.5743L157.499 71.6015C158.436 70.6048 159.488 69.7374 160.66 68.9981L159.859 67.7296ZM156.406 70.5743L155.313 69.5471C154.228 70.7021 153.249 71.948 152.379 73.2836L153.636 74.1026L154.892 74.9215C155.667 73.7331 156.536 72.6268 157.499 71.6015L156.406 70.5743ZM153.636 74.1026L152.379 73.2836C151.601 74.4781 150.738 75.5921 149.792 76.6264L150.899 77.6388L152.006 78.6512C153.064 77.4946 154.026 76.251 154.892 74.9215L153.636 74.1026ZM150.899 77.6388L149.792 76.6264C148.752 77.763 147.773 78.9603 146.855 80.2181L148.066 81.1028L149.277 81.9875C150.132 80.8176 151.041 79.7056 152.006 78.6512L150.899 77.6388ZM148.066 81.1028L146.855 80.2181C146.014 81.3691 145.105 82.427 144.127 83.3933L145.181 84.4602L146.236 85.5271C147.331 84.4445 148.345 83.2642 149.277 81.9875L148.066 81.1028ZM145.181 84.4602L144.127 83.3933C143.124 84.3838 142.071 85.3296 140.966 86.2305L141.914 87.393L142.862 88.5555C144.04 87.5949 145.165 86.5854 146.236 85.5271L145.181 84.4602ZM141.914 87.393L140.966 86.2305C140.556 86.5652 140.242 86.6785 140.018 86.7054C139.808 86.7307 139.553 86.6961 139.212 86.5028L138.472 87.8073L137.731 89.1118C138.544 89.5731 139.439 89.7968 140.377 89.684C141.3 89.5728 142.131 89.1517 142.862 88.5555L141.914 87.393ZM138.472 87.8073L139.212 86.5028C138.375 86.0275 137.707 85.2852 137.227 84.1832L135.852 84.7823L134.476 85.3814C135.183 87.0035 136.262 88.2778 137.731 89.1118L138.472 87.8073ZM135.852 84.7823L137.227 84.1832C136.631 82.8154 136.027 81.4525 135.414 80.0943L134.047 80.7109L132.68 81.3274C133.287 82.6739 133.886 84.0253 134.476 85.3814L135.852 84.7823ZM134.047 80.7109L135.414 80.0943C134.749 78.6176 133.894 77.2527 132.853 76.0023L131.7 76.9621L130.547 77.9218C131.416 78.9651 132.126 80.0994 132.68 81.3274L134.047 80.7109ZM131.7 76.9621L132.853 76.0023C132.011 74.9907 131.366 73.8634 130.915 72.6128L129.504 73.121L128.093 73.6292C128.661 75.2063 129.48 76.6397 130.547 77.9218L131.7 76.9621ZM129.504 73.121L130.915 72.6128C130.384 71.1382 129.763 69.7094 129.05 68.3271L127.717 69.0145L126.383 69.7018C127.036 70.9672 127.606 72.2762 128.093 73.6292L129.504 73.121ZM127.717 69.0145L129.05 68.3271C128.378 67.0233 127.736 65.7074 127.126 64.3792L125.763 65.0056L124.4 65.6319C125.029 67.0013 125.691 68.358 126.383 69.7018L127.717 69.0145ZM125.763 65.0056L127.126 64.3792C126.478 62.9696 125.742 61.6161 124.918 60.3195L123.652 61.1244L122.386 61.9292C123.137 63.11 123.808 64.3441 124.4 65.6319L125.763 65.0056ZM123.652 61.1244L124.918 60.3195C124.449 59.5828 123.748 58.8021 122.717 58.5981C121.597 58.3764 120.678 58.9353 120.052 59.559L121.111 60.6215L122.17 61.684C122.304 61.5504 122.37 61.5238 122.36 61.5279C122.352 61.5313 122.324 61.5417 122.279 61.5469C122.232 61.5523 122.183 61.5505 122.135 61.5411C122.037 61.5217 122.016 61.4849 122.072 61.5332C122.133 61.5854 122.242 61.7021 122.386 61.9292L123.652 61.1244ZM121.111 60.6215L120.052 59.559C118.908 60.6992 118.179 62.1553 117.817 63.8486L119.283 64.1623L120.75 64.476C121.011 63.2551 121.501 62.3507 122.17 61.684L121.111 60.6215ZM119.283 64.1623L117.817 63.8486C117.541 65.1391 117.056 66.3552 116.358 67.5029L117.64 68.2822L118.922 69.0615C119.792 67.6301 120.403 66.0997 120.75 64.476L119.283 64.1623ZM117.64 68.2822L116.358 67.5029C115.466 68.9707 114.906 70.5625 114.682 72.2655L116.17 72.4606L117.657 72.6557C117.826 71.3666 118.246 70.1727 118.922 69.0615L117.64 68.2822ZM116.17 72.4606L114.682 72.2655C114.478 73.8267 114.377 75.3849 114.381 76.9398L115.881 76.9358L117.381 76.9317C117.377 75.5119 117.469 74.0867 117.657 72.6557L116.17 72.4606ZM115.881 76.9358L114.381 76.9398C114.385 78.3029 114.221 79.6631 113.888 81.0231L115.345 81.3802L116.802 81.7373C117.192 80.1461 117.386 78.5433 117.381 76.9317L115.881 76.9358ZM115.345 81.3802L113.888 81.0231C113.473 82.7137 113.439 84.4211 113.785 86.1292L115.255 85.8315L116.725 85.5337C116.467 84.258 116.493 82.9979 116.802 81.7373L115.345 81.3802ZM115.255 85.8315L113.785 86.1292C114.056 87.4647 114.109 88.8029 113.948 90.1498L115.437 90.3287L116.926 90.5076C117.126 88.8419 117.059 87.1819 116.725 85.5337L115.255 85.8315ZM115.437 90.3287L113.948 90.1498C113.774 91.5937 113.512 93.011 113.162 94.4021L114.616 94.7685L116.071 95.1348C116.453 93.6188 116.738 92.0763 116.926 90.5076L115.437 90.3287ZM114.616 94.7685L113.162 94.4021C112.8 95.8372 112.413 97.2602 111.999 98.6711L113.439 99.093L114.878 99.5149C115.303 98.0669 115.7 96.6069 116.071 95.1348L114.616 94.7685ZM113.439 99.093L111.999 98.6711C111.572 100.131 111.189 101.605 110.852 103.094L112.315 103.425L113.778 103.756C114.101 102.328 114.468 100.914 114.878 99.5149L113.439 99.093ZM112.315 103.425L110.852 103.094C110.521 104.555 110.196 106.008 109.876 107.454L111.34 107.778L112.805 108.103C113.124 106.662 113.448 105.213 113.778 103.756L112.315 103.425ZM111.34 107.778L109.876 107.454C109.542 108.962 109.309 110.476 109.179 111.998L110.673 112.127L112.168 112.255C112.287 110.866 112.499 109.483 112.805 108.103L111.34 107.778ZM110.673 112.127L109.179 111.998C109.117 112.719 109.061 113.204 109.013 113.486C108.986 113.646 108.975 113.657 108.997 113.597C109.005 113.575 109.023 113.527 109.056 113.465C109.084 113.411 109.15 113.293 109.269 113.167C109.383 113.045 109.634 112.822 110.035 112.737C110.486 112.643 110.883 112.773 111.152 112.951L110.323 114.201L109.493 115.451C109.775 115.638 110.187 115.771 110.651 115.673C111.066 115.586 111.331 115.354 111.459 115.217C111.691 114.97 111.788 114.7 111.815 114.626C111.893 114.412 111.94 114.172 111.971 113.987C112.04 113.577 112.105 112.989 112.168 112.255L110.673 112.127ZM110.323 114.201L111.557 113.349L111.415 113.142L110.18 113.994L108.946 114.847L109.088 115.053L110.323 114.201ZM110.18 113.994L108.714 113.676L108.693 113.773L110.159 114.092L111.625 114.411L111.646 114.313L110.18 113.994Z" fill="black"/>
<path d="M95.6909 179.307C96.136 178.608 95.9305 177.681 95.2318 177.236C94.5331 176.791 93.6059 176.996 93.1607 177.695L94.4258 178.501L95.6909 179.307ZM94.3721 178.585L95.6144 179.426L95.626 179.409L95.6372 179.391L94.3721 178.585ZM90.4467 183.922L89.3088 182.945L90.4467 183.922ZM88.1895 187.767L86.7812 187.251L88.1895 187.767ZM88.6033 195.861L87.4188 196.782L88.6033 195.861ZM91.7754 198.961L90.8796 200.165L91.7754 198.961ZM104.287 203.822L105.586 204.571L105.743 204.3L105.778 203.989L104.287 203.822ZM104.167 204.03L102.867 203.28L102.008 204.77L103.601 205.419L104.167 204.03ZM103.693 205.457C104.461 205.77 105.336 205.401 105.648 204.634C105.961 203.866 105.592 202.991 104.825 202.679L104.259 204.068L103.693 205.457ZM94.4258 178.501L93.1607 177.695L93.107 177.779L94.3721 178.585L95.6372 179.391L95.6909 179.307L94.4258 178.501ZM94.3721 178.585L93.1298 177.745C91.5074 180.142 90.2374 181.864 89.3088 182.945L90.4467 183.922L91.5847 184.9C92.6278 183.685 93.9748 181.849 95.6144 179.426L94.3721 178.585ZM90.4467 183.922L89.3088 182.945C88.2064 184.229 87.3622 185.666 86.7812 187.251L88.1895 187.767L89.5978 188.284C90.0547 187.038 90.7153 185.912 91.5847 184.9L90.4467 183.922ZM88.1895 187.767L86.7812 187.251C86.2123 188.802 85.8909 190.367 85.8281 191.94L87.3269 192L88.8257 192.06C88.8752 190.82 89.1288 189.563 89.5978 188.284L88.1895 187.767ZM87.3269 192L85.8281 191.94C85.7572 193.719 86.3065 195.35 87.4188 196.782L88.6033 195.861L89.7878 194.941C89.0861 194.038 88.7845 193.094 88.8257 192.06L87.3269 192ZM88.6033 195.861L87.4188 196.782C88.4104 198.058 89.5654 199.186 90.8796 200.165L91.7754 198.961L92.6712 197.758C91.57 196.938 90.6103 196 89.7878 194.941L88.6033 195.861ZM91.7754 198.961L90.8796 200.165C92.1356 201.1 93.44 201.954 94.7926 202.726L95.5366 201.424L96.2807 200.122C95.0338 199.409 93.8307 198.622 92.6712 197.758L91.7754 198.961ZM95.5366 201.424L94.7926 202.726C96.2347 203.55 97.7836 204.127 99.4326 204.457L99.7271 202.987L100.022 201.516C98.6828 201.248 97.4381 200.783 96.2807 200.122L95.5366 201.424ZM99.7271 202.987L99.4326 204.457C100.944 204.76 102.164 204.95 103.052 205.003L103.141 203.505L103.231 202.008C102.555 201.968 101.498 201.812 100.022 201.516L99.7271 202.987ZM103.141 203.505L103.052 205.003C103.223 205.013 103.357 205.025 103.459 205.039C103.509 205.045 103.547 205.051 103.575 205.057C103.603 205.062 103.616 205.065 103.615 205.065C103.615 205.065 103.609 205.064 103.599 205.06C103.589 205.057 103.572 205.051 103.551 205.042C103.513 205.025 103.431 204.987 103.332 204.914C103.235 204.842 103.081 204.705 102.959 204.482C102.826 204.239 102.763 203.95 102.796 203.654L104.287 203.822L105.778 203.989C105.863 203.228 105.416 202.724 105.119 202.505C104.854 202.308 104.574 202.218 104.414 202.173C104.065 202.077 103.646 202.033 103.231 202.008L103.141 203.505ZM104.287 203.822L102.988 203.072L102.867 203.28L104.167 204.03L105.466 204.78L105.586 204.571L104.287 203.822ZM104.167 204.03L103.601 205.419L103.693 205.457L104.259 204.068L104.825 202.679L104.732 202.641L104.167 204.03Z" fill="black"/>
<path d="M85.3028 172.101C84.4833 171.98 83.7209 172.546 83.6 173.366C83.4792 174.185 84.0456 174.948 84.8651 175.069L85.084 173.585L85.3028 172.101ZM85.1829 173.599L84.9641 175.083L84.9901 175.087L85.0163 175.09L85.1829 173.599ZM95.9956 175.144L95.5049 176.561L95.9956 175.144ZM98.5339 177.682L97.0749 178.03L98.5339 177.682ZM98.9686 186.368L98.0597 187.561L98.4624 187.868H98.9686V186.368ZM98.8383 186.269L99.7473 185.076L96.9072 182.912L97.3499 186.455L98.8383 186.269ZM97.3623 186.554C97.4651 187.376 98.2147 187.959 99.0368 187.857C99.8588 187.754 100.442 187.004 100.339 186.182L98.8508 186.368L97.3623 186.554ZM85.084 173.585L84.8651 175.069L84.9641 175.083L85.1829 173.599L85.4018 172.115L85.3028 172.101L85.084 173.585ZM85.1829 173.599L85.0163 175.09C87.8696 175.409 90.0539 175.627 91.5585 175.741L91.6724 174.246L91.7863 172.75C90.3357 172.64 88.1937 172.426 85.3495 172.109L85.1829 173.599ZM91.6724 174.246L91.5585 175.741C92.9073 175.844 94.2217 176.117 95.5049 176.561L95.9956 175.144L96.4862 173.726C94.9604 173.198 93.3927 172.872 91.7863 172.75L91.6724 174.246ZM95.9956 175.144L95.5049 176.561C96.5366 176.918 96.931 177.427 97.0749 178.03L98.5339 177.682L99.993 177.334C99.5613 175.525 98.2636 174.341 96.4862 173.726L95.9956 175.144ZM98.5339 177.682L97.0749 178.03C97.3434 179.156 97.5479 180.436 97.6836 181.874L99.177 181.733L100.67 181.592C100.524 180.042 100.3 178.621 99.993 177.334L98.5339 177.682ZM99.177 181.733L97.6836 181.874C97.8215 183.336 97.829 184.351 97.7492 184.984L99.2374 185.171L100.726 185.359C100.847 184.396 100.814 183.119 100.67 181.592L99.177 181.733ZM99.2374 185.171L97.7492 184.984C97.7004 185.371 97.6598 185.613 97.6312 185.74C97.6144 185.815 97.6157 185.786 97.6475 185.711C97.6602 185.68 97.7154 185.549 97.8362 185.401C97.9321 185.284 98.3057 184.868 98.9686 184.868V186.368V187.868C99.6512 187.868 100.045 187.44 100.161 187.297C100.302 187.124 100.378 186.956 100.412 186.876C100.486 186.701 100.53 186.522 100.558 186.398C100.619 186.126 100.674 185.769 100.726 185.359L99.2374 185.171ZM98.9686 186.368L99.8775 185.175L99.7473 185.076L98.8383 186.269L97.9294 187.462L98.0597 187.561L98.9686 186.368ZM98.8383 186.269L97.3499 186.455L97.3623 186.554L98.8508 186.368L100.339 186.182L100.327 186.083L98.8383 186.269Z" fill="black"/>
<path d="M103.47 167.395C103.039 168.102 103.262 169.025 103.969 169.457C104.676 169.888 105.599 169.665 106.031 168.958L104.75 168.177L103.47 167.395ZM104.803 168.091L106.083 168.873L106.162 168.743L106.214 168.599L104.803 168.091ZM124.525 154.264L125.776 153.437L124.525 154.264ZM131.476 163.508L130.56 164.696L130.608 164.733L130.659 164.766L131.476 163.508ZM131.73 163.673L132.908 162.744L132.755 162.55L132.548 162.415L131.73 163.673ZM130.615 164.681C131.128 165.331 132.071 165.442 132.722 164.929C133.372 164.416 133.483 163.473 132.97 162.822L131.792 163.751L130.615 164.681ZM104.75 168.177L106.031 168.958L106.083 168.873L104.803 168.091L103.522 167.31L103.47 167.395L104.75 168.177ZM104.803 168.091L106.214 168.599C107.202 165.856 108.083 164.012 108.833 162.954L107.61 162.086L106.387 161.218C105.392 162.619 104.401 164.778 103.391 167.583L104.803 168.091ZM107.61 162.086L108.833 162.954C109.666 161.782 110.574 160.675 111.557 159.634L110.467 158.604L109.377 157.574C108.297 158.717 107.3 159.931 106.387 161.218L107.61 162.086ZM110.467 158.604L111.557 159.634C112.603 158.527 113.618 157.409 114.6 156.278L113.468 155.294L112.335 154.31C111.381 155.409 110.395 156.497 109.377 157.574L110.467 158.604ZM113.468 155.294L114.6 156.278C115.488 155.256 116.509 154.33 117.667 153.502L116.794 152.282L115.921 151.062C114.581 152.021 113.384 153.104 112.335 154.31L113.468 155.294ZM116.794 152.282L117.667 153.502C118.516 152.894 119.417 152.742 120.524 153.083L120.966 151.649L121.407 150.216C119.451 149.613 117.57 149.882 115.921 151.062L116.794 152.282ZM120.966 151.649L120.524 153.083C121.743 153.458 122.635 154.125 123.274 155.091L124.525 154.264L125.776 153.437C124.734 151.86 123.253 150.784 121.407 150.216L120.966 151.649ZM124.525 154.264L123.274 155.091C124.118 156.368 124.961 157.625 125.803 158.862L127.043 158.019L128.283 157.175C127.449 155.949 126.613 154.703 125.776 153.437L124.525 154.264ZM127.043 158.019L125.803 158.862C126.669 160.136 127.596 161.359 128.582 162.531L129.73 161.565L130.877 160.599C129.957 159.505 129.092 158.364 128.283 157.175L127.043 158.019ZM129.73 161.565L128.582 162.531C129.063 163.102 129.459 163.561 129.766 163.903C130.035 164.203 130.326 164.515 130.56 164.696L131.476 163.508L132.392 162.32C132.415 162.338 132.31 162.245 131.997 161.897C131.722 161.591 131.35 161.16 130.877 160.599L129.73 161.565ZM131.476 163.508L130.659 164.766L130.913 164.931L131.73 163.673L132.548 162.415L132.293 162.25L131.476 163.508ZM131.73 163.673L130.553 164.602L130.615 164.681L131.792 163.751L132.97 162.822L132.908 162.744L131.73 163.673Z" fill="black"/>
<path d="M123.377 164.773C122.584 164.533 121.747 164.982 121.507 165.775C121.267 166.568 121.715 167.405 122.508 167.645L122.942 166.209L123.377 164.773ZM123.038 166.238L122.604 167.674L122.656 167.69L122.709 167.701L123.038 166.238ZM129.426 167.962L128.915 169.372L129.426 167.962ZM133.522 168.734L133.535 167.234L133.522 168.734ZM136.625 162.121L135.144 162.361L136.625 162.121ZM136.24 159.846L137.426 158.928L136.288 157.458L135.092 158.88L136.24 159.846ZM136.184 159.912L134.769 159.414L137.332 160.878L136.184 159.912ZM137.632 160.315C137.907 159.534 137.497 158.677 136.715 158.402C135.934 158.127 135.078 158.538 134.803 159.319L136.217 159.817L137.632 160.315ZM122.942 166.209L122.508 167.645L122.604 167.674L123.038 166.238L123.473 164.802L123.377 164.773L122.942 166.209ZM123.038 166.238L122.709 167.701C125.565 168.344 127.619 168.902 128.915 169.372L129.426 167.962L129.937 166.552C128.457 166.015 126.252 165.424 123.367 164.775L123.038 166.238ZM129.426 167.962L128.915 169.372C130.447 169.927 131.981 170.221 133.509 170.234L133.522 168.734L133.535 167.234C132.379 167.224 131.182 167.003 129.937 166.552L129.426 167.962ZM133.522 168.734L133.509 170.234C134.468 170.242 135.381 169.981 136.146 169.374C136.894 168.78 137.38 167.952 137.685 167.032L136.262 166.56L134.838 166.087C134.659 166.628 134.446 166.893 134.281 167.024C134.132 167.142 133.917 167.237 133.535 167.234L133.522 168.734ZM136.262 166.56L137.685 167.032C138.245 165.345 138.387 163.621 138.106 161.882L136.625 162.121L135.144 162.361C135.348 163.617 135.248 164.852 134.838 166.087L136.262 166.56ZM136.625 162.121L138.106 161.882C137.985 161.132 137.891 160.563 137.826 160.178C137.794 159.987 137.767 159.835 137.747 159.727C137.738 159.675 137.727 159.622 137.718 159.577C137.714 159.557 137.706 159.521 137.695 159.481C137.691 159.463 137.68 159.423 137.664 159.373C137.656 159.349 137.64 159.305 137.616 159.25C137.603 159.218 137.543 159.079 137.426 158.928L136.24 159.846L135.053 160.764C134.937 160.613 134.878 160.475 134.864 160.445C134.841 160.392 134.826 160.348 134.819 160.326C134.804 160.281 134.795 160.246 134.792 160.236C134.785 160.21 134.782 160.193 134.783 160.199C134.784 160.204 134.789 160.226 134.797 160.271C134.813 160.357 134.836 160.492 134.868 160.68C134.931 161.053 135.023 161.613 135.144 162.361L136.625 162.121ZM136.24 159.846L135.092 158.88L135.037 158.946L136.184 159.912L137.332 160.878L137.387 160.812L136.24 159.846ZM136.184 159.912L137.599 160.41L137.632 160.315L136.217 159.817L134.803 159.319L134.769 159.414L136.184 159.912Z" fill="black"/>
<path d="M141.095 177.083C140.855 176.29 140.018 175.842 139.225 176.082C138.432 176.322 137.984 177.159 138.224 177.952L139.659 177.518L141.095 177.083ZM139.688 177.613L138.253 178.048L138.293 178.181L138.357 178.304L139.688 177.613ZM141.837 183.651L143.332 183.536L141.837 183.651ZM143.954 196.731L145.383 197.187L143.954 196.731ZM132.643 201.34L132.576 199.841V199.841L132.643 201.34ZM127.859 201.611L127.704 200.119L126.359 200.259V201.611H127.859ZM127.959 201.601L128.114 203.093L127.831 200.106L127.959 201.601ZM127.732 200.115C126.906 200.185 126.294 200.912 126.365 201.737C126.435 202.562 127.162 203.174 127.987 203.104L127.859 201.609L127.732 200.115ZM139.659 177.518L138.224 177.952L138.253 178.048L139.688 177.613L141.124 177.179L141.095 177.083L139.659 177.518ZM139.688 177.613L138.357 178.304C139.652 180.801 140.251 182.593 140.341 183.766L141.837 183.651L143.332 183.536C143.195 181.741 142.361 179.508 141.02 176.922L139.688 177.613ZM141.837 183.651L140.341 183.766C140.459 185.304 140.661 186.837 140.946 188.366L142.42 188.091L143.895 187.815C143.63 186.393 143.442 184.966 143.332 183.536L141.837 183.651ZM142.42 188.091L140.946 188.366C141.242 189.952 141.714 191.503 142.361 193.019L143.741 192.431L145.12 191.842C144.557 190.522 144.15 189.181 143.895 187.815L142.42 188.091ZM143.741 192.431L142.361 193.019C142.826 194.11 142.876 195.174 142.525 196.275L143.954 196.731L145.383 197.187C145.956 195.39 145.864 193.586 145.12 191.842L143.741 192.431ZM143.954 196.731L142.525 196.275C142.194 197.313 141.618 197.881 140.77 198.17L141.255 199.59L141.739 201.01C143.565 200.387 144.789 199.049 145.383 197.187L143.954 196.731ZM141.255 199.59L140.77 198.17C139.49 198.607 138.145 198.981 136.737 199.292L137.059 200.757L137.382 202.222C138.894 201.888 140.347 201.485 141.739 201.01L141.255 199.59ZM137.059 200.757L136.737 199.292C135.36 199.595 133.973 199.778 132.576 199.841L132.643 201.34L132.711 202.838C134.281 202.768 135.839 202.562 137.382 202.222L137.059 200.757ZM132.643 201.34L132.576 199.841C131.088 199.908 129.906 199.971 129.037 200.03L129.138 201.526L129.24 203.023C130.076 202.966 131.231 202.905 132.711 202.838L132.643 201.34ZM129.138 201.526L129.037 200.03C128.611 200.059 128.292 200.08 128.08 200.094C127.974 200.101 127.895 200.106 127.844 200.11C127.818 200.111 127.802 200.112 127.793 200.113C127.788 200.113 127.79 200.113 127.795 200.113C127.796 200.113 127.809 200.112 127.826 200.112C127.831 200.112 127.858 200.111 127.894 200.112C127.904 200.112 127.96 200.113 128.031 200.121C128.054 200.124 128.16 200.135 128.289 200.174C128.367 200.2 128.571 200.291 128.692 200.364C128.904 200.535 129.288 201.154 129.359 201.611H127.859H126.359C126.431 202.068 126.815 202.688 127.027 202.859C127.148 202.932 127.352 203.023 127.429 203.048C127.559 203.087 127.665 203.099 127.688 203.101C127.759 203.11 127.815 203.111 127.825 203.111C127.861 203.112 127.89 203.111 127.895 203.111C127.914 203.11 127.929 203.11 127.934 203.11C127.946 203.109 127.958 203.108 127.966 203.108C127.983 203.107 128.007 203.105 128.034 203.104C128.09 203.1 128.171 203.095 128.278 203.088C128.493 203.073 128.813 203.052 129.24 203.023L129.138 201.526ZM127.859 201.611L128.014 203.103L128.114 203.093L127.959 201.601L127.804 200.109L127.704 200.119L127.859 201.611ZM127.959 201.601L127.831 200.106L127.732 200.115L127.859 201.609L127.987 203.104L128.087 203.095L127.959 201.601Z" fill="black"/>
<path d="M130.027 195.647C130.535 194.993 130.417 194.05 129.763 193.542C129.109 193.034 128.166 193.152 127.658 193.806L128.842 194.727L130.027 195.647ZM128.781 194.806L129.508 196.118L129.777 195.969L129.965 195.726L128.781 194.806ZM123.216 198.104L122.378 196.86L123.216 198.104ZM125.968 204.274L124.669 205.025L125.968 204.274ZM127.725 206.87L126.652 207.918L126.664 207.93L126.676 207.942L127.725 206.87ZM128.295 207.427L129.539 206.589L129.453 206.462L129.344 206.355L128.295 207.427ZM127.107 208.348C127.57 209.035 128.502 209.217 129.189 208.754C129.876 208.291 130.058 207.359 129.595 206.672L128.351 207.51L127.107 208.348ZM128.842 194.727L127.658 193.806L127.597 193.885L128.781 194.806L129.965 195.726L130.027 195.647L128.842 194.727ZM128.781 194.806L128.054 193.494C125.533 194.89 123.632 196.015 122.378 196.86L123.216 198.104L124.055 199.348C125.196 198.579 127.005 197.505 129.508 196.118L128.781 194.806ZM123.216 198.104L122.378 196.86C121.622 197.37 120.835 198.173 120.797 199.338C120.76 200.467 121.453 201.341 122.137 201.943L123.128 200.816L124.118 199.69C123.913 199.509 123.822 199.386 123.789 199.329C123.761 199.281 123.799 199.325 123.795 199.437C123.793 199.488 123.783 199.534 123.771 199.568C123.759 199.601 123.749 199.612 123.756 199.602C123.775 199.576 123.852 199.485 124.055 199.348L123.216 198.104ZM123.128 200.816L122.137 201.943C123.154 202.837 123.997 203.863 124.669 205.025L125.968 204.274L127.266 203.522C126.429 202.077 125.378 200.798 124.118 199.69L123.128 200.816ZM125.968 204.274L124.669 205.025C125.42 206.322 126.089 207.341 126.652 207.918L127.725 206.87L128.798 205.822C128.528 205.545 128.025 204.833 127.266 203.522L125.968 204.274ZM127.725 206.87L126.676 207.942L127.246 208.499L128.295 207.427L129.344 206.355L128.774 205.798L127.725 206.87ZM128.295 207.427L127.051 208.265L127.107 208.348L128.351 207.51L129.595 206.672L129.539 206.589L128.295 207.427Z" fill="black"/>
</svg>
