<svg width="108" height="136" viewBox="0 0 108 136" fill="none" xmlns="http://www.w3.org/2000/svg">
<path d="M57.7576 48.8488C50.1798 48.5053 34.8991 48.4949 27.4306 52.9865C12.1617 62.1691 5.73269 75.184 2.94304 88.3515C1.06612 97.2109 5.00405 105.017 8.99075 113.011C12.4574 119.962 18.869 123.774 23.7353 127.771C29.1972 132.257 36.2107 133.85 41.9513 134.376C48.3899 134.965 69.062 133.184 84.9567 127.115C92.6038 124.196 96.2507 118.611 99.3838 113.578C102.422 108.697 104.245 101.623 104.427 91.391C104.543 84.8904 100.123 75.2881 93.867 65.5347C88.554 57.2513 82.0734 56.4891 77.5506 55.0995C73.1229 53.7391 67.5006 53.3664 60.3859 52.8407C58.809 52.669 57.7784 52.3255 56.5606 52.1485C55.3427 51.9716 53.9687 51.9716 52.5531 51.9716" stroke="black" stroke-width="2" stroke-linecap="round"/>
<path d="M22.3662 99.8544C23.7402 102.956 29.2779 108.515 36.9026 113.537C48.0152 120.857 60.1098 119.632 69.1814 117.732C77.16 115.135 84.8003 110.284 93.1172 97.8246C94.8764 94.6706 95.5634 92.6096 96.2712 88.4043" stroke="black" stroke-width="2" stroke-linecap="round"/>
<path d="M24.4482 75.9131C23.7612 75.9131 22.0333 77.6306 20.1232 80.7481C19.34 82.0264 19.9307 83.1787 20.7946 83.7095C21.6586 84.2404 23.0326 84.2404 24.0839 83.7252C25.1352 83.2099 25.8222 82.1794 25.6609 81.4768C25.4996 80.7742 24.469 80.4307 23.2512 80.2537C22.0333 80.0767 20.6593 80.0767 19.2437 80.0767" stroke="black" stroke-width="2" stroke-linecap="round"/>
<path d="M86.9032 72.79C86.5597 73.477 86.2162 74.164 86.5545 74.6897C87.9233 75.5589 90.0155 75.9128 91.0616 75.741C91.0772 75.5693 90.0467 75.2258 88.985 73.831" stroke="black" stroke-width="2" stroke-linecap="round"/>
<path d="M25.4891 67.5861C14.4138 66.5452 7.80398 66.8887 6.07086 67.9244C1.53163 70.637 0.507163 77.9744 1.19417 81.7842C2.80411 90.712 16.4332 93.2551 24.7657 95.3369C27.4888 96.0173 29.6424 95.3473 32.2343 93.9681C36.2509 91.8307 38.3236 88.0713 38.8441 85.1307C39.4173 81.8922 37.3035 77.6726 33.8425 73.1706C30.703 69.0869 25.1769 66.2121 19.457 64.1303C17.2093 63.3122 16.1417 63.4224 15.4391 64.4529C14.7365 65.4834 14.393 67.5445 14.3878 69.1214C14.3826 70.6984 14.7261 71.7289 16.1209 73.8316" stroke="black" stroke-width="2" stroke-linecap="round"/>
<path d="M40.062 76.9537C43.8405 74.5387 54.2601 71.7491 60.8543 70.8851C64.3153 70.7082 67.1154 71.0517 69.3638 72.0874C70.5816 72.7796 71.9557 73.8101 73.3713 76.9537" stroke="black" stroke-width="2" stroke-linecap="round"/>
<path d="M81.6985 59.2588C79.9706 60.6328 77.8888 65.4835 77.7066 73.1082C77.639 75.9391 79.2628 78.3284 80.9907 80.7537C85.6284 87.2632 97.3019 82.8563 99.035 81.8206C102.768 79.5899 102.517 74.5394 102.002 72.1141C98.0201 68.2939 94.1999 65.1608 92.1233 64.4686C91.0772 64.1199 90.0467 63.7764 87.944 63.4225" stroke="black" stroke-width="2" stroke-linecap="round"/>
<path d="M56.7164 46.7671C55.6755 38.471 56.3625 30.1333 58.9596 26.3079C61.5843 22.4418 68.4892 23.867 72.4759 24.3822C74.1261 24.5955 74.7451 25.928 74.5837 27.1459C74.2091 29.9739 72.3301 34.2449 73.0171 39.2725C73.4688 42.5777 78.5548 42.9469 82.1928 43.4674C84.78 43.8375 87.923 42.2704 91.2175 39.6733C93.3776 37.9705 93.1484 34.2969 94.0072 31.5177C94.7678 29.0561 100.758 32.1943 104.572 31.679C106.061 31.4781 106.326 30.1333 106.503 28.2284C106.934 23.5921 105.65 19.7137 103.573 17.8088C101.659 16.0526 98.7173 15.1961 96.6303 14.3322C96.0405 14.088 97.2913 13.1247 97.8221 12.0838C98.353 11.0429 98.353 9.66889 97.3225 7.93056C94.8247 3.71708 91.077 1.66425 88.8286 1.14379C87.6297 0.866255 86.2368 0.966836 85.0137 1.65384C82.3511 3.14944 81.6984 7.19151 81.1831 10.486C80.8419 12.6677 76.5146 12.4169 73.0484 13.1039C70.9561 15.1649 70.2483 19.6721 70.5918 24.8715C70.9353 26.9793 71.6223 28.0098 74.412 30.1125" stroke="black" stroke-width="2" stroke-linecap="round"/>
<path d="M88.9852 16.5811C88.2982 16.5811 86.2267 16.9246 83.281 17.9603C81.9509 18.4279 81.3657 19.683 81.0118 21.0726C80.6579 22.4622 80.6579 24.1797 81.1731 25.2363C82.0873 27.1108 85.8416 26.9902 89.1361 26.475C91.3178 26.1337 91.4105 22.837 91.4157 20.9321C90.0469 19.3707 87.9547 17.9759 85.7063 16.935C84.4884 16.5811 83.1144 16.5811 81.6988 17.622" stroke="black" stroke-width="2" stroke-linecap="round"/>
</svg>
