<svg width="14" height="2714" viewBox="0 0 14 2714" fill="none" xmlns="http://www.w3.org/2000/svg">
<path d="M11.9934 5C11.9934 2.23858 9.75483 0 6.99341 0C4.23198 0 1.99341 2.23858 1.99341 5H6.99341H11.9934ZM6.99341 5.1H1.99341V5.19296L1.99686 5.28585L6.99341 5.1ZM7.04663 131.65L2.0668 131.201L7.04663 131.65ZM7.87023 265.75L2.90044 266.299L7.87023 265.75ZM7.49924 1025.65L2.53159 1026.22V1026.22L7.49924 1025.65ZM6.0348 1204.45L1.06726 1203.88L6.0348 1204.45ZM7.25783 2053.75L2.27467 2053.34L7.25783 2053.75ZM7.85286 2705.38L12.6989 2706.61L12.7031 2706.6L12.7072 2706.58L7.85286 2705.38ZM6.99341 2708.76L2.1474 2707.53L1.99341 2708.14V2708.76H6.99341ZM1.99341 2708.86C1.99341 2711.63 4.23198 2713.86 6.99341 2713.86C9.75483 2713.86 11.9934 2711.63 11.9934 2708.86H6.99341H1.99341ZM6.99341 5H1.99341V5.1H6.99341H11.9934V5H6.99341ZM6.99341 5.1L1.99686 5.28585C2.36296 15.1283 2.47645 22.4164 2.35096 27.2194L7.34925 27.35L12.3475 27.4806C12.4816 22.3502 12.3578 14.805 11.99 4.91415L6.99341 5.1ZM7.34925 27.35L2.35096 27.2194C2.22585 32.0077 1.84476 36.7979 1.20716 41.5906L6.1635 42.25L11.1198 42.9094C11.8037 37.7688 12.2131 32.6256 12.3475 27.4806L7.34925 27.35ZM6.1635 42.25L1.20716 41.5906C0.471702 47.119 0.674345 52.6491 1.80743 58.1574L6.70488 57.15L11.6023 56.1426C10.6921 51.7176 10.5338 47.3143 11.1198 42.9094L6.1635 42.25ZM6.70488 57.15L1.80743 58.1574C2.72074 62.5974 2.89938 67.0159 2.3513 71.4345L7.31327 72.05L12.2752 72.6655C12.9593 67.1507 12.7323 61.6359 11.6023 56.1426L6.70488 57.15ZM7.31327 72.05L2.3513 71.4345C1.71095 76.5969 1.37968 81.7622 1.35809 86.9291L6.35805 86.95L11.358 86.9709C11.3779 82.2045 11.6835 77.4364 12.2752 72.6655L7.31327 72.05ZM6.35805 86.95L1.35809 86.9291C1.33739 91.8852 1.30094 96.8413 1.24876 101.797L6.24848 101.85L11.2482 101.903C11.3006 96.9254 11.3372 91.9481 11.358 86.9709L6.35805 86.95ZM6.24848 101.85L1.24876 101.797C1.19445 106.955 1.43523 112.112 1.97071 117.267L6.94395 116.75L11.9172 116.233C11.4208 111.455 11.1979 106.678 11.2482 101.903L6.24848 101.85ZM6.94395 116.75L1.97071 117.267C2.45336 121.913 2.4853 126.556 2.0668 131.201L7.04663 131.65L12.0265 132.099C12.5029 126.81 12.4664 121.52 11.9172 116.233L6.94395 116.75ZM7.04663 131.65L2.0668 131.201C1.59909 136.393 1.48404 141.586 1.72196 146.779L6.71672 146.55L11.7115 146.321C11.4943 141.581 11.5992 136.841 12.0265 132.099L7.04663 131.65ZM6.71672 146.55L1.72196 146.779C1.94759 151.704 2.11163 156.629 2.21407 161.554L7.21299 161.45L12.2119 161.346C12.1077 156.338 11.9409 151.329 11.7115 146.321L6.71672 146.55ZM7.21299 161.45L2.21407 161.554C2.31904 166.6 2.54459 171.646 2.89069 176.692L7.87897 176.35L12.8673 176.008C12.532 171.12 12.3136 166.233 12.2119 161.346L7.21299 161.45ZM7.87897 176.35L2.89069 176.692C3.20926 181.336 3.07893 185.981 2.49857 190.631L7.46007 191.25L12.4216 191.869C13.0811 186.585 13.23 181.297 12.8673 176.008L7.87897 176.35ZM7.46007 191.25L2.49857 190.631C1.82521 196.025 1.85194 201.424 2.5783 206.817L7.53355 206.15L12.4888 205.483C11.8773 200.942 11.855 196.408 12.4216 191.869L7.46007 191.25ZM7.53355 206.15L2.5783 206.817C3.19082 211.365 3.22311 215.907 2.67584 220.452L7.63999 221.05L12.6041 221.648C13.2528 216.26 13.2142 210.868 12.4888 205.483L7.53355 206.15ZM7.63999 221.05L2.67584 220.452C2.0462 225.682 1.8357 230.915 2.04524 236.15L7.04124 235.95L12.0372 235.75C11.8492 231.051 12.0378 226.351 12.6041 221.648L7.63999 221.05ZM7.04124 235.95L2.04524 236.15C2.24009 241.017 2.28982 245.885 2.19445 250.752L7.19349 250.85L12.1925 250.948C12.2918 245.882 12.24 240.816 12.0372 235.75L7.04124 235.95ZM7.19349 250.85L2.19445 250.752C2.09287 255.936 2.32838 261.119 2.90044 266.299L7.87023 265.75L12.84 265.201C12.3151 260.448 12.0995 255.697 12.1925 250.948L7.19349 250.85ZM7.87023 265.75L2.90044 266.299C3.40977 270.911 3.42381 275.52 2.94272 280.131L7.91573 280.65L12.8887 281.169C13.4439 275.847 13.4276 270.522 12.84 265.201L7.87023 265.75ZM7.91573 280.65L2.94272 280.131C2.40916 285.246 2.10567 290.362 2.0325 295.479L7.03199 295.55L12.0315 295.622C12.1004 290.805 12.386 285.988 12.8887 281.169L7.91573 280.65ZM7.03199 295.55L2.0325 295.479C1.9642 300.255 1.62367 305.033 1.01034 309.814L5.96969 310.45L10.929 311.086C11.5901 305.934 11.9577 300.779 12.0315 295.622L7.03199 295.55ZM5.96969 310.45L1.01034 309.814C0.324369 315.161 0.257237 320.513 0.809804 325.864L5.78335 325.35L10.7569 324.836C10.2836 320.253 10.3407 315.673 10.929 311.086L5.96969 310.45ZM5.78335 325.35L0.809804 325.864C1.30751 330.683 1.58872 335.501 1.65367 340.317L6.65322 340.25L11.6528 340.183C11.5838 335.066 11.2851 329.951 10.7569 324.836L5.78335 325.35ZM6.65322 340.25L1.65367 340.317C1.7184 345.118 1.54398 349.919 1.13022 354.721L6.11176 355.15L11.0933 355.579C11.5354 350.448 11.722 345.316 11.6528 340.183L6.65322 340.25ZM6.11176 355.15L1.13022 354.721C0.671144 360.049 0.791274 365.377 1.48933 370.7L6.44688 370.05L11.4044 369.4C10.7998 364.789 10.6965 360.185 11.0933 355.579L6.11176 355.15ZM6.44688 370.05L1.48933 370.7C2.08898 375.273 2.13949 379.839 1.64171 384.408L6.6123 384.95L11.5829 385.491C12.1673 380.127 12.1075 374.761 11.4044 369.4L6.44688 370.05ZM6.6123 384.95L1.64171 384.408C1.04632 389.874 1.27047 395.338 2.30818 400.786L7.21986 399.85L12.1315 398.914C11.277 394.428 11.0961 389.96 11.5829 385.491L6.6123 384.95ZM7.21986 399.85L2.30818 400.786C3.17645 405.344 3.45983 409.887 3.16405 414.425L8.15346 414.75L13.1429 415.075C13.4945 409.68 13.1555 404.29 12.1315 398.914L7.21986 399.85ZM8.15346 414.75L3.16405 414.425C2.8383 419.423 2.55975 424.421 2.32841 429.419L7.32306 429.65L12.3177 429.881C12.5461 424.946 12.8212 420.011 13.1429 415.075L8.15346 414.75ZM7.32306 429.65L2.32841 429.419C2.10036 434.346 1.81346 439.273 1.46771 444.2L6.45544 444.55L11.4432 444.9C11.7945 439.894 12.086 434.888 12.3177 429.881L7.32306 429.65ZM6.45544 444.55L1.46771 444.2C1.1102 449.295 0.949475 454.39 0.985626 459.485L5.9855 459.45L10.9854 459.415C10.9511 454.577 11.1036 449.739 11.4432 444.9L6.45544 444.55ZM5.9855 459.45L0.985626 459.485C1.02044 464.393 0.967543 469.3 0.826934 474.207L5.82488 474.35L10.8228 474.493C10.9669 469.467 11.021 464.441 10.9854 459.415L5.9855 459.45ZM5.82488 474.35L0.826934 474.207C0.67768 479.416 0.905962 484.623 1.51104 489.827L6.47758 489.25L11.4441 488.673C10.8943 483.944 10.6875 479.218 10.8228 474.493L5.82488 474.35ZM6.47758 489.25L1.51104 489.827C2.0423 494.397 2.02397 498.963 1.45572 503.533L6.41752 504.15L11.3793 504.767C12.0461 499.404 12.0678 494.036 11.4441 488.673L6.47758 489.25ZM6.41752 504.15L1.45572 503.533C0.801656 508.794 0.619492 514.059 0.910338 519.326L5.90273 519.05L10.8951 518.774C10.6374 514.107 10.7984 509.439 11.3793 504.767L6.41752 504.15ZM5.90273 519.05L0.910338 519.326C1.17197 524.063 1.10737 528.8 0.716344 533.539L5.69941 533.95L10.6825 534.361C11.1111 529.167 11.1821 523.97 10.8951 518.774L5.90273 519.05ZM5.69941 533.95L0.716344 533.539C0.273542 538.905 0.473957 544.27 1.31476 549.625L6.25426 548.85L11.1938 548.075C10.4751 543.497 10.3056 538.928 10.6825 534.361L5.69941 533.95ZM6.25426 548.85L1.31476 549.625C2.07041 554.439 2.59604 559.249 2.89219 564.057L7.88273 563.75L12.8733 563.443C12.5576 558.318 11.9976 553.195 11.1938 548.075L6.25426 548.85ZM7.88273 563.75L2.89219 564.057C3.19228 568.93 3.35383 573.802 3.37687 578.674L8.37682 578.65L13.3768 578.626C13.3528 573.565 13.185 568.504 12.8733 563.443L7.88273 563.75ZM8.37682 578.65L3.37687 578.674C3.39963 583.485 3.1985 588.297 2.77331 593.11L7.75391 593.55L12.7345 593.99C13.1868 588.87 13.401 583.748 13.3768 578.626L8.37682 578.65ZM7.75391 593.55L2.77331 593.11C2.31424 598.307 2.21645 603.505 2.48022 608.703L7.47379 608.45L12.4674 608.197C12.2271 603.462 12.3161 598.727 12.7345 593.99L7.75391 593.55ZM7.47379 608.45L2.48022 608.703C2.72325 613.493 2.7117 618.283 2.44553 623.073L7.43783 623.35L12.4301 623.627C12.7159 618.484 12.7284 613.34 12.4674 608.197L7.47379 608.45ZM7.43783 623.35L2.44553 623.073C2.16458 628.129 2.01959 633.185 2.01058 638.241L7.01057 638.25L12.0106 638.259C12.0193 633.382 12.1591 628.505 12.4301 623.627L7.43783 623.35ZM7.01057 638.25L2.01058 638.241C2.00187 643.125 1.87218 648.009 1.62147 652.894L6.6149 653.15L11.6083 653.406C11.8675 648.357 12.0016 643.308 12.0106 638.259L7.01057 638.25ZM6.6149 653.15L1.62147 652.894C1.35243 658.135 1.51513 663.376 2.10878 668.613L7.07696 668.05L12.0451 667.487C11.5128 662.791 11.3675 658.098 11.6083 653.406L6.6149 653.15ZM7.07696 668.05L2.10878 668.613C2.66394 673.511 3.11581 678.408 3.46443 683.305L8.45181 682.95L13.4392 682.595C13.0806 677.558 12.6159 672.522 12.0451 667.487L7.07696 668.05ZM8.45181 682.95L3.46443 683.305C3.80907 688.146 3.96995 692.986 3.94715 697.826L8.94709 697.85L13.947 697.874C13.971 692.78 13.8017 687.687 13.4392 682.595L8.45181 682.95ZM8.94709 697.85L3.94715 697.826C3.92403 702.736 3.8164 707.645 3.62427 712.554L8.62045 712.75L13.6166 712.945C13.8132 707.922 13.9234 702.898 13.947 697.874L8.94709 697.85ZM8.62045 712.75L3.62427 712.554C3.42794 717.571 3.30717 722.588 3.26197 727.605L8.26177 727.65L13.2616 727.695C13.3059 722.779 13.4242 717.862 13.6166 712.945L8.62045 712.75ZM8.26177 727.65L3.26197 727.605C3.21828 732.453 3.00258 737.302 2.61476 742.151L7.59885 742.55L12.5829 742.949C12.9895 737.865 13.2157 732.78 13.2616 727.695L8.26177 727.65ZM7.59885 742.55L2.61476 742.151C2.22071 747.079 1.76801 752.006 1.25665 756.934L6.22995 757.45L11.2032 757.966C11.7227 752.96 12.1826 747.955 12.5829 742.949L7.59885 742.55ZM6.22995 757.45L1.25665 756.934C0.709649 762.205 0.648685 767.479 1.07416 772.752L6.05797 772.35L11.0418 771.948C10.6657 767.288 10.7194 762.628 11.2032 757.966L6.22995 757.45ZM6.05797 772.35L1.07416 772.752C1.44931 777.401 1.38059 782.05 0.867445 786.702L5.8373 787.25L10.8072 787.798C11.3897 782.517 11.4681 777.232 11.0418 771.948L6.05797 772.35ZM5.8373 787.25L0.867445 786.702C0.283431 791.996 0.225393 797.294 0.693807 802.59L5.67437 802.15L10.6549 801.709C10.2449 797.073 10.2954 792.437 10.8072 787.798L5.8373 787.25ZM5.67437 802.15L0.693807 802.59C1.12 807.409 1.33051 812.227 1.32552 817.045L6.32551 817.05L11.3255 817.055C11.3308 811.939 11.1072 806.824 10.6549 801.709L5.67437 802.15ZM6.32551 817.05L1.32552 817.045C1.32031 822.064 1.3936 827.082 1.54538 832.101L6.5431 831.95L11.5408 831.799C11.3922 826.884 11.3204 821.97 11.3255 817.055L6.32551 817.05ZM6.5431 831.95L1.54538 832.101C1.70125 837.255 2.14628 842.407 2.87981 847.555L7.82983 846.85L12.7798 846.145C12.0981 841.36 11.6854 836.578 11.5408 831.799L6.5431 831.95ZM7.82983 846.85L2.87981 847.555C3.53518 852.155 3.67313 856.748 3.29556 861.34L8.27875 861.75L13.2619 862.16C13.701 856.819 13.5397 851.478 12.7798 846.145L7.82983 846.85ZM8.27875 861.75L3.29556 861.34C2.86425 866.586 2.87474 871.834 3.32697 877.079L8.30849 876.65L13.29 876.221C12.8859 871.533 12.8766 866.847 13.2619 862.16L8.27875 861.75ZM8.30849 876.65L3.32697 877.079C3.71455 881.575 3.47058 886.075 2.58843 890.592L7.49571 891.55L12.403 892.508C13.4609 887.092 13.7588 881.658 13.29 876.221L8.30849 876.65ZM7.49571 891.55L2.58843 890.592C1.50538 896.137 1.41573 901.701 2.32348 907.256L7.25803 906.45L12.1926 905.644C11.4772 901.266 11.546 896.896 12.403 892.508L7.49571 891.55ZM7.25803 906.45L2.32348 907.256C3.0973 911.992 3.53004 916.722 3.62319 921.449L8.62222 921.35L13.6213 921.251C13.5186 916.045 13.0419 910.841 12.1926 905.644L7.25803 906.45ZM8.62222 921.35L3.62319 921.449C3.71408 926.06 3.31811 930.679 2.43086 935.309L7.34153 936.25L12.2522 937.191C13.2683 931.888 13.7261 926.573 13.6213 921.251L8.62222 921.35ZM7.34153 936.25L2.43086 935.309C1.35711 940.913 1.38278 946.533 2.50643 952.134L7.40873 951.15L12.311 950.166C11.4417 945.834 11.4226 941.521 12.2522 937.191L7.34153 936.25ZM7.40873 951.15L2.50643 952.134C3.41172 956.646 3.67098 961.14 3.29153 965.629L8.27377 966.05L13.256 966.471C13.7161 961.027 13.3987 955.588 12.311 950.166L7.40873 951.15ZM8.27377 966.05L3.29153 965.629C2.8821 970.473 2.29274 975.319 1.52316 980.166L6.46132 980.95L11.3995 981.734C12.2069 976.648 12.8259 971.56 13.256 966.471L8.27377 966.05ZM6.46132 980.95L1.52316 980.166C0.663541 985.581 0.547977 991.005 1.1789 996.428L6.1454 995.85L11.1119 995.272C10.587 990.761 10.6821 986.253 11.3995 981.734L6.46132 980.95ZM6.1454 995.85L1.1789 996.428C1.72994 1001.16 1.94722 1005.9 1.83146 1010.63L6.82997 1010.75L11.8285 1010.87C11.9557 1005.67 11.7166 1000.47 11.1119 995.272L6.1454 995.85ZM6.82997 1010.75L1.83146 1010.63C1.70428 1015.83 1.93787 1021.02 2.53159 1026.22L7.49924 1025.65L12.4669 1025.08C11.9252 1020.34 11.7126 1015.61 11.8285 1010.87L6.82997 1010.75ZM7.49924 1025.65L2.53159 1026.22C3.06675 1030.9 3.19622 1035.58 2.92081 1040.26L7.91216 1040.55L12.9035 1040.84C13.2129 1035.59 13.0671 1030.33 12.4669 1025.08L7.49924 1025.65ZM7.91216 1040.55L2.92081 1040.26C2.62131 1045.34 2.50624 1050.43 2.57566 1055.52L7.57519 1055.45L12.5747 1055.38C12.5086 1050.54 12.6182 1045.69 12.9035 1040.84L7.91216 1040.55ZM7.57519 1055.45L2.57566 1055.52C2.64512 1060.61 2.90382 1065.7 3.35166 1070.79L8.33242 1070.35L13.3132 1069.91C12.8869 1065.07 12.6408 1060.22 12.5747 1055.38L7.57519 1055.45ZM8.33242 1070.35L3.35166 1070.79C3.74122 1075.22 3.42156 1079.65 2.37968 1084.11L7.24875 1085.25L12.1178 1086.39C13.3949 1080.92 13.7977 1075.42 13.3132 1069.91L8.33242 1070.35ZM7.24875 1085.25L2.37968 1084.11C1.11763 1089.52 0.611941 1094.95 0.873695 1100.39L5.86792 1100.15L10.8621 1099.91C10.646 1095.42 11.0609 1090.91 12.1178 1086.39L7.24875 1085.25ZM5.86792 1100.15L0.873695 1100.39C1.10415 1105.18 1.0811 1109.97 0.804515 1114.76L5.7962 1115.05L10.7879 1115.34C11.0848 1110.2 11.1096 1105.05 10.8621 1099.91L5.86792 1100.15ZM5.7962 1115.05L0.804515 1114.76C0.507916 1119.9 0.475217 1125.04 0.706456 1130.17L5.7014 1129.95L10.6963 1129.73C10.4805 1124.93 10.511 1120.13 10.7879 1115.34L5.7962 1115.05ZM5.7014 1129.95L0.706456 1130.17C0.939183 1135.35 1.48855 1140.51 2.35349 1145.68L7.28477 1144.85L12.2161 1144.02C11.4169 1139.25 10.9107 1134.49 10.6963 1129.73L5.7014 1129.95ZM7.28477 1144.85L2.35349 1145.68C3.07551 1149.99 2.94067 1154.29 1.93808 1158.62L6.80944 1159.75L11.6808 1160.88C12.9761 1155.28 13.1581 1149.65 12.2161 1144.02L7.28477 1144.85ZM6.80944 1159.75L1.93808 1158.62C0.640881 1164.23 0.472655 1169.87 1.44381 1175.5L6.37105 1174.65L11.2983 1173.8C10.5561 1169.5 10.6802 1165.2 11.6808 1160.88L6.80944 1159.75ZM6.37105 1174.65L1.44381 1175.5C2.23828 1180.11 2.51529 1184.7 2.27857 1189.29L7.27193 1189.55L12.2653 1189.81C12.5407 1184.47 12.2172 1179.13 11.2983 1173.8L6.37105 1174.65ZM7.27193 1189.55L2.27857 1189.29C2.02788 1194.15 1.62415 1199.02 1.06726 1203.88L6.0348 1204.45L11.0023 1205.02C11.5828 1199.95 12.0038 1194.88 12.2653 1189.81L7.27193 1189.55ZM6.0348 1204.45L1.06726 1203.88C0.473427 1209.07 0.226711 1214.26 0.327744 1219.45L5.3268 1219.35L10.3259 1219.25C10.2335 1214.51 10.4588 1209.77 11.0023 1205.02L6.0348 1204.45ZM5.3268 1219.35L0.327744 1219.45C0.42704 1224.55 0.732182 1229.65 1.24299 1234.75L6.2181 1234.25L11.1932 1233.75C10.709 1228.92 10.4199 1224.08 10.3259 1219.25L5.3268 1219.35ZM6.2181 1234.25L1.24299 1234.75C1.71159 1239.43 1.771 1244.1 1.42161 1248.78L6.40771 1249.15L11.3938 1249.52C11.7866 1244.27 11.7196 1239.01 11.1932 1233.75L6.2181 1234.25ZM6.40771 1249.15L1.42161 1248.78C1.04077 1253.87 0.86026 1258.97 0.880172 1264.07L5.88013 1264.05L10.8801 1264.03C10.8612 1259.19 11.0324 1254.36 11.3938 1249.52L6.40771 1249.15ZM5.88013 1264.05L0.880172 1264.07C0.900768 1269.34 1.40344 1274.61 2.38504 1279.87L7.30011 1278.95L12.2152 1278.03C11.3423 1273.36 10.8983 1268.69 10.8801 1264.03L5.88013 1264.05ZM7.30011 1278.95L2.38504 1279.87C3.21331 1284.3 3.31192 1288.72 2.68521 1293.15L7.6358 1293.85L12.5864 1294.55C13.3666 1289.04 13.2414 1283.53 12.2152 1278.03L7.30011 1278.95ZM7.6358 1293.85L2.68521 1293.15C1.93288 1298.46 1.74163 1303.78 2.11334 1309.1L7.10118 1308.75L12.089 1308.4C11.7666 1303.79 11.9318 1299.17 12.5864 1294.55L7.6358 1293.85ZM7.10118 1308.75L2.11334 1309.1C2.4517 1313.94 2.608 1318.78 2.58232 1323.62L7.58225 1323.65L12.5822 1323.68C12.6092 1318.58 12.4448 1313.49 12.089 1308.4L7.10118 1308.75ZM7.58225 1323.65L2.58232 1323.62C2.55572 1328.64 2.60379 1333.66 2.72654 1338.67L7.72504 1338.55L12.7235 1338.43C12.6032 1333.51 12.5561 1328.59 12.5822 1323.68L7.58225 1323.65ZM7.72504 1338.55L2.72654 1338.67C2.84248 1343.41 2.63465 1348.15 2.10242 1352.89L7.07123 1353.45L12.04 1354.01C12.6226 1348.82 12.8507 1343.62 12.7235 1338.43L7.72504 1338.55ZM7.07123 1353.45L2.10242 1352.89C1.4985 1358.27 1.5686 1363.66 2.3116 1369.03L7.26454 1368.35L12.2175 1367.67C11.5879 1363.11 11.5291 1358.56 12.04 1354.01L7.07123 1353.45ZM7.26454 1368.35L2.3116 1369.03C2.96872 1373.79 3.31649 1378.54 3.3558 1383.29L8.35563 1383.25L13.3555 1383.21C13.3126 1378.02 12.9329 1372.84 12.2175 1367.67L7.26454 1368.35ZM8.35563 1383.25L3.3558 1383.29C3.39651 1388.21 3.36614 1393.13 3.2647 1398.05L8.26363 1398.15L13.2626 1398.25C13.366 1393.24 13.397 1388.22 13.3555 1383.21L8.35563 1383.25ZM8.26363 1398.15L3.2647 1398.05C3.16019 1403.11 3.20837 1408.18 3.40921 1413.25L8.40529 1413.05L13.4014 1412.85C13.2085 1407.99 13.1622 1403.12 13.2626 1398.25L8.26363 1398.15ZM8.40529 1413.05L3.40921 1413.25C3.58791 1417.76 3.15443 1422.28 2.09836 1426.82L6.96846 1427.95L11.8386 1429.08C13.092 1423.69 13.6164 1418.28 13.4014 1412.85L8.40529 1413.05ZM6.96846 1427.95L2.09836 1426.82C0.847723 1432.2 0.304231 1437.6 0.477818 1443.01L5.47525 1442.85L10.4727 1442.69C10.3277 1438.17 10.7797 1433.64 11.8386 1429.08L6.96846 1427.95ZM5.47525 1442.85L0.477818 1443.01C0.635819 1447.94 0.734471 1452.86 0.773775 1457.79L5.77362 1457.75L10.7735 1457.71C10.7335 1452.7 10.6333 1447.7 10.4727 1442.69L5.47525 1442.85ZM5.77362 1457.75L0.773775 1457.79C0.812953 1462.7 0.769754 1467.61 0.644178 1472.52L5.64254 1472.65L10.6409 1472.78C10.7693 1467.76 10.8135 1462.73 10.7735 1457.71L5.77362 1457.75ZM5.64254 1472.65L0.644178 1472.52C0.51677 1477.5 0.412967 1482.49 0.332771 1487.47L5.33212 1487.55L10.3315 1487.63C10.4112 1482.68 10.5143 1477.73 10.6409 1472.78L5.64254 1472.65ZM5.33212 1487.55L0.332771 1487.47C0.2494 1492.65 0.496259 1497.83 1.0728 1503L6.04207 1502.45L11.0113 1501.9C10.4814 1497.14 10.255 1492.38 10.3315 1487.63L5.33212 1487.55ZM6.04207 1502.45L1.0728 1503C1.62744 1507.98 2.20125 1512.96 2.79421 1517.94L7.75913 1517.35L12.724 1516.76C12.1341 1511.8 11.5632 1506.85 11.0113 1501.9L6.04207 1502.45ZM7.75913 1517.35L2.79421 1517.94C3.3452 1522.57 3.41782 1527.19 3.01285 1531.81L7.99378 1532.25L12.9747 1532.69C13.4398 1527.38 13.356 1522.07 12.724 1516.76L7.75913 1517.35ZM7.99378 1532.25L3.01285 1531.81C2.58452 1536.7 2.04256 1541.59 1.38694 1546.49L6.34262 1547.15L11.2983 1547.81C11.9741 1542.77 12.533 1537.73 12.9747 1532.69L7.99378 1532.25ZM6.34262 1547.15L1.38694 1546.49C0.678545 1551.77 0.484211 1557.06 0.805435 1562.35L5.79625 1562.05L10.7871 1561.75C10.5053 1557.11 10.6752 1552.46 11.2983 1547.81L6.34262 1547.15ZM5.79625 1562.05L0.805435 1562.35C1.11234 1567.41 1.55509 1572.46 2.13361 1577.52L7.10118 1576.95L12.0687 1576.38C11.5103 1571.5 11.0831 1566.62 10.7871 1561.75L5.79625 1562.05ZM7.10118 1576.95L2.13361 1577.52C2.66539 1582.16 2.74463 1586.81 2.37201 1591.45L7.35599 1591.85L12.34 1592.25C12.7645 1586.96 12.6739 1581.67 12.0687 1576.38L7.10118 1576.95ZM7.35599 1591.85L2.37201 1591.45C1.95507 1596.65 1.89669 1601.84 2.19704 1607.04L7.18871 1606.75L12.1804 1606.46C11.9066 1601.72 11.9597 1596.99 12.34 1592.25L7.35599 1591.85ZM7.18871 1606.75L2.19704 1607.04C2.46452 1611.67 2.26318 1616.3 1.59102 1620.93L6.5393 1621.65L11.4876 1622.37C12.2554 1617.07 12.487 1611.77 12.1804 1606.46L7.18871 1606.75ZM6.5393 1621.65L1.59102 1620.93C0.806437 1626.34 0.757599 1631.76 1.4455 1637.18L6.40564 1636.55L11.3658 1635.92C10.7919 1631.4 10.8321 1626.89 11.4876 1622.37L6.5393 1621.65ZM6.40564 1636.55L1.4455 1637.18C2.06027 1642.02 2.48627 1646.86 2.72372 1651.7L7.71771 1651.45L12.7117 1651.2C12.4615 1646.11 12.0128 1641.01 11.3658 1635.92L6.40564 1636.55ZM7.71771 1651.45L2.72372 1651.7C2.96463 1656.6 3.11823 1661.51 3.18453 1666.42L8.18408 1666.35L13.1836 1666.28C13.1157 1661.26 12.9584 1656.23 12.7117 1651.2L7.71771 1651.45ZM8.18408 1666.35L3.18453 1666.42C3.24913 1671.2 3.04759 1675.98 2.57959 1680.76L7.55582 1681.25L12.5321 1681.74C13.0359 1676.59 13.2532 1671.43 13.1836 1666.28L8.18408 1666.35ZM7.55582 1681.25L2.57959 1680.76C2.09323 1685.73 1.61321 1690.7 1.13952 1695.68L6.11697 1696.15L11.0944 1696.62C11.5673 1691.66 12.0465 1686.7 12.5321 1681.74L7.55582 1681.25ZM6.11697 1696.15L1.13952 1695.68C0.63256 1701 0.692411 1706.32 1.31847 1711.63L6.28417 1711.05L11.2499 1710.47C10.7064 1705.85 10.6548 1701.24 11.0944 1696.62L6.11697 1696.15ZM6.28417 1711.05L1.31847 1711.63C1.87783 1716.39 2.12391 1721.13 2.05737 1725.88L7.05688 1725.95L12.0564 1726.02C12.1291 1720.83 11.86 1715.65 11.2499 1710.47L6.28417 1711.05ZM7.05688 1725.95L2.05737 1725.88C1.9878 1730.84 1.91231 1735.81 1.83089 1740.77L6.83022 1740.85L11.8295 1740.93C11.9111 1735.96 11.9867 1730.99 12.0564 1726.02L7.05688 1725.95ZM6.83022 1740.85L1.83089 1740.77C1.74913 1745.75 1.69276 1750.74 1.66178 1755.72L6.66169 1755.75L11.6616 1755.78C11.6924 1750.83 11.7483 1745.88 11.8295 1740.93L6.83022 1740.85ZM6.66169 1755.75L1.66178 1755.72C1.63137 1760.61 1.49239 1765.5 1.24483 1770.4L6.23844 1770.65L11.2321 1770.9C11.4871 1765.86 11.6303 1760.82 11.6616 1755.78L6.66169 1755.75ZM6.23844 1770.65L1.24483 1770.4C0.99367 1775.36 0.738428 1780.33 0.4791 1785.29L5.47229 1785.55L10.4655 1785.81C10.7251 1780.84 10.9806 1775.87 11.2321 1770.9L6.23844 1770.65ZM5.47229 1785.55L0.4791 1785.29C0.210609 1790.43 0.208876 1795.57 0.473905 1800.71L5.46727 1800.45L10.4606 1800.19C10.2134 1795.4 10.215 1790.6 10.4655 1785.81L5.47229 1785.55ZM5.46727 1800.45L0.473905 1800.71C0.740137 1805.87 1.31025 1811.03 2.18327 1816.18L7.11308 1815.35L12.0429 1814.52C11.2337 1809.74 10.7067 1804.96 10.4606 1800.19L5.46727 1800.45ZM7.11308 1815.35L2.18327 1816.18C2.95995 1820.77 3.1947 1825.35 2.89126 1829.92L7.88028 1830.25L12.8693 1830.58C13.2251 1825.22 12.9484 1819.86 12.0429 1814.52L7.11308 1815.35ZM7.88028 1830.25L2.89126 1829.92C2.55856 1834.93 2.29599 1839.94 2.10355 1844.96L7.09987 1845.15L12.0962 1845.34C12.2851 1840.42 12.5428 1835.5 12.8693 1830.58L7.88028 1830.25ZM7.09987 1845.15L2.10355 1844.96C1.90709 1850.08 1.94302 1855.19 2.21132 1860.31L7.20446 1860.05L12.1976 1859.79C11.9451 1854.97 11.9113 1850.16 12.0962 1845.34L7.09987 1845.15ZM7.20446 1860.05L2.21132 1860.31C2.46477 1865.15 2.52599 1869.98 2.39502 1874.81L7.39319 1874.95L12.3914 1875.09C12.5295 1869.99 12.4649 1864.89 12.1976 1859.79L7.20446 1860.05ZM7.39319 1874.95L2.39502 1874.81C2.25581 1879.95 2.38055 1885.09 2.76909 1890.23L7.75485 1889.85L12.7406 1889.47C12.3778 1884.68 12.2614 1879.88 12.3914 1875.09L7.39319 1874.95ZM7.75485 1889.85L2.76909 1890.23C3.10973 1894.73 2.8294 1899.24 1.92089 1903.77L6.82313 1904.75L11.7254 1905.73C12.8105 1900.33 13.1513 1894.9 12.7406 1889.47L7.75485 1889.85ZM6.82313 1904.75L1.92089 1903.77C0.866922 1909.02 0.284437 1914.28 0.176919 1919.55L5.17588 1919.65L10.1748 1919.75C10.27 1915.09 10.7857 1910.42 11.7254 1905.73L6.82313 1904.75ZM5.17588 1919.65L0.176919 1919.55C0.0697651 1924.8 0.408447 1930.05 1.19123 1935.29L6.13639 1934.55L11.0816 1933.81C10.3809 1929.12 10.0793 1924.43 10.1748 1919.75L5.17588 1919.65ZM6.13639 1934.55L1.19123 1935.29C1.90736 1940.08 2.36896 1944.88 2.57667 1949.67L7.57198 1949.45L12.5673 1949.23C12.3443 1944.09 11.8488 1938.95 11.0816 1933.81L6.13639 1934.55ZM7.57198 1949.45L2.57667 1949.67C2.77958 1954.35 2.5807 1959.03 1.97883 1963.71L6.93809 1964.35L11.8973 1964.99C12.5714 1959.74 12.7951 1954.49 12.5673 1949.23L7.57198 1949.45ZM6.93809 1964.35L1.97883 1963.71C1.28281 1969.13 1.3299 1974.56 2.11913 1979.97L7.06686 1979.25L12.0146 1978.53C11.3562 1974.01 11.3175 1969.5 11.8973 1964.99L6.93809 1964.35ZM7.06686 1979.25L2.11913 1979.97C2.77468 1984.47 2.78768 1988.96 2.1585 1993.46L7.11027 1994.15L12.062 1994.84C12.8226 1989.41 12.8066 1983.96 12.0146 1978.53L7.06686 1979.25ZM7.11027 1994.15L2.1585 1993.46C1.42608 1998.69 1.12494 2003.93 1.2565 2009.18L6.25492 2009.05L11.2533 2008.92C11.1356 2004.23 11.4047 1999.54 12.062 1994.84L7.11027 1994.15ZM6.25492 2009.05L1.2565 2009.18C1.38517 2014.3 1.76171 2019.43 2.38574 2024.55L7.34908 2023.95L12.3124 2023.35C11.7268 2018.54 11.3739 2013.73 11.2533 2008.92L6.25492 2009.05ZM7.34908 2023.95L2.38574 2024.55C2.96112 2029.28 3.18732 2034 3.06519 2038.72L8.06352 2038.85L13.0618 2038.98C13.1967 2033.77 12.9467 2028.55 12.3124 2023.35L7.34908 2023.95ZM8.06352 2038.85L3.06519 2038.72C2.93911 2043.59 2.67562 2048.47 2.27467 2053.34L7.25783 2053.75L12.241 2054.16C12.6573 2049.1 12.9309 2044.04 13.0618 2038.98L8.06352 2038.85ZM7.25783 2053.75L2.27467 2053.34C1.86634 2058.3 1.45275 2063.27 1.0339 2068.23L6.01619 2068.65L10.9985 2069.07C11.4179 2064.1 11.8321 2059.13 12.241 2054.16L7.25783 2053.75ZM6.01619 2068.65L1.0339 2068.23C0.569412 2073.73 0.987319 2079.23 2.27434 2084.7L7.1413 2083.55L12.0083 2082.4C10.9568 2077.94 10.6247 2073.5 10.9985 2069.07L6.01619 2068.65ZM7.1413 2083.55L2.27434 2084.7C3.33262 2089.19 3.70754 2093.66 3.41159 2098.12L8.40061 2098.45L13.3896 2098.78C13.753 2093.31 13.2884 2087.84 12.0083 2082.4L7.1413 2083.55ZM8.40061 2098.45L3.41159 2098.12C3.09053 2102.96 2.5801 2107.79 1.88004 2112.63L6.82855 2113.35L11.7771 2114.07C12.5137 2108.97 13.0513 2103.88 13.3896 2098.78L8.40061 2098.45ZM6.82855 2113.35L1.88004 2112.63C1.13195 2117.81 0.711369 2122.98 0.619215 2128.16L5.61842 2128.25L10.6176 2128.34C10.7022 2123.58 11.0884 2118.83 11.7771 2114.07L6.82855 2113.35ZM5.61842 2128.25L0.619215 2128.16C0.529338 2133.21 0.566738 2138.26 0.731411 2143.31L5.72875 2143.15L10.7261 2142.99C10.5669 2138.1 10.5307 2133.22 10.6176 2128.34L5.61842 2128.25ZM5.72875 2143.15L0.731411 2143.31C0.888049 2148.12 0.810594 2152.92 0.49896 2157.73L5.48848 2158.05L10.478 2158.37C10.8106 2153.25 10.8933 2148.12 10.7261 2142.99L5.72875 2143.15ZM5.48848 2158.05L0.49896 2157.73C0.169944 2162.8 0.00361013 2167.87 7.15256e-06 2172.95L5.00001 2172.95L10 2172.95C10.0035 2168.09 10.1628 2163.23 10.478 2158.37L5.48848 2158.05ZM5.00001 2172.95L7.15256e-06 2172.95C-0.00364256 2178.09 0.259845 2183.23 0.790148 2188.36L5.76372 2187.85L10.7373 2187.34C10.2423 2182.54 9.9966 2177.75 10 2172.95L5.00001 2172.95ZM5.76372 2187.85L0.790148 2188.36C1.29734 2193.28 1.72496 2198.19 2.07302 2203.1L7.06052 2202.75L12.048 2202.4C11.6924 2197.38 11.2555 2192.36 10.7373 2187.34L5.76372 2187.85ZM7.06052 2202.75L2.07302 2203.1C2.42492 2208.07 2.77763 2213.04 3.13115 2218L8.11854 2217.65L13.1059 2217.29C12.7525 2212.33 12.3998 2207.36 12.048 2202.4L7.06052 2202.75ZM8.11854 2217.65L3.13115 2218C3.46453 2222.69 3.40023 2227.37 2.93788 2232.06L7.91372 2232.55L12.8896 2233.04C13.4073 2227.79 13.4795 2222.54 13.1059 2217.29L8.11854 2217.65ZM7.91372 2232.55L2.93788 2232.06C2.44957 2237.01 1.93514 2241.96 1.39459 2246.91L6.36504 2247.45L11.3355 2247.99C11.8798 2243.01 12.3978 2238.02 12.8896 2233.04L7.91372 2232.55ZM6.36504 2247.45L1.39459 2246.91C0.817521 2252.19 0.74848 2257.48 1.18798 2262.76L6.17079 2262.35L11.1536 2261.94C10.7672 2257.29 10.8277 2252.64 11.3355 2247.99L6.36504 2247.45ZM6.17079 2262.35L1.18798 2262.76C1.58888 2267.59 1.77828 2272.41 1.75634 2277.23L6.75629 2277.25L11.7562 2277.27C11.7795 2272.16 11.5786 2267.05 11.1536 2261.94L6.17079 2262.35ZM6.75629 2277.25L1.75634 2277.23C1.73335 2282.28 1.83845 2287.33 2.07162 2292.38L7.0663 2292.15L12.061 2291.92C11.8356 2287.04 11.734 2282.15 11.7562 2277.27L6.75629 2277.25ZM7.0663 2292.15L2.07162 2292.38C2.29746 2297.27 2.41332 2302.16 2.41924 2307.06L7.41924 2307.05L12.4192 2307.04C12.4131 2302 12.2937 2296.96 12.061 2291.92L7.0663 2292.15ZM7.41924 2307.05L2.41924 2307.06C2.42524 2312.01 2.4184 2316.97 2.39874 2321.93L7.3987 2321.95L12.3987 2321.97C12.4184 2316.99 12.4253 2312.02 12.4192 2307.04L7.41924 2307.05ZM7.3987 2321.95L2.39874 2321.93C2.37983 2326.7 2.07569 2331.47 1.4857 2336.24L6.44791 2336.85L11.4101 2337.46C12.0484 2332.3 12.3782 2327.14 12.3987 2321.97L7.3987 2321.95ZM6.44791 2336.85L1.4857 2336.24C0.801522 2341.77 1.06071 2347.3 2.25338 2352.81L7.14009 2351.75L12.0268 2350.69C11.0682 2346.27 10.866 2341.86 11.4101 2337.46L6.44791 2336.85ZM7.14009 2351.75L2.25338 2352.81C3.22964 2357.32 3.54752 2361.8 3.21646 2366.28L8.20286 2366.65L13.1893 2367.02C13.5924 2361.56 13.2018 2356.12 12.0268 2350.69L7.14009 2351.75ZM8.20286 2366.65L3.21646 2366.28C2.84742 2371.27 2.51798 2376.27 2.22815 2381.26L7.21975 2381.55L12.2113 2381.84C12.4981 2376.9 12.8241 2371.96 13.1893 2367.02L8.20286 2366.65ZM7.21975 2381.55L2.22815 2381.26C1.92574 2386.47 2.00365 2391.68 2.46164 2396.89L7.44242 2396.45L12.4232 2396.01C12.0077 2391.29 11.9372 2386.56 12.2113 2381.84L7.21975 2381.55ZM7.44242 2396.45L2.46164 2396.89C2.85477 2401.36 2.58725 2405.83 1.65058 2410.33L6.54548 2411.35L11.4404 2412.37C12.5731 2406.93 12.9036 2401.47 12.4232 2396.01L7.44242 2396.45ZM6.54548 2411.35L1.65058 2410.33C0.501764 2415.84 0.295758 2421.38 1.04064 2426.92L5.99597 2426.25L10.9513 2425.58C10.3595 2421.19 10.5198 2416.79 11.4404 2412.37L6.54548 2411.35ZM5.99597 2426.25L1.04064 2426.92C1.66606 2431.56 1.83708 2436.21 1.55522 2440.85L6.54602 2441.15L11.5368 2441.45C11.8583 2436.16 11.6626 2430.87 10.9513 2425.58L5.99597 2426.25ZM6.54602 2441.15L1.55522 2440.85C1.24493 2445.96 1.15314 2451.06 1.27992 2456.17L6.27838 2456.05L11.2768 2455.93C11.1571 2451.1 11.2438 2446.28 11.5368 2441.45L6.54602 2441.15ZM6.27838 2456.05L1.27992 2456.17C1.40598 2461.25 1.7056 2466.33 2.17867 2471.41L7.15712 2470.95L12.1356 2470.49C11.6835 2465.63 11.3972 2460.78 11.2768 2455.93L6.27838 2456.05ZM7.15712 2470.95L2.17867 2471.41C2.61824 2476.13 2.70465 2480.85 2.43822 2485.57L7.43027 2485.85L12.4223 2486.13C12.7169 2480.92 12.6212 2475.7 12.1356 2470.49L7.15712 2470.95ZM7.43027 2485.85L2.43822 2485.57C2.16449 2490.42 1.71594 2495.26 1.09239 2500.11L6.05156 2500.75L11.0107 2501.39C11.6645 2496.3 12.1351 2491.22 12.4223 2486.13L7.43027 2485.85ZM6.05156 2500.75L1.09239 2500.11C0.397283 2505.52 0.422652 2510.93 1.16802 2516.33L6.12113 2515.65L11.0742 2514.97C10.4496 2510.44 10.4286 2505.92 11.0107 2501.39L6.05156 2500.75ZM6.12113 2515.65L1.16802 2516.33C1.82019 2521.06 2.12577 2525.79 2.08586 2530.51L7.08568 2530.55L12.0855 2530.59C12.1296 2525.38 11.7921 2520.17 11.0742 2514.97L6.12113 2515.65ZM7.08568 2530.55L2.08586 2530.51C2.04355 2535.51 2.06045 2540.52 2.13657 2545.53L7.13599 2545.45L12.1354 2545.37C12.0605 2540.45 12.0439 2535.52 12.0855 2530.59L7.08568 2530.55ZM7.13599 2545.45L2.13657 2545.53C2.21077 2550.41 2.15832 2555.29 1.97921 2560.17L6.97584 2560.35L11.9725 2560.53C12.1579 2555.48 12.2122 2550.43 12.1354 2545.37L7.13599 2545.45ZM6.97584 2560.35L1.97921 2560.17C1.78698 2565.4 2.01981 2570.64 2.67665 2575.87L7.6377 2575.25L12.5988 2574.63C12.0086 2569.93 11.8002 2565.23 11.9725 2560.53L6.97584 2560.35ZM7.6377 2575.25L2.67665 2575.87C3.23524 2580.32 3.10101 2584.77 2.26891 2589.23L7.18424 2590.15L12.0996 2591.07C13.1191 2585.6 13.2872 2580.11 12.5988 2574.63L7.6377 2575.25ZM7.18424 2590.15L2.26891 2589.23C1.22604 2594.83 1.26294 2600.44 2.37757 2606.03L7.28104 2605.05L12.1845 2604.07C11.3184 2599.73 11.2908 2595.4 12.0996 2591.07L7.18424 2590.15ZM7.28104 2605.05L2.37757 2606.03C3.22676 2610.29 3.15184 2614.53 2.14488 2618.8L7.01169 2619.95L11.8785 2621.1C13.2114 2615.44 13.316 2609.75 12.1845 2604.07L7.28104 2605.05ZM7.01169 2619.95L2.14488 2618.8C0.856247 2624.27 0.443316 2629.77 0.919474 2635.28L5.90089 2634.85L10.8823 2634.42C10.4997 2629.99 10.8273 2625.56 11.8785 2621.1L7.01169 2619.95ZM5.90089 2634.85L0.919474 2635.28C1.34703 2640.23 1.7427 2645.17 2.10649 2650.12L7.09302 2649.75L12.0795 2649.38C11.7126 2644.4 11.3135 2639.41 10.8823 2634.42L5.90089 2634.85ZM7.09302 2649.75L2.10649 2650.12C2.4441 2654.71 2.26361 2659.3 1.56251 2663.9L6.50541 2664.65L11.4483 2665.4C12.2614 2660.07 12.4726 2654.73 12.0795 2649.38L7.09302 2649.75ZM6.50541 2664.65L1.56251 2663.9C0.713388 2669.47 0.884913 2675.04 2.06902 2680.59L6.959 2679.55L11.849 2678.51C10.9141 2674.12 10.7833 2669.77 11.4483 2665.4L6.50541 2664.65ZM6.959 2679.55L2.06902 2680.59C3.06075 2685.24 3.57961 2689.88 3.63057 2694.5L8.63027 2694.45L13.63 2694.39C13.5715 2689.09 12.9762 2683.79 11.849 2678.51L6.959 2679.55ZM8.63027 2694.45L3.63057 2694.5C3.68449 2699.4 3.41124 2702.51 2.99851 2704.18L7.85286 2705.38L12.7072 2706.58C13.4404 2703.61 13.6854 2699.43 13.63 2694.39L8.63027 2694.45ZM7.85286 2705.38L3.00685 2704.15L2.1474 2707.53L6.99341 2708.76L11.8394 2710L12.6989 2706.61L7.85286 2705.38ZM6.99341 2708.76H1.99341V2708.86H6.99341H11.9934V2708.76H6.99341Z" fill="black"/>
</svg>
